<?xml version="1.0" encoding="utf-8"?>
<!-- Generator: Adobe Illustrator 26.0.1, SVG Export Plug-In . SVG Version: 6.00 Build 0)  -->
<!DOCTYPE svg PUBLIC "-//W3C//DTD SVG 1.1//EN" "http://www.w3.org/Graphics/SVG/1.1/DTD/svg11.dtd" [
	<!ENTITY ns_extend "http://ns.adobe.com/Extensibility/1.0/">
	<!ENTITY ns_ai "http://ns.adobe.com/AdobeIllustrator/10.0/">
	<!ENTITY ns_graphs "http://ns.adobe.com/Graphs/1.0/">
	<!ENTITY ns_vars "http://ns.adobe.com/Variables/1.0/">
	<!ENTITY ns_imrep "http://ns.adobe.com/ImageReplacement/1.0/">
	<!ENTITY ns_sfw "http://ns.adobe.com/SaveForWeb/1.0/">
	<!ENTITY ns_custom "http://ns.adobe.com/GenericCustomNamespace/1.0/">
	<!ENTITY ns_adobe_xpath "http://ns.adobe.com/XPath/1.0/">
]>
<svg version="1.1" id="Layer_1" xmlns:x="&ns_extend;" xmlns:i="&ns_ai;" xmlns:graph="&ns_graphs;"
	 xmlns="http://www.w3.org/2000/svg" xmlns:xlink="http://www.w3.org/1999/xlink" x="0px" y="0px" viewBox="0 0 400 189.5"
	 style="enable-background:new 0 0 400 189.5;" xml:space="preserve">
<style type="text/css">
	.st0{fill:#0d6efd;}
</style>
<metadata>
	<sfw  xmlns="&ns_sfw;">
		<slices></slices>
		<sliceSourceBounds  bottomLeftOrigin="true" height="160.4" width="360.2" x="19.9" y="14.5"></sliceSourceBounds>
	</sfw>
</metadata>
<path class="st0" d="M34.8,66.5C34.8,66.5,34.8,66.5,34.8,66.5c0.1,0.1,0.1,0.1,0.2,0.2l0.1,0c0,0,0,0,0.1,0c0,0,0,0.1,0.1,0.1
	c0.1,0.1,0.1,0.1,0.2,0.1c0.1,0,0.1,0.1,0.2,0.1l0.1,0c0.1,0,0.1,0.1,0.2,0.1c0.1,0.1,0.1,0.1,0.2,0.2l0.6,0.3l0-0.4
	c0-0.1,0-0.2,0-0.3l0,0l0,0l0,0c0.1-0.3,0.1-0.6,0.1-0.9v0c0-0.2-0.1-0.3-0.2-0.5c0,0-0.1-0.1-0.1-0.2c0-0.2-0.2-0.4-0.4-0.4
	c0,0-0.1,0-0.1,0c-0.1-0.1-0.1-0.1-0.2-0.2c-0.2,0-0.3,0.1-0.5,0.2l-0.1,0.1c-0.1,0-0.1,0.1-0.1,0.1c0,0,0,0.1-0.1,0.1
	c0,0-0.1,0-0.1,0c-0.1,0-0.3,0.1-0.4,0.2c-0.2,0.2-0.3,0.5-0.2,0.7C34.5,66.4,34.7,66.5,34.8,66.5z"/>
<path class="st0" d="M150.4,89.2c-0.3,0-0.4-0.2-0.4-0.6c-0.1-0.3-0.1-0.6-0.2-0.9c-0.1-0.3-0.1-0.6,0-1c-0.3-0.2-0.6-0.5-0.6-0.9
	c-0.1-0.4-0.2-0.8-0.3-1.1c-0.1-1.2-0.1-2.5,0.1-3.8c0.2-1.2,0.2-2.4,0.1-3.6c-0.1-0.1-0.2-0.3-0.3-0.4c-0.1-0.2-0.3-0.3-0.5-0.3
	c0.1-0.2,0.1-0.5,0-0.7c-0.2-0.2-0.2-0.4-0.2-0.7c-0.4,0.1-0.6,0-0.6-0.3c-0.1-0.2-0.2-0.4-0.5-0.5c0-0.3-0.2-0.5-0.5-0.6
	c-0.2-0.1-0.3-0.3-0.2-0.8c0-0.5,0.2-0.9,0.5-1.3c0.3-0.3,0.5-0.8,0.6-1.2v-2.3c-0.5-0.2-0.9-0.6-1.1-1.1h-1c-0.3,0-0.6-0.1-0.8-0.3
	c-0.1-0.4-0.3-0.9-0.5-1.3c-0.2-0.4-0.3-0.9-0.5-1.4c-0.3-0.1-0.5-0.3-0.6-0.6c-0.1-0.3-0.3-0.4-0.8-0.5c0.1-0.5,0-0.8-0.4-0.9
	c-0.4-0.1-0.6-0.5-0.5-0.9c0,0,0,0,0,0c-0.4,0.1-0.6-0.2-0.6-0.6c-0.4,0-0.7-0.2-1-0.4c-0.2-0.2-0.5-0.4-0.8-0.5
	c-0.1-0.4-0.3-0.8-0.7-1.1c-0.3-0.3-0.6-0.7-0.7-1.1c-0.3-0.1-0.6-0.2-0.9-0.2c-0.3,0-0.6-0.2-0.7-0.4c0.1-0.3,0-0.5-0.2-0.5
	c-0.2-0.1-0.2-0.2-0.1-0.5c-0.1-0.2-0.2-0.3-0.5-0.2s-0.4,0-0.5-0.2V54c-0.7-0.2-1.3-0.2-2-0.2c-0.3-0.6-0.7-1.1-1.1-1.5
	c-0.5-0.5-0.8-1.1-1.1-1.7c-0.3,0-0.5,0-0.7-0.1c-0.2-0.1-0.4-0.2-0.5-0.4c-0.2-0.1-0.4-0.3-0.6-0.4c-0.3-0.1-0.6-0.1-0.9,0
	c-0.1-0.1-0.2-0.3-0.2-0.5c0-0.2-0.2-0.3-0.4-0.1c-0.2-0.1-0.4-0.2-0.7-0.2h-1c-0.4-0.4-0.9-0.7-1.4-1c-0.5-0.3-1.1-0.4-1.7-0.2
	c-0.2-0.4-0.5-0.7-0.9-0.9c-0.4-0.3-0.6-0.7-0.7-1.1c-0.3-0.1-0.6-0.1-0.9-0.1c-0.2,0-0.5-0.1-0.6-0.3c-0.1-0.2-0.4-0.4-0.7-0.4
	c-0.3,0-0.5-0.1-0.7-0.3c-0.7,0.1-1.5,0.2-2.4,0.3c-0.9,0.1-1.6,0.2-2.4,0.3c-0.1-0.2-0.2-0.3-0.2-0.5c0-0.2-0.1-0.4-0.2-0.6
	c-0.2-0.1-0.4-0.1-0.6-0.1c-0.2,0-0.4-0.2-0.5-0.3c-0.4,0-0.5-0.1-0.4-0.4c-0.4,0-0.6-0.1-0.6-0.2c-0.4,0.1-0.9,0.1-1.3,0.2
	c-0.5,0.1-1,0.1-1.5,0c-0.4-0.1-0.8-0.3-1.1-0.6c-0.3-0.3-0.7-0.5-1.1-0.5h-2.7c-0.8-0.6-1.7-0.9-2.7-0.9c0-0.2-0.2-0.4-0.4-0.5
	c-0.2-0.1-0.4-0.2-0.6-0.2c-0.2-0.1-0.5-0.1-0.6-0.2c-0.2-0.1-0.3-0.3-0.4-0.5h-1.8c-0.2-0.2-0.5-0.4-0.7-0.6
	c-0.2-0.1-0.5-0.3-0.8-0.5c-0.3,0.2-0.7,0.3-1,0.1c-0.4-0.2-0.8-0.2-1.2-0.1c0.1-0.4-0.1-0.5-0.4-0.5c-0.3,0-0.5,0-0.7-0.1
	c-0.2-0.1-0.4-0.3-0.5-0.5c-0.2-0.2-0.3-0.3-0.5-0.5h-1.6c-0.4-0.7-1.2-1-2.5-0.9c-0.4-0.4-0.9-0.8-1.4-1.1c-0.6-0.4-1.3-0.6-2-0.7
	c-0.3-0.5-0.7-0.9-1.1-1.2c-0.4-0.3-0.8-0.8-1.1-1.2c-0.3,0-0.6-0.1-0.9-0.2c0-0.2-0.1-0.3-0.2-0.3c-0.1,0.2-0.3,0.3-0.5,0.4
	c-0.2,0.1-0.4,0.2-0.6,0.3c0.1,0.4,0.3,0.7,0.5,1c0.3,0.2,0.5,0.5,0.6,0.8c-0.1,0.4-0.1,0.9,0.1,1.3c0.2,0.3,0.4,0.6,0.5,1
	c0.4,0.1,0.8,0,1.1-0.1c0.2-0.2,0.5,0,0.7,0.3c-0.2,1-0.3,1.9-0.3,2.9c0.2,0.3,0.4,0.5,0.6,0.7c0.2,0.2,0.4,0.4,0.5,0.7
	c0.3,0.2,0.6,0.4,0.8,0.6c0.2,0.2,0.4,0.4,0.5,0.7h1.4c0.1,0.4,0.4,0.8,0.8,1.1c0.4,0.3,0.6,0.8,0.6,1.3c0.4,0,0.9,0.2,1.2,0.5
	c0.3,0.3,0.6,0.5,1,0.6c0,0.3,0.3,0.5,0.5,0.4c0.2,0,0.5,0,0.6,0.2c0.3,0.1,0.5,0.2,0.5,0.5c0,0.2,0.2,0.3,0.6,0.3
	c0.5-0.1,0.9-0.1,1.4,0c0.4,0.1,0.8,0.1,1.2,0.2c0,0.3,0.1,0.5,0.2,0.7c0.1,0.3,0.1,0.6,0,0.9c0.5-0.2,0.8-0.2,0.8,0.1
	c0.1,0.3,0.1,0.5,0.3,0.7c0.4,0,0.8,0.1,1.1,0.2c0.4,0.2,0.8,0.2,1.1,0c0.3,0.3,0.6,0.6,0.9,0.8c0.3,0.3,0.6,0.6,0.9,0.9
	c0.4,0,0.8,0.2,1.2,0.4c0.5,0.2,1,0.2,1.5,0.1c0.4,0.1,0.7,0.1,0.8-0.2c0.1-0.2,0.4-0.3,1-0.3c0.7,0.5,1.3,0.9,2,1.4
	c0.7,0.4,1.3,0.9,2,1.4c0.5-0.1,1,0,1.5,0.1c0.4,0.1,0.8,0.3,1.2,0.4c0.4,0.2,0.7,0.4,1.1,0.5c0.4,0.2,0.8,0.3,1.3,0.3
	c0.3,0.2,0.5,0.4,0.7,0.6c0.4,0,0.7,0,1.1,0.1c0.3,0.1,0.6,0,0.9-0.1c0,0.3,0.2,0.3,0.5,0.3c0.3-0.1,0.5,0,0.6,0.2
	c0.2,0.1,0.4,0.2,0.6,0.2h0.9c0.2,0.2,0.4,0.3,0.5,0.5c0.2,0.2,0.3,0.4,0.4,0.7c0.5-0.2,1-0.1,1.5,0.2c0.4,0.3,0.8,0.4,1.3,0.4
	c0,0.4,0.3,0.8,0.8,0.9c0.4,0.1,0.8,0.3,1,0.7c0.4,0.1,0.8,0.3,1.1,0.6c0.3,0.3,0.7,0.5,1.1,0.6c0.1,0.3,0.4,0.5,0.6,0.6
	c0.2,0.2,0.3,0.4,0.2,0.6c0,0.3,0.1,0.4,0.5,0.3c0,0.2,0.2,0.3,0.5,0.3c0.3-0.1,0.5,0,0.6,0.2c0.2,0.1,0.4,0.2,0.6,0.3
	c0.2,0.1,0.5,0.1,0.7,0.1c0.2,0.2,0.4,0.4,0.5,0.6c0.2,0.2,0.5,0.3,0.8,0.3c0,0.4,0.2,0.7,0.5,0.9c0.3,0.1,0.6,0.4,0.6,0.7h1.4
	c0,0.3,0.2,0.5,0.5,0.6c0.3,0.1,0.4,0.3,0.3,0.7c0.6,0.1,1.1,0.6,1.2,1.2c0.4-0.1,0.7-0.1,0.7,0.1c0.1,0.2,0.2,0.4,0.4,0.5
	c0.2,0.1,0.4,0.3,0.5,0.6c0.1,0.2,0.2,0.4,0.4,0.5c0.4-0.1,0.8,0,1.1,0.3c0,0.4,0.2,0.5,0.5,0.5c0.4,0.5,0.9,1,1.3,1.5
	c0.4,0.5,0.8,1.1,1.2,1.6c-0.3,0.5-0.4,1-0.4,1.6c0,0.6,0.1,1.2,0.2,1.8c0.3,0.2,0.6,0.5,0.7,0.8c0.1,0.4,0.3,0.7,0.6,1
	c0.1,0.6,0.2,1.2,0.3,1.8c0.1,0.7,0.1,1.4,0,2.1c-0.1,0.4-0.3,0.8-0.5,1.2c-0.2,0.4-0.3,0.7-0.4,1.1v1.8c-0.1,0.4-0.3,0.8-0.5,1.2
	c-0.2,0.4-0.4,0.8-0.5,1.3c-0.1,0.4-0.1,0.9,0,1.3c0.1,0.5,0.1,0.9,0,1.4c-0.5,0.5-0.9,1-1.2,1.6c-0.3,0.7-0.5,1.4-0.6,2.1
	c-0.5,0-0.9,0.1-1.3,0.4c-0.3,0.3-0.7,0.5-1.1,0.5h-3.1c-0.3,0-0.5-0.2-0.8-0.3c-0.2-0.2-0.5-0.3-0.8-0.3c-0.4-0.1-0.8-0.1-1.1,0
	c-0.3,0-0.6,0-0.9-0.2c0-0.9,0-1.6,0.1-2.2c0-0.7-0.1-1.4-0.3-2c0.1-0.4,0.3-0.8,0.5-1.2c0.2-0.3,0.3-0.7,0.4-1.1
	c0.1-0.5,0.1-1.1,0-1.6c-0.1-0.6-0.1-1.3,0-1.9c-0.2-0.4-0.5-0.7-0.9-1c-0.3-0.3-0.6-0.6-0.7-1c0.1-0.3,0.1-0.6,0.2-0.8
	c0.1-0.3,0.1-0.7,0-1l-0.6-0.6c-0.1-0.1-0.2-0.3-0.2-0.5c0-0.2-0.1-0.3-0.2-0.4c-0.2-0.1-0.4-0.2-0.6-0.2c-0.3,0-0.4-0.2-0.3-0.4
	c-0.3,0.1-0.6,0-0.8-0.1c-0.2-0.2-0.5-0.2-0.8-0.1c-0.2-0.4-0.5-0.8-0.7-1.2c-0.2-0.4-0.5-0.7-0.8-1.1c0.1-0.5-0.2-1.1-0.7-1.3
	c0-0.2-0.1-0.3-0.1-0.3c-0.1,0-0.2-0.1-0.3-0.1c-0.1-0.1-0.2-0.2-0.3-0.3c-0.1-0.1-0.2-0.1-0.4-0.1c-0.3,0.1-0.5,0.2-0.7,0.5
	c-0.2,0.3-0.5,0.3-1.1,0.1c-0.3,0-0.6-0.3-0.6-0.6c0-0.3-0.1-0.6-0.2-0.9c-0.5-0.1-0.9-0.3-1.2-0.7c-0.3-0.3-0.7-0.6-1.1-0.7
	c-0.6-0.7-1.4-1.2-2.3-1.6c0-0.2,0-0.5-0.1-0.7c-0.1-0.2-0.2-0.4-0.3-0.6c-0.6-0.2-1-0.5-1.3-1.1c-0.3-0.5-0.8-0.9-1.4-0.9
	c0.1-0.3,0-0.4-0.1-0.4c-0.1,0-0.3-0.1-0.4-0.2c-0.2,0-0.3-0.1-0.3-0.4c0-0.3-0.1-0.4-0.3-0.4c-0.3-0.2-0.5-0.3-0.7-0.5
	c-0.3-0.2-0.6-0.3-1-0.3c-1.9,0.9-4.1,1.2-6.2,0.8c-0.3,0.1-0.7,0.3-0.9,0.5c-0.2,0.2-0.6,0.4-0.9,0.4c-0.3,0.1-0.6,0-0.8-0.1
	c-0.2-0.2-0.4-0.2-0.8,0c-0.1,0.2-0.3,0.3-0.6,0.2c-0.3,0-0.5,0.2-0.5,0.5c-0.1,0.2-0.3,0.3-0.6,0.3c0,0.1-0.2,0.2-0.6,0.2
	c0,0.3-0.2,0.6-0.5,0.6c-0.3-0.1-0.6,0-0.9,0.1c-0.2,0.1-0.4,0.3-0.6,0.4c-0.2,0.2-0.4,0.3-0.6,0.4c-0.3,0.1-0.6,0.1-0.9,0
	c0,0.3-0.1,0.5-0.2,0.6c-0.1,0.1-0.3,0.2-0.4,0.3h-1.2c-0.5,0.5-1.1,1-1.6,1.6c-0.6,0.6-1.4,0.9-2.3,0.9c-0.1,0.2-0.2,0.4-0.3,0.6
	c-0.1,0.2-0.2,0.3-0.5,0.3c0.1,0.4,0,0.6-0.3,0.6c-0.2,0-0.4,0.1-0.6,0.3c-0.2,0.2-0.2,0.5-0.1,0.7c0.1,0.3,0,0.5-0.4,0.7
	c-0.4,0.1-0.6,0-0.6-0.3c0-0.2-0.2-0.3-0.5-0.2c-0.7,0.5-1.7,0.7-2.6,0.6c-0.3,0.5-0.7,0.9-1.3,1c-0.5,0.2-1,0.5-1.4,1
	c-0.1,0.8-0.3,1.6-0.6,2.4c-0.1,0.6-0.4,1.2-0.8,1.7V84c0,0.1-0.1,0.1-0.2,0.2c-0.1,0.1-0.2,0.2-0.3,0.2c0,0.1,0,0.2,0,0.2
	c0,0.1,0,0.2,0,0.2c-0.1,0.4-0.3,0.8-0.6,1.1c-0.3,0.3-0.5,0.7-0.5,1.2c-0.5,0.1-0.9,0.4-1.1,0.8c-0.3,0.4-0.7,0.7-1.1,0.8
	c0.2,0.6,0.1,1-0.1,1.1c-0.3,0.2-0.5,0.5-0.5,0.9c0,0.3-0.1,0.5-0.2,0.5v2c-0.2,0.3-0.5,0.6-0.8,0.7c-0.4,0.2-0.7,0.4-1,0.6
	c-0.1,0.5-0.3,1-0.6,1.4v7.1c0,0.3,0.1,0.5,0.4,0.5c0.2,0.1,0.3,0.3,0.3,0.6c-0.1,0.8,0,1.6,0.1,2.4c0.2,0.8,0.2,1.7,0.1,2.5
	c0.1,0.1,0.2,0.3,0.3,0.4c0.1,0.1,0.2,0.3,0.3,0.4c0.2,0.2,0.3,0.4,0.2,0.6c-0.1,0.3,0.1,0.4,0.5,0.3c0.1,0.4,0.3,0.8,0.5,1.1
	c0.2,0.3,0.4,0.5,0.6,0.9v0.9c0.4,0.3,0.7,0.7,0.8,1.2c0.1,0.5,0.2,1,0.4,1.5c0,0.2,0.2,0.4,0.4,0.3c0,0,0,0,0,0
	c0.2,0,0.4,0.1,0.5,0.3c0,0,0,0,0,0c0,0.3,0.1,0.5,0.3,0.7c0.2,0.2,0.3,0.4,0.4,0.7c0.4-0.1,0.7-0.1,0.9,0.1
	c0.2,0.2,0.5,0.2,0.7,0.1c0.2,0.4,0.4,0.7,0.7,1c0.3,0.2,0.6,0.5,0.8,0.8v0.9c0.6,0.2,1,0.7,1.2,1.4c0.3-0.1,0.6,0.1,0.6,0.4
	c0,0,0,0,0,0c0.3,0.1,0.6,0.3,0.8,0.4c0.2,0.1,0.5,0.2,0.8,0.1c0.3,0.5,0.8,0.9,1.4,0.9c0.1,0.1,0.2,0.1,0.3,0.1
	c0.1,0,0.1,0.1,0.1,0.2c0.5-0.2,1-0.3,1.5-0.2c0.5,0.1,1.1,0.2,1.6,0.2c0.4,0.4,0.8,0.7,1.2,0.9c0.5,0.2,0.9,0.5,1.2,0.6
	c0.5,0,1-0.1,1.5-0.3c0.4-0.2,0.9-0.3,1.4-0.4c0.6,0.1,1.3,0.2,2,0.1c0.6-0.1,1.3,0.1,1.9,0.4c0.4-0.3,0.8-0.5,1.3-0.5
	c0.6-0.1,1.2-0.1,1.9-0.1c0-0.2,0.2-0.3,0.6-0.3c0.4-0.3,0.9-0.5,1.4-0.6c0.5,0.1,0.8,0.1,1-0.1c0.2-0.2,0.5-0.2,1-0.1
	c0.2-0.4,0.5-0.7,0.9-0.9c0.3,0,0.5-0.3,0.4-0.5c0,0,0,0,0,0c0-0.3,0.2-0.4,0.6-0.4c-0.1-0.4-0.1-0.6,0.1-0.8
	c0.2-0.2,0.2-0.4,0.1-0.8c0.3,0,0.5-0.1,0.6-0.4c0.1-0.2,0.2-0.4,0.3-0.5v-2.9c0.1-0.4,0.4-0.7,0.8-0.9c0.4-0.2,0.7-0.5,0.8-1
	c0.1-0.6,0.2-1.2,0.2-1.8c0-0.6,0.2-1.2,0.4-1.7c-0.1-0.5-0.2-1-0.4-1.5c-0.2-0.5-0.2-1.1-0.1-1.6c-0.1-0.2-0.2-0.4-0.4-0.6
	c-0.1-0.2-0.3-0.4-0.4-0.6c-0.1-0.1-0.1-0.1-0.2-0.1c-0.1-0.1-0.1-0.1-0.2-0.2c-0.1-0.1-0.2-0.3-0.1-0.4c0-0.1,0-0.3-0.1-0.3
	c0.3-0.2,0.4-0.6,0.3-1c-0.1-0.4-0.1-0.8,0-1.2c-0.4-0.4-0.7-0.8-0.7-1.4c-0.4-0.3-0.8-0.6-1.2-0.8c-0.4-0.3-0.7-0.7-0.8-1.2
	c-0.3,0-0.6-0.1-0.8-0.3c-0.2-0.2-0.4-0.3-0.6-0.5c-0.5,0.2-1,0.1-1.4-0.1c-0.3-0.2-0.7-0.4-1-0.5c-0.2,0.2-0.5,0.4-0.7,0.6
	c-0.3,0.2-0.7,0.4-1,0.3c-0.3-0.2-0.7-0.3-1-0.4c-0.4-0.1-0.7-0.3-1-0.5c-0.9,0.1-1.7,0.3-2.5,0.7c-0.7,0.3-1.3,0.8-1.8,1.3
	c-0.4,0.1-0.8,0.3-1.1,0.5c-0.3,0.2-0.6,0.3-0.9,0.5c-0.2,0.2-0.3,0.5-0.2,0.8c0.1,0.3,0.1,0.5,0,0.8c0,0.1-0.1,0.2-0.3,0.3
	c-0.1,0-0.3,0.1-0.4,0.2c-0.1,0.1-0.2,0.2-0.2,0.4c0,0.1-0.1,0.2-0.2,0.3c-0.6,0.1-1.3,0.3-1.9,0.6c-0.6,0.2-1.1,0.5-1.7,0.8
	c-0.3-0.3-0.8-0.5-1.2-0.6c-0.5-0.1-0.9-0.6-0.9-1.2c-0.3-0.1-0.7-0.2-1-0.4c-0.3-0.2-0.5-0.4-0.8-0.7c-0.1-0.1-0.2-0.3-0.2-0.5
	c0-0.2-0.1-0.3-0.2-0.5c-0.2-0.1-0.4-0.2-0.7-0.1c-0.3,0-0.4-0.1-0.2-0.5c0-0.1,0-0.2-0.1-0.2c-0.1-0.1-0.1-0.1-0.1-0.2
	c-0.1-0.3,0-0.5,0.1-0.5c0.1-0.1,0.2-0.3,0-0.6c0.5-0.4,0.9-0.8,1.3-1.3c0.4-0.5,0.8-0.9,1.2-1.4c0-0.6,0.1-1.2,0.5-1.7
	c0.3-0.5,0.5-1.1,0.4-1.7c0.4,0.1,0.6,0.1,0.8-0.1c0.1-0.2,0.4-0.2,0.8-0.1c0.4-0.3,0.8-0.7,1.1-1.1c0.4-0.4,0.8-0.7,1.3-0.9
	c0.1-0.3,0.2-0.6,0.2-0.9c0-0.3,0.2-0.5,0.5-0.5c0.3-0.1,0.5-0.3,0.7-0.5c0.3-0.2,0.7-0.3,1-0.1c0.4-0.7,1.1-1.1,1.8-1.2
	c-0.2-0.6,0-0.8,0.6-0.6c0-0.3,0.2-0.7,0.5-0.9c0.5-0.2,0.9-0.4,1.3-0.7c0.4-0.3,0.8-0.6,1.1-0.9h1.2c0.2-0.2,0.5-0.4,0.7-0.6
	c0.3-0.2,0.7-0.4,1.1-0.3c0-0.3,0.2-0.5,0.4-0.6c0.7-0.1,1.4-0.3,2.1-0.5c0.7-0.2,1.5-0.4,2.2-0.5c0.3-0.2,0.6-0.5,0.8-0.8
	c0.3-0.3,0.8-0.4,1.2-0.3c0.1-0.3,0.1-0.6,0.2-0.9c0.1-0.3,0.1-0.6,0-1c0.5-0.2,0.9-0.5,1.4-0.9c0.5-0.4,1-0.6,1.6-0.7
	c-0.1-0.4,0-0.6,0.3-0.6c0.2-0.1,0.3-0.3,0.2-0.7c-0.1-0.4-0.1-0.7,0.2-0.8c0.3-0.1,0.5-0.2,0.7-0.3c0.5-0.1,1,0.1,1.2,0.5
	c0.2,0.4,0.6,0.6,1.1,0.6c0.1,0.4,0.4,0.8,0.8,0.9c0.4,0.1,0.7,0.3,1,0.6c0.8,1.1,1.5,2.4,1.8,3.8c-0.2,0.8-0.3,1.5-0.4,2.3
	c0,0.7,0,1.5,0.1,2.4c0,0.3-0.1,0.7-0.3,0.9c-0.2,0.3-0.2,0.7-0.1,1.1c0.1,0.5,0.3,1,0.6,1.4c0.3,0.4,0.5,0.8,0.6,1.3
	c0.1,0.7,0.2,1.3,0.3,2c0.1,0.8,0.1,1.5,0,2.3c0.1,0.3,0.2,0.5,0.4,0.8c0.2,0.2,0.2,0.5,0.2,0.8c0,0.3-0.1,0.7-0.3,0.9
	c-0.2,0.2-0.4,0.6-0.3,0.9c0.3,0.6,0.6,1.3,0.8,1.9c0.2,0.7,0.5,1.3,0.8,1.9c-0.1,0.4-0.1,0.9,0,1.3c0.2,0.4,0.2,0.9,0.1,1.3
	c0,0.3-0.2,0.7-0.4,0.9c-0.2,0.2-0.4,0.6-0.4,0.9c-0.1,1.4-0.2,2.7-0.2,3.9c0,1.2-0.3,2.5-0.7,3.7c0.1,0.7,0.2,1.3,0.3,2
	c0,0.6,0.2,1.2,0.4,1.8c-0.2,1.1-0.3,2.3,0,3.4c0.2,1.1,0.4,2.1,0.8,3.1c0.1,0.5,0,0.8-0.3,0.9c-0.2,0.1-0.3,0.3-0.2,0.8
	c-0.1,0.5-0.1,1.1,0,1.6c0,0.5,0,1-0.2,1.5c0.1,0.3,0.3,0.6,0.5,0.9c0.2,0.3,0.4,0.6,0.5,1c0,0.3-0.1,0.7-0.5,0.8
	c-0.3,0.1-0.5,0.4-0.5,0.9v2.7c-0.3,0.3-0.6,0.6-1,0.9c-0.3,0.3-0.8,0.5-1.2,0.5c-0.2-0.1-0.4-0.2-0.7-0.2c-0.3,0-0.5-0.2-0.7-0.3
	c-0.3-0.2-0.5-0.5-0.6-0.8c-0.6,0.1-1.2,0-1.8-0.2c-0.5-0.2-0.9-0.4-1.3-0.6c-0.4-0.2-0.9-0.4-1.3-0.6c-0.6-0.2-1.1-0.3-1.7-0.2
	c-0.2-0.1-0.4,0-0.4,0.3s-0.1,0.4-0.3,0.4c-0.3-0.1-0.5-0.1-0.6,0.1c-0.1,0.2-0.3,0.2-0.5,0.1c-0.7-0.3-1.4-0.6-2.1-0.9
	c-0.7-0.3-1.4-0.6-2.1-0.9c-0.6,0.1-1.2,0.2-1.8,0.4c-0.6,0.1-1.2,0.2-1.9,0.3c-0.8-0.2-1.6-0.4-2.5-0.5c-0.8-0.2-1.6,0-2.3,0.5
	c-0.2-0.1-0.4-0.2-0.6-0.4c-0.2-0.2-0.5-0.3-0.8-0.2c-0.7,0.1-1.1,0-1.3-0.2c-0.2-0.3-0.6-0.3-1.1-0.2c-0.6,0.1-1.1,0.3-1.5,0.7
	c-0.5,0.4-1,0.6-1.6,0.7c-0.7-0.3-1.3-0.6-2-0.8c-0.6-0.2-1.3-0.5-1.9-0.8c-0.7,0.1-1.4,0-2.1-0.1c-0.6-0.1-1.2-0.2-1.8-0.4
	c-0.6,0.3-1.2,0.4-1.9,0.3c-0.7-0.1-1.4-0.1-2.1-0.1c-0.5-0.1-0.9-0.3-1.3-0.5c-0.5-0.3-1.1-0.3-1.6-0.2c-0.1-0.2-0.2-0.3-0.5-0.3
	c-0.3,0.1-0.4-0.1-0.4-0.4c-0.2,0-0.5,0-0.6-0.2c-0.1-0.1-0.4-0.1-0.7,0c-0.4-0.1-0.6,0.2-0.6,0.6c-0.2,0.1-0.4,0.2-0.6,0.2
	c-0.2,0-0.4,0.1-0.5,0.2h-2.1c-0.4,0.3-0.9,0.5-1.5,0.6c-0.6,0.1-1.2,0.2-1.8,0.3c-0.3,0.2-0.6,0.4-0.8,0.7
	c-0.3,0.3-0.8,0.4-1.2,0.2c-0.2-0.2-0.4-0.5-0.3-0.8c0.1-0.3,0-0.6-0.2-0.8c-0.2,0.1-0.5,0-0.6-0.1c-0.2-0.1-0.4-0.3-0.6-0.4
	c-0.4,0.1-0.6,0-0.5-0.3c0.1-0.3-0.1-0.4-0.5-0.4c-1.3-0.5-2.6-0.8-4-1.1c0-0.3-0.2-0.5-0.4-0.6c-0.2-0.1-0.4-0.2-0.7-0.3
	c0.1-0.6-0.1-0.9-0.5-1.1c-0.4-0.2-0.6-0.6-0.5-1c-0.4-0.2-0.9-0.4-1.3-0.7c-0.3-0.2-0.6-0.4-0.8-0.7c-0.1-0.1-0.3-0.3-0.4-0.4
	c-0.1-0.2-0.2-0.4-0.3-0.5c0-0.1,0.1-0.2,0.1-0.3c0.1-0.1,0.1-0.3,0.2-0.4c0.2-0.4,0.3-0.8,0.5-1.3c0.2-0.4,0.4-0.8,0.6-1.3
	c0.2-0.3,0.3-0.7,0.5-1.1c0.2-0.5,0.4-0.9,0.7-1.4l0.2-0.3c0-0.1,0.1-0.1,0.1-0.2l0.2-0.3l0,0c0.3-0.6,0.5-1.3,0.6-2
	c0-0.2,0.1-0.5,0.2-0.7c0.2-0.4,0.2-0.8,0.2-1.2c-0.1-0.6-0.2-1.2-0.4-1.8c0-0.1,0-0.2,0-0.4c0-0.6,0-1.2-0.4-1.3
	c-0.4-0.1-0.6,0.3-0.6,0.5c0,0,0,0.1,0,0.1l-0.2-0.1v0.3c0,0,0,0,0,0.1c-0.1,0.1-0.1,0.2-0.1,0.4c0,0,0,0.1,0,0.1
	c0,0.2-0.1,0.4-0.1,0.6c0,0.1-0.1,0.2-0.1,0.3c-0.1,0.3-0.1,0.6-0.1,0.9c0,0.3-0.1,0.5-0.2,0.8c-0.1,0.1-0.1,0.3,0,0.5l0,0
	c-0.1,0-0.2,0.1-0.3,0.2c-0.1,0.1-0.1,0.2-0.1,0.4c0,0.1,0,0.2,0,0.3c0,0.1,0,0.2,0,0.2c0,0.3-0.1,0.6-0.2,0.8l-0.1,0.2
	c-0.1,0.3-0.1,0.5-0.3,0.8l-0.1,0.2c-0.1,0.2-0.2,0.5-0.3,0.8c0,0,0,0.1,0,0.1l0-0.3l-0.4,1.9c-0.1,0.4-0.2,0.8-0.4,1.2
	c-0.1,0.2-0.1,0.4-0.2,0.6c-0.1,0.2-0.1,0.4-0.2,0.6c0,0.1,0,0.1-0.1,0.2c0-0.2,0-0.4,0-0.7c-0.2-0.2-0.5-0.3-0.8-0.2
	c-0.1,0-0.2,0.1-0.2,0.1c-0.2,0-0.3-0.1-0.4-0.2c0-0.3,0-0.6,0-0.8c0.2-0.7,0.2-1.5,0.2-2.2c-0.1-0.7-0.1-1.4-0.2-2.2
	c0-0.2,0-0.4,0-0.7v-0.4c-0.1-0.3,0-0.5,0.3-0.6c0.1,0,0.1-0.1,0.2-0.1c0.1-0.1,0.1-0.3,0-0.6c-0.1-0.6-0.2-1.2-0.2-1.7v-1.7
	c0.2-0.3,0.3-0.6,0.4-0.9l0,0c0,0,0,0,0.1,0c0.2-0.1,0.3-0.3,0.2-0.8c0-0.1,0-0.2,0-0.3c0,0,0,0,0-0.1c0.1-0.2,0.1-0.5,0.2-0.8
	l0.1-0.3c0-0.1,0.1-0.2,0.1-0.3c0.1-0.3,0.2-0.5,0.2-0.8l0-0.2c0-0.3,0.1-0.5,0.1-0.7c0.2-0.6,0.4-1.3,0.5-2c0.1-0.5,0.2-1,0.3-1.5
	c0-0.1,0-0.1,0-0.2c0.1-0.3,0.2-0.5,0.3-0.7c0.1-0.3,0.3-0.5,0.6-0.5c-0.1-0.4,0-0.9,0.1-1.3c0.1-0.4,0.3-0.7,0.4-1
	c0.1-0.3,0.2-0.5,0.3-0.7c0-0.1,0.1-0.1,0.1-0.2c0.2-0.3,0.2-0.7,0.2-1.1c-0.1-0.5-0.3-0.9-0.6-1.4c-0.1-0.1-0.1-0.2-0.2-0.3
	c0-0.2,0-0.3,0-0.5c0-0.1,0-0.2-0.1-0.3c-0.1-0.4-0.3-0.7-0.5-0.7c-0.1,0.1-0.2,0.1-0.3,0c-0.4-0.1-0.9,0.6-0.9,0.6
	c-0.3,0.4-0.4,0.9-0.5,1.4c0,0.1,0,0.2,0,0.3c-0.3,0.2-0.5,0.5-0.8,0.7c-0.3,0.3-0.7,0.7-1,1c0,0,0,0,0,0c0,0,0,0,0,0
	c-0.3,0.3-0.6,0.7-0.9,1v2.3c0,0,0,0.1,0,0.1c-0.1,0.3-0.1,0.5-0.2,0.8c0,0,0,0.1-0.1,0.1c0-0.2,0-0.4-0.1-0.5
	c-0.1-0.6-0.1-1.3-0.1-1.9c0-0.3,0-0.6,0-0.9c0-0.3,0-0.6-0.1-0.9l0-0.5c0-0.1,0-0.2,0-0.2c0-0.2-0.1-0.4,0-0.6l0.1-0.2
	c0.1-0.1,0.2-0.3,0.2-0.4c0.1-0.3,0.3-0.7,0.4-1l0-0.1c0.1-0.2,0.1-0.4,0.2-0.5l0.1,0v-0.2c0.2-0.6,0.3-1.2,0.5-1.8
	c0.3-0.9,0.5-1.8,0.7-2.7c0.3-1.7,0.7-3.3,1.1-4.8c0.1,0,0.2,0,0.3,0c0.2-0.1,0.3-0.2,0.4-0.4c0-0.1,0.1-0.1,0.2-0.2
	c0.1,0,0.2-0.1,0.3-0.1c0.1-0.1,0.2-0.2,0.3-0.3c0.1-0.1,0.1-0.1,0.2-0.2c0.2-0.2,0.3-0.3,0.4-0.5l0.2-0.3c0.2-0.4,0.4-0.8,0.7-1.2
	c0.2-0.2,0.3-0.4,0.4-0.6l0.1-0.2c0.1-0.1,0.2-0.3,0.3-0.4l0.1-0.1c0.2-0.2,0.4-0.5,0.6-0.7c0.1-0.2,0.3-0.4,0.5-0.6
	c0.2-0.1,0.3-0.2,0.5-0.3c0.1-0.1,0.2-0.2,0.3-0.3c0.1-0.1,0.1-0.1,0.2-0.2c0,0,0.1,0,0.1,0c0.1,0,0.2,0,0.3-0.1
	c0.1,0,0.2-0.1,0.2-0.2c0,0,0.1-0.1,0.1-0.1l0.2-0.2c0.2-0.1,0.4-0.3,0.5-0.4c0.1-0.1,0.2-0.2,0.3-0.3c0.1-0.1,0.2-0.2,0.3-0.3
	c0.1,0,0.1-0.1,0.2-0.1c0.2-0.1,0.3-0.2,0.4-0.3c0.1-0.1,0.2-0.2,0.2-0.3c0,0,0-0.1,0-0.1c0,0,0-0.1,0-0.1c0,0,0,0,0.1,0
	c0.1,0,0.2,0,0.2-0.1c0.1-0.1,0.2-0.2,0.3-0.4c0-0.1,0.1-0.2,0.1-0.3c0.2-0.3,0.4-0.9,0.2-1.2c0.2-0.3,0.3-0.5,0.2-0.7c0,0,0,0,0,0
	c0-0.1,0.1-0.1,0.1-0.2l0.1-0.1c0.1,0,0.3-0.1,0.4-0.2c0.1-0.1,0.1-0.2,0.1-0.3l0,0c0.1,0.2,0.3,0.3,0.5,0.4c0.3,0.1,0.6,0.2,1,0
	c0.1,0,0.1-0.1,0.2-0.1c0.1,0,0.1-0.1,0.2-0.1c0.1,0,0.2-0.1,0.3-0.2c0.1-0.1,0.2-0.3,0.2-0.4c0,0,0-0.1,0-0.1
	c0.1-0.1,0.2-0.3,0.1-0.4c-0.1-0.1-0.1-0.2-0.2-0.3c-0.2-0.2-0.5-0.3-0.7-0.2c0.1-0.1,0.1-0.3,0-0.5c-0.1-0.2-0.3-0.4-0.6-0.4
	c-0.4,0-0.7,0.2-0.9,0.5l0,0l0,0c0,0.1,0,0.1-0.1,0.2c0,0,0,0-0.1,0c-0.4,0-0.8,0.2-1,0.5c0,0.1,0,0.1-0.1,0.2c-0.1,0-0.1,0-0.2,0.1
	c-0.2,0.1-0.3,0.3-0.3,0.5c0,0.1,0,0.1-0.1,0.2c-0.1,0.1-0.1,0.1-0.2,0.2c-0.1,0.1-0.2,0.1-0.2,0.2c-0.1,0.1-0.2,0.3-0.3,0.5
	l-0.1,0.1c-0.1,0.3-0.3,0.6-0.6,0.9c0,0-0.1,0.1-0.1,0.1l-0.1,0c-0.1,0-0.2,0.1-0.2,0.2c0,0-0.1,0.1-0.1,0.1
	c-0.2,0.2-0.4,0.4-0.6,0.6c-0.1,0.1-0.1,0.2-0.2,0.3c-0.1,0.1-0.1,0.1-0.2,0.2c-0.1,0.1-0.2,0.2-0.3,0.3c-0.1,0.1-0.1,0.1-0.2,0.2
	c-0.1,0.1-0.2,0.1-0.3,0.2c0,0-0.1,0.1-0.1,0.1c0-0.1,0-0.1,0-0.2c0-0.2,0.1-0.5,0.2-0.7c0-0.1,0.1-0.2,0.1-0.2
	c0.1-0.2,0.2-0.4,0.3-0.6c0.1-0.1,0.2-0.2,0.2-0.4l0.2-0.3l-0.1,0c0.1,0,0.1-0.1,0.1-0.2c0,0,0-0.1,0.1-0.1l0-0.1
	c0-0.1,0-0.1,0.1-0.2c0.1-0.1,0.1-0.2,0.1-0.3c0-0.1,0-0.2,0.1-0.3c0-0.2,0.1-0.3,0.2-0.5c0.1-0.1,0.1-0.2,0.2-0.2
	c0.2-0.2,0.3-0.4,0.3-0.7c0-0.2,0.1-0.4,0.1-0.5c0-0.1,0-0.3,0.1-0.4c0.1-0.4,0.1-0.7,0.2-1.1c0-0.3,0.1-0.7-0.2-0.9
	c-0.1-0.1-0.2-0.1-0.4-0.1c-0.2,0-0.3,0.1-0.4,0.3c0,0-0.1,0-0.1,0c-0.3,0.1-0.6,0.2-0.7,0.5c-0.1,0.2-0.2,0.4-0.2,0.6
	c0,0.1,0,0.1,0,0.2c0,0.1,0,0.1,0,0.1c0,0,0,0-0.1,0.1c-0.1,0.1-0.2,0.1-0.2,0.2c-0.1,0.1-0.1,0.3-0.1,0.4l0,0.1
	c0,0.2-0.1,0.4-0.1,0.6c0,0,0,0.1-0.1,0.1c-0.1,0.1-0.1,0.2-0.2,0.3c0,0.1-0.1,0.2-0.1,0.3l0,0.3c0,0.2-0.1,0.4-0.1,0.6l0,0.2
	c0,0.3-0.1,0.6-0.3,0.8c-0.1,0.1-0.1,0.3-0.2,0.5c0,0,0,0.1,0,0.1c0,0.1-0.1,0.2-0.1,0.3c-0.1,0.1-0.1,0.3-0.1,0.4
	c0,0.1,0,0.1-0.1,0.2c-0.2,0.5-0.4,0.9-0.6,1.3c-0.1,0.2-0.2,0.3-0.2,0.5c-0.1,0.1-0.1,0.2-0.2,0.4c-0.1,0.3-0.3,0.5-0.4,0.8
	c-0.1,0.1-0.2,0.2-0.2,0.3c-0.1,0.1-0.2,0.3-0.3,0.4c-0.1,0.1-0.1,0.3-0.2,0.4c0,0.1-0.1,0.2-0.2,0.4c-0.1,0.3-0.3,0.5-0.5,0.8
	c0,0.1-0.1,0.1-0.1,0.2c0.1-0.3,0.1-0.5,0.2-0.8l0.2-0.9c0.2-0.6,0.4-1.3,0.7-1.9l0.2-0.5c0.1-0.2,0-0.5-0.2-0.6c0,0,0,0-0.1,0
	C51,77.7,51,77.7,51,77.5c0,0,0-0.1,0-0.1c0.1,0,0.1,0,0.2,0c0.1,0,0.2,0.1,0.3,0.1c0.2,0.1,0.4-0.1,0.4-0.2c0,0,0,0,0-0.1l0-0.1
	c0.2-0.6,0.3-1.1,0.5-1.6c0.4-1.1,0.8-2.4,1.2-3.6c0.7-2,1.5-4.1,2.6-6.8l0.2-0.6c0.4-0.9,0.7-1.9,1.1-2.8c0.3-0.6,0.5-1.1,0.7-1.7
	c0.2-0.4,0.5-0.8,0.8-1.1c0.2-0.2,0.3-0.3,0.5-0.4c0.3-0.2,0.5-0.4,0.7-0.6c0.1-0.1,0.2-0.3,0.3-0.5c0-0.1,0.1-0.2,0.1-0.2l0.2-0.3
	c0.1-0.1,0.2-0.2,0.2-0.3c0.4-0.6,0.8-1.1,1.3-1.6c0.3-0.4,0.7-0.8,1-1.2l0,0c0,0,0.1-0.1,0.1-0.1c0,0,0.1-0.1,0.1-0.1l0.1-0.1h0
	L64,53c0.3-0.6,0.7-1.1,1.1-1.6c0.3-0.3,0.5-0.6,0.7-1l0.1-0.1c0.1-0.2,0.2-0.3,0.3-0.5c0,0,0-0.1,0-0.1c0-0.1,0.1-0.2,0.1-0.3
	c0-0.1,0-0.1,0-0.2l0,0l0.4-0.6c0.2-0.3,0.4-0.6,0.5-1l0.3-1c0.1-0.4,0.2-0.9,0.3-1.3c0-0.6-0.1-0.8-0.2-0.8c0,0,0,0,0,0
	c0.2-0.1,0.3-0.2,0.3-0.4c0.1,0,0.1,0,0.2,0l0.2,0c0.1,0,0.2-0.1,0.3-0.1c0.1-0.1,0.2-0.1,0.2-0.2l0.1-0.1c0,0,0,0,0.1,0
	c0.1,0,0.2-0.1,0.2-0.1c0.2-0.2,0.2-0.4,0.2-0.6c0,0,0,0,0-0.1c0.1-0.1,0.2-0.3,0.1-0.5c-0.1-0.1-0.2-0.2-0.3-0.2c0,0-0.1,0-0.1-0.1
	c0.1-0.1,0.1-0.2,0.1-0.3c0-0.2-0.1-0.4-0.3-0.5c-0.2-0.1-0.5-0.1-0.7,0c-0.2,0.1-0.3,0.2-0.4,0.4c0,0-0.1,0.1-0.1,0.1l-0.1,0.1
	c-0.1,0.1-0.1,0.1-0.2,0.2c0,0.1-0.1,0.2-0.1,0.3c0,0,0,0.1-0.1,0.1c0,0,0,0.1-0.1,0.1c-0.1,0-0.1,0-0.2,0c-0.3,0.1-0.5,0.3-0.6,0.6
	c0,0.1,0,0.2,0,0.3c0,0,0,0.1,0,0.1c-0.1,0-0.1,0.1-0.2,0.2c-0.1,0.1-0.1,0.3-0.1,0.5l0,0.1c0,0.1-0.1,0.3-0.1,0.4L66,44.5
	c-0.1,0.1-0.2,0.3-0.2,0.4c0,0.2,0,0.2-0.1,0.3c-0.3,0.2-0.5,0.5-0.6,0.8c-0.1,0.1-0.1,0.2-0.1,0.4c0,0.1-0.1,0.3-0.2,0.4
	c-0.1,0.1-0.1,0.2-0.2,0.2c-0.2,0.2-0.3,0.3-0.4,0.6c-0.1,0.1-0.1,0.3-0.1,0.4c0,0.1-0.1,0.2-0.1,0.4l-0.1,0.3
	c-0.1,0.2-0.2,0.5-0.3,0.7c-0.2,0.3-0.3,0.6-0.4,0.9l-0.1,0.5c-0.1,0.5-0.3,0.9-0.4,1.4c-0.2,0.5-0.4,1.1-0.7,1.6
	c-0.1,0.1-0.2,0.2-0.3,0.4l-0.1,0.1c-0.1,0.2-0.3,0.4-0.4,0.6C61.1,54.8,61,54.9,61,55c-0.2,0.3-0.4,0.5-0.7,0.8
	c-0.2,0.2-0.4,0.4-0.5,0.6c-0.1,0.1-0.2,0.2-0.2,0.3c-0.1,0.1-0.2,0.2-0.3,0.3c0.1-0.4,0.2-0.8,0.3-1.1c0.1-0.4,0.2-0.7,0.2-1.1
	c0.1-0.6,0.3-1.1,0.6-1.6c0.1-0.4,0.3-0.7,0.4-1.1c0.2-0.8,0.4-1.6,0.5-2.5l0-0.4c0.1-0.5,0.1-1,0.2-1.6c0.1-0.4,0.1-0.8,0.2-1.2
	c0.4-0.1,0.7-0.7,0.8-0.9c0.1-0.2,0.2-0.3,0.3-0.5c0.2-0.3,0.3-0.6,0.4-0.9c0.2-0.5,0.3-1,0.5-1.5c0.1-0.1,0.1-0.3,0.2-0.4
	c0.2-0.4,0.3-0.9,0.4-1.3c0.1-0.3,0.2-0.6,0.3-0.8c0.1-0.3,0.2-0.5,0.3-0.8c0.1-0.5,0.3-1.1,0.4-1.7c0.1-0.4,0.1-0.8,0.2-1.2
	c0.1-0.7,0.2-1.5,0.5-2.2l0,0L66,34l0-0.1l0.1-0.2l0,0c0.1-0.5,0.2-0.9,0.2-1.4c0-0.1,0-0.3,0-0.4c0-0.1,0-0.3,0-0.4
	c0-0.1,0.1-0.3,0.1-0.4c0-0.1,0.1-0.2,0.1-0.3c0.1-0.4,0.1-0.8,0-1.2c0-0.1,0-0.2-0.1-0.3c-0.1-0.6-0.2-1.1-0.5-1.6L65,25.9l0.4,1.9
	c0,0.1,0,0.3-0.1,0.4c0,0,0,0-0.1,0l0,0l0,0c0,0,0-0.1,0-0.1c0-0.1,0-0.1,0-0.2c0.1-0.1,0.1-0.3,0-0.5c-0.2-0.2-0.4-0.2-0.8,0.2
	c-0.6,0.7-0.9,1.6-0.8,2.5c0,0.1,0,0.3,0.1,0.4c0.1,0.2,0.1,0.5,0.1,0.7c0,0.4,0,0.9,0.2,1.3l0.1,0.2c0,0,0,0,0,0.1
	c0,0.3,0.1,0.5,0.1,0.7c0,0.2,0,0.5,0,0.7c0,0.1,0,0.2,0,0.3c-0.1,0.2-0.1,0.3,0,0.5c0,0,0,0.1,0,0.1c0,0.1,0,0.2,0,0.4
	c0,0.1,0,0.3,0,0.4c0,0.4-0.1,0.8-0.2,1.2l0,0.2c-0.1,0.4-0.2,0.7-0.3,1.1l-0.2,0.6c0,0.2-0.1,0.4-0.2,0.5l-1.5,0.4
	c0-0.2-0.2-0.4-0.3-0.6c-0.1-0.1-0.3-0.1-0.4-0.1c-0.1,0-0.3,0.2-0.3,0.3c0,0,0,0,0,0.1l-0.1,0.1l0,0.1c0,0,0,0.1,0,0.1
	c-0.1,0-0.1,0.1-0.1,0.1c-0.1,0.2-0.2,0.4-0.3,0.6c0,0.1,0,0.2,0.1,0.3c0,0,0,0,0,0c-0.1,0.1-0.2,0.2-0.2,0.3c0,0.1,0,0.3,0.1,0.4
	c0,0,0,0.1,0.1,0.1c0,0,0,0.1-0.1,0.1c0,0.1,0,0.3,0.1,0.4c0.1,0.1,0.1,0.2,0.1,0.3c0,0,0,0.1,0,0.1c0,0.1,0,0.2,0,0.4l0.1,0.5
	l0.4-0.5c0.2-0.2,0.3-0.4,0.3-0.6c0,0.1,0.1,0.1,0.1,0.2c0.1,0.1,0.1,0.2,0.2,0.3l0,0l0.2,0l-0.1,0.1l0,0c0,0.1-0.1,0.1-0.2,0.2
	c-0.1,0-0.2,0.1-0.2,0.2l-0.1,0.1c-0.1,0.1-0.1,0.1-0.2,0.2l-0.1,0.1l0,0.2c0,0.1,0,0.1-0.1,0.2c0,0-0.1,0.1-0.1,0.1
	c-0.1,0.3-0.2,0.6-0.3,1c0,0.1,0,0.2-0.1,0.3c-0.1,0.5-0.2,0.9-0.3,1.4c0-0.1,0-0.3,0-0.5c0-0.8,0-1.5-0.1-2.4l0-0.5
	c-0.1-0.6-0.1-1.1-0.1-1.7c0-0.7-0.1-1.4-0.2-2.1c-0.1-0.3-0.1-0.6-0.2-0.9c-0.1-0.3-0.2-0.6-0.2-0.9c0-0.2,0-0.4,0-0.6
	c0-0.4-0.1-0.9-0.2-1.3c-0.1-0.3-0.2-0.7-0.3-1c-0.1-0.2-0.2-0.5-0.3-0.7c-0.2-0.7-0.5-1.3-0.8-1.9c-0.1-0.2-0.3-0.4-0.6-0.4
	c-0.1,0-0.2,0.1-0.3,0.2c0,0.1-0.1,0.1-0.1,0.2l0,0c-0.2,0.4-0.4,0.8-0.5,1.3c0,0-0.1,0-0.1,0l0,0c-0.1-0.2-0.3-0.3-0.6-0.2
	c0,0,0,0,0,0l-0.2,0.1l0,0c-0.1-0.1-0.2-0.2-0.4-0.2c-0.3,0-0.6,0.2-0.8,0.4c-0.1,0.3-0.1,0.6,0,0.9l0.3-0.1l-0.2,0.2
	c0,0.2,0.1,0.4,0.3,0.6c0.1,0.1,0.1,0.1,0.2,0.2c0.1,0,0.1,0.1,0.2,0.1c0.2,0.2,0.4,0.3,0.7,0.3c0.3,0,0.5,0,0.7-0.1
	c0,0.3,0.1,0.5,0.1,0.8c-0.1-0.1-0.2-0.1-0.2-0.2c-0.1-0.1-0.3-0.2-0.4-0.3c-0.2-0.1-0.5-0.2-0.7,0c-0.2,0.1-0.3,0.3-0.3,0.5
	c0,0.2,0.1,0.4,0.2,0.6c0.1,0.1,0.1,0.1,0.2,0.2c0,0,0.1,0.1,0.1,0.1c0,0.2,0,0.3,0.2,0.4c0.1,0.1,0.1,0.1,0.2,0.2
	c0.1,0,0.1,0.1,0.1,0.1c0,0.1,0.1,0.1,0.1,0.2c0,0.1,0,0.2,0.1,0.2c0.1,0.2,0.2,0.3,0.3,0.4l0.1,0.1c0.2,0.3,0.4,0.5,0.5,0.8
	c0.1,0.1,0.1,0.2,0.1,0.4c0,0.2,0,0.3,0.1,0.4c0,0.1,0.1,0.2,0,0.3c0,0.2,0.1,0.4,0.2,0.6c0.1,0.1,0.1,0.2,0.1,0.4
	c0,0.2,0.1,0.4,0.2,0.5c0,0,0.1,0.1,0.1,0.1c0.3,0.7,0.5,1.4,0.6,2.1c0.1,0.7,0.2,1.3,0.5,1.9c0.1,0.3,0.2,0.6,0.2,0.9
	c0,0.3,0,0.7,0.1,1l0.1,0.1c0,0.1,0.1,0.2,0.1,0.3c0,0.2,0,0.3,0,0.5c0,0.2,0,0.4,0,0.6c0,0.3-0.1,0.6-0.1,0.9
	c-0.1,0.3-0.1,0.5-0.1,0.8c0,0.2,0,0.4,0,0.6c0,0.5-0.1,1-0.2,1.5c-0.1,0.4-0.2,0.9-0.3,1.3c-0.1,0.3-0.1,0.6-0.2,0.8
	c0,0.1,0,0.3-0.1,0.4c0,0.2-0.1,0.4-0.1,0.6c-0.1,0.3-0.2,0.6-0.3,0.9l-0.1,0.5c-0.2,0.6-0.3,1.1-0.5,1.7c-0.1,0.2-0.2,0.4-0.3,0.5
	c-0.1,0.1-0.1,0.2-0.2,0.3c-0.1,0.1-0.1,0.3-0.1,0.5c0,0.1,0,0.1,0,0.2c-0.1,0.2-0.1,0.4-0.2,0.6c-0.1,0.2-0.1,0.3-0.2,0.5l-0.1,0.4
	c-0.1,0.2-0.1,0.4-0.2,0.6c-0.2,0.7-0.5,1.4-0.8,2.2c0,0.1-0.1,0.2-0.1,0.3c-0.1,0.3-0.2,0.6-0.3,0.9c0,0.1,0,0.3,0,0.4
	c0,0.1,0,0.2,0,0.3c0,0.1-0.1,0.2-0.2,0.2c-0.1,0-0.1,0.1-0.2,0.1c-0.1,0.1-0.1,0.2-0.2,0.3l-0.1,0.3l-0.1-0.3l-0.3,0.4
	c0-0.1,0-0.2,0.1-0.4c0,0,0.1-0.1,0.1-0.1c0,0,0.1-0.1,0.1-0.1c0.1-0.1,0.1-0.3,0.2-0.5c0.1-0.3,0.1-0.5,0.1-0.8
	c0-0.4,0.1-0.9,0.1-1.3c0.1-0.9,0.2-1.7,0.3-2.6c0.1-0.9,0.1-1.8,0.2-2.7l0-0.7c0-0.6,0.1-1.1,0.2-1.7c0.1-0.5,0.1-1.1,0.2-1.6
	l0-0.4c0-0.4,0-0.8,0-1.2l0-0.1c0-0.4,0-0.8,0-1.2c0-0.1,0.1-0.3,0.1-0.4c0.1-0.4,0.1-0.7,0.1-1.1c0-0.3,0-0.6-0.1-0.9
	c0-0.1,0-0.3,0-0.4c0-0.3,0-0.6,0-0.9c0-0.7-0.1-1.4-0.2-2.1c0-0.3-0.1-0.5-0.3-0.7c-0.1-0.1-0.2-0.1-0.3-0.1
	c-0.3,0.1-0.4,0.5-0.5,0.9l0,0.1C53,49,52.9,50,53,51.1l0,0.2c0,0.4,0,0.7,0,1.1c0,0,0,0.1,0,0.1c0,0.1-0.1,0.3,0,0.4
	c0.1,0.1,0.2,0.3,0.3,0.3l0.1,0c0,0,0.1,0,0.1,0.1c0,0-0.1,0.1-0.1,0.1c0,0-0.1,0.1-0.1,0.1l-0.1,0c-0.2,0.1-0.3,0.3-0.2,0.5
	c0,0.1,0,0.2,0,0.4l0,0.1c-0.1-0.1-0.2-0.3-0.3-0.4c-0.1-0.1-0.2-0.2-0.3-0.2c0,0-0.1-0.1-0.1-0.1c-0.1-0.1-0.1-0.1-0.1-0.2
	c0,0,0-0.1-0.1-0.1c-0.1-0.2-0.2-0.3-0.3-0.4c-0.1-0.1-0.2-0.2-0.2-0.3c-0.1-0.2-0.1-0.3-0.2-0.5c0-0.1-0.1-0.2-0.1-0.3
	c-0.1-0.2-0.2-0.4-0.3-0.6l-0.6-1c0,0,0-0.1-0.1-0.1c-0.1-0.2-0.2-0.3-0.3-0.4c-0.1-0.1-0.2-0.1-0.4-0.1c0,0-0.1,0-0.1,0
	c0.1-0.1,0.1-0.2,0.2-0.3c0-0.2-0.1-0.3-0.3-0.6c-0.1-0.2-0.3-0.3-0.4-0.5c-0.2-0.3-0.5-0.6-0.7-0.9c-0.1-0.1-0.1-0.2-0.2-0.4
	c-0.1-0.1-0.1-0.3-0.2-0.4c-0.1-0.2-0.2-0.3-0.3-0.5l-0.2-0.3c-0.1-0.2-0.3-0.4-0.5-0.5c-0.1,0-0.1-0.1-0.2-0.1
	c-0.1-0.1-0.2-0.2-0.3-0.3c-0.1-0.1-0.2-0.3-0.2-0.4c-0.1-0.3-0.3-0.5-0.6-0.8l-1.1-0.9c0,0-0.1-0.1-0.2-0.1
	c-0.3-0.3-0.8-0.7-1.2-0.6c-0.2,0-0.3,0.1-0.4,0.2c0,0.1,0,0.1,0,0.2c-0.1,0-0.1,0-0.2,0.1C42.1,42.7,42,43,42,43.3
	c0,0.8,0.3,1.5,0.9,2.1c0.3,0.3,0.6,0.7,0.9,1c0.2,0.2,0.4,0.4,0.5,0.6c0.1,0.1,0.1,0.1,0.2,0.2l0,0l1,1.2c0.1,0.1,0.1,0.1,0.2,0.2
	l1.4,1.7l0-0.1c0.2,0.2,0.4,0.4,0.5,0.6l0.4,0.5c0.2,0.2,0.4,0.5,0.6,0.7c0.2,0.4,0.5,0.7,0.7,1c0.1,0.1,0.3,0.3,0.4,0.4
	c0.1,0.1,0.3,0.2,0.4,0.4c0.1,0.1,0.1,0.2,0.2,0.4c0.1,0.2,0.2,0.4,0.4,0.6c0.1,0.1,0.2,0.2,0.3,0.2c0.2,0.1,0.3,0.2,0.4,0.4l0,0.1
	c0.2,0.4,0.3,0.7,0.5,1c0,0,0,0.1,0.1,0.1l0,0.3l0.1-0.2c0,0.1,0.1,0.2,0.1,0.3l0,0.1c0.1,0.2,0.1,0.4,0.2,0.5l0.1,0.1
	c0.1,0.1,0.1,0.2,0.1,0.3c0,0.2,0,0.4,0,0.5l0,0.2c0,0.4,0,0.9,0,1.4c0,1.7-0.1,3.2-0.2,4.6c0-0.1-0.1-0.1-0.1-0.2
	c-0.3-0.4-0.5-0.8-0.6-1.2c-0.1-0.4-0.3-0.7-0.5-1.1c-0.1-0.1-0.2-0.3-0.2-0.4c-0.2-0.4-0.4-0.8-0.6-1.3l-0.2-0.4
	c0-0.1-0.1-0.1-0.1-0.2c0-0.1,0-0.2,0-0.3c0-0.1,0-0.3-0.1-0.4c0-0.1-0.1-0.3-0.2-0.4c0-0.1-0.1-0.1-0.1-0.2c0-0.1-0.1-0.2-0.1-0.3
	c0-0.2-0.1-0.3-0.2-0.5c-0.1-0.3-0.3-0.6-0.5-0.8l-0.1-0.1c-0.1-0.1-0.2-0.2-0.4-0.4c-0.2-0.2-0.4-0.4-0.7-0.4c-0.2,0-0.3,0-0.5,0.1
	c0,0-0.1,0-0.1,0c-0.1,0-0.2,0-0.3,0.1c-0.2,0.1-0.2,0.4-0.3,0.7c0,0.5,0.1,1.1,0.3,1.6c0.1,0.1,0.1,0.2,0.2,0.3
	c0.1,0.1,0.1,0.2,0.2,0.2c0,0.1,0.1,0.2,0.1,0.3c0,0.1,0,0.1,0,0.2c0.1,0.3,0.2,0.6,0.5,0.8c0.1,0.2,0.3,0.4,0.4,0.6
	c0.1,0.2,0.2,0.4,0.3,0.6c0.1,0.3,0.3,0.6,0.5,0.9c0.1,0.2,0.2,0.3,0.3,0.5c0.2,0.3,0.4,0.5,0.5,0.8c0.3,0.5,0.6,1,0.8,1.5
	c0,0,0,0.1,0.1,0.1c0,0.1,0.1,0.2,0.2,0.4c0,0,0,0,0,0l0,0.2c0,0.3,0.1,0.6,0.3,0.9c0.1,0.2,0.2,0.4,0.3,0.6l0,0.2
	c0.1,0.4,0.2,0.8,0.2,1.2c-0.1,0.8-0.2,1.6-0.4,2.4c-0.1,0.3-0.1,0.6-0.2,1c-0.1,0.3-0.1,0.7-0.2,1.1c-0.1,0.6-0.2,1.2-0.3,1.8
	c-0.1,0.2-0.1,0.5-0.2,0.7c-0.1,0.6-0.3,1.2-0.5,1.8L50,78.2c-0.4,0.9-0.7,1.7-0.9,2.6L49,81.1c-0.2,0.9-0.4,1.8-0.7,2.7
	c-0.7,2-1.3,4-1.7,6.1l-0.1,0.5c-0.2,0.8-0.3,1.6-0.6,2.4c-0.1,0.4-0.2,0.8-0.3,1.2c0-0.2,0-0.4-0.1-0.6c-0.1-0.5-0.1-1.1-0.2-1.6
	c-0.1-0.5-0.1-1-0.1-1.5c0-0.1,0-0.2,0-0.3c0-0.1,0-0.2,0-0.3c0,0,0-0.1,0-0.1c0-0.2,0-0.3,0-0.5c-0.1-0.2-0.4-0.4-0.6-0.3
	c0,0,0.1-0.1,0.1-0.1c0.1-0.1,0.2-0.3,0.2-0.4l0,0l0.4,0.2l0-0.4c0-1,0-2.1-0.1-3.1c-0.1-0.9-0.1-1.9-0.2-3.1c0-0.1,0-0.2,0-0.4
	c0-0.1,0-0.3,0-0.4c0-0.1,0-0.2,0.1-0.3l0-0.1c0,0,0-0.1,0.1-0.1c0.1-0.1,0.1-0.3,0.2-0.5c0-0.1,0-0.2,0-0.3c0-0.1,0-0.2,0-0.3
	c0-0.2,0.1-0.3,0.1-0.5c0.1-0.2,0.1-0.5,0.1-0.7c0-0.1,0-0.2,0.2-0.4c0.1-0.1,0.1-0.3,0.2-0.4c0-0.1,0-0.1,0.1-0.2
	c0.1-0.2,0.2-0.4,0.3-0.7c0.1-0.2,0.2-0.5,0.3-0.7c0.1-0.2,0.1-0.4,0.2-0.5c0,0,0.1-0.1,0.1-0.1c0.1-0.1,0.2-0.1,0.2-0.2
	c0.1-0.2,0.2-0.4,0.3-0.6c0-0.1,0-0.2,0.1-0.3c0-0.1,0-0.1,0-0.2c0,0,0.1-0.1,0.1-0.1c0.1-0.1,0.1-0.1,0.2-0.2
	c0.1-0.2,0.1-0.4,0.1-0.6l0-0.1c0-0.1,0-0.2,0-0.3c0-0.3,0-0.7-0.2-1c-0.1-0.2-0.3-0.3-0.6-0.3c-0.4,0-0.6,0.5-0.7,0.7
	c0,0.2-0.1,0.3-0.1,0.5c0,0.1,0,0.1,0,0.2c0,0,0,0-0.1,0.1c-0.1,0.1-0.1,0.1-0.2,0.2c-0.1,0.1-0.1,0.3-0.1,0.5c0,0,0,0.1,0,0.1
	c0,0.1-0.1,0.2-0.1,0.3l0,0.1c0,0.1-0.1,0.2-0.2,0.2c0,0.1-0.1,0.1-0.1,0.2c-0.1,0.2-0.2,0.4-0.2,0.6l0,0.1c-0.1,0.3-0.2,0.7-0.3,1
	c0-0.1,0-0.1,0-0.2c0-0.2,0-0.3,0-0.5l0-0.3c0-0.1,0-0.3,0-0.4c0-0.1,0-0.3,0-0.4c0-0.2,0-0.3,0-0.5c0-0.1,0-0.2,0-0.3
	c0-0.1,0-0.3,0-0.4c0-0.1,0-0.2,0.1-0.3c0-0.2,0-0.5,0-0.7l0-0.3c0-0.3,0-0.6,0-0.8c0-0.3,0-0.6,0-0.9c0-0.1,0-0.3,0-0.4
	c0-0.4,0-0.8,0-1.2c0.1-0.6,0.1-1.3-0.1-1.9c0-0.1-0.1-0.2-0.1-0.3c0,0,0-0.1,0-0.1c0-0.1,0-0.1,0-0.2c0,0,0-0.1,0-0.1
	c0.1-0.1,0.1-0.2,0.1-0.3l0,0c0-0.1,0-0.3-0.1-0.4l-0.1-0.3l0,0l0-0.1c0-0.3-0.1-0.6-0.2-0.8l-0.1-0.3c-0.1-0.3-0.2-0.6-0.5-0.8
	c-0.1-0.1-0.3-0.1-0.4,0c-0.1,0-0.2,0.1-0.2,0.2c-0.3,0-0.6,0.4-0.6,0.4c-0.2,0.4-0.4,0.8-0.4,1.2c0,0.4,0,0.8,0.2,1.1
	c0,0.1,0,0.3,0,0.4c0,0.1,0,0.2,0,0.4c0,0.3,0.1,0.5,0.3,0.7c0.1,0.1,0.1,0.2,0.1,0.3c0.1,0.3,0.2,0.6,0.3,0.9
	c0.1,0.4,0.2,0.9,0.3,1.3c0.1,0.3,0.2,0.6,0.2,0.9c0,0,0,0.1,0,0.1c0,0,0,0.1,0,0.1c0,0,0,0.1,0,0.1c0,0,0,0,0,0l0,0.2l0.1-0.1
	c0,0.4,0,0.7,0,1.1l0,0.3c0,0.3,0,0.6-0.1,0.9c-0.1,0.2-0.1,0.4-0.1,0.5c-0.1-0.1-0.1-0.3-0.1-0.4c-0.1-0.5-0.2-0.9-0.4-1.4
	l-0.6-1.9c-0.1-0.2-0.1-0.3-0.2-0.5l0-0.1c0-0.1-0.1-0.1-0.1-0.2c0-0.1-0.1-0.2-0.1-0.3l-0.1-0.1c-0.1,0-0.1,0-0.2,0
	c0,0-0.1,0-0.1-0.1c0,0,0,0,0.1-0.1c0.1-0.1,0.1-0.2,0.2-0.3c0-0.1,0-0.2-0.1-0.3c0,0,0-0.1,0-0.1c0-0.1,0-0.1,0-0.2
	c0-0.1,0-0.1,0-0.2c0-0.1-0.1-0.3-0.1-0.4l0-0.1c-0.1-0.4-0.2-0.8-0.4-1.3l0-0.1c0-0.2,0-0.3,0-0.5c0-0.2,0-0.4,0-0.6
	c0-0.2-0.1-0.4-0.1-0.6c-0.1-0.2-0.1-0.4-0.1-0.5l0-0.3c0-0.2,0-0.3-0.1-0.5c0.3,0,0.5-0.1,0.8-0.2l0.2-0.1c0.3-0.1,0.5-0.3,0.6-0.6
	c0-0.1,0-0.2,0-0.3c0,0,0,0,0-0.1c0,0,0-0.1,0-0.1c0.1-0.2,0-0.5-0.2-0.6c-0.2-0.2-0.5-0.3-0.8-0.2c0.1-0.2,0.1-0.4,0.1-0.6
	c-0.1-0.2-0.3-0.3-0.5-0.3c-0.4-0.1-0.8,0.1-1,0.4l-0.1,0.1c-0.2,0.2-0.3,0.5-0.4,0.8l0,0c0,0,0,0.1,0,0.2l0,0.2h0c0,0,0,0.1,0,0.1
	c0,0,0,0.1,0,0.1c0,0.1,0,0.1,0,0.2c0,0.1,0.1,0.3,0.2,0.4c0,0,0,0,0,0.1c0,0.1-0.1,0.1-0.1,0.2c-0.2,0.6-0.3,1.3-0.1,2
	c0,0.1,0,0.2,0.1,0.3c0.1,0.2,0.1,0.3,0.1,0.5c0,0.1,0,0.2,0,0.3c0,0.2,0,0.4,0,0.6c0,0.2,0.1,0.4,0.2,0.6c0.1,0.1,0.1,0.2,0.1,0.3
	c0.1,0.2,0.1,0.4,0.2,0.5l0.1,0.3c0,0.1,0.1,0.3,0.1,0.4c0,0.2,0.1,0.3,0.1,0.5c0.1,0.2,0.1,0.4,0.2,0.6c0,0.1,0.1,0.2,0.1,0.2
	l0.3,0.7c0.2,0.4,0.4,0.8,0.5,1.2c0.1,0.2,0.1,0.3,0.2,0.5c0.1,0.3,0.3,0.7,0.4,1c0.1,0.2,0.1,0.4,0.1,0.6c0,0.3,0.1,0.5,0.2,0.8
	l0.1,0.2c0.1,0.4,0.2,0.8,0.3,1.2c0,0.2,0.1,0.4,0.1,0.5c0,0.1,0,0.1,0.1,0.2c0,0.1,0,0.2,0.1,0.3c0,0.1,0,0.3-0.1,0.4
	c0,0.1,0,0.2-0.1,0.2c-0.1-0.1-0.1-0.1-0.2-0.2c-0.1-0.1-0.2-0.3-0.3-0.4l-0.2-0.3c-0.2-0.3-0.4-0.5-0.6-0.8
	c-0.2-0.4-0.5-0.8-0.8-1.1c-0.1-0.2-0.3-0.4-0.4-0.6c-0.1-0.1-0.1-0.3-0.2-0.4c-0.5-0.8-1-1.5-1.6-2.2L39,71.6
	c-0.3-0.4-0.6-0.8-0.9-1.1c-0.1-0.1-0.2-0.2-0.3-0.3c-0.2-0.2-0.4-0.4-0.6-0.7l-0.4-0.6l-0.1,0.7c0,0.1,0,0.2-0.1,0.2
	c0,0.1-0.1,0.1-0.1,0.2c0,0.1,0,0.3,0,0.4l0,0.1c0,0.1,0,0.1,0,0.1c0,0.1,0,0.1,0,0.2l-0.1,0.2c0,0.1-0.1,0.2-0.1,0.3
	c0,0-0.1-0.1-0.1-0.1c0,0-0.1-0.2,0-0.4l0,0l0.2,0.2l-0.1-0.4c0.1-0.1,0.1-0.3,0-0.4l0-0.1l0-0.3c0-0.2-0.1-0.3-0.2-0.5
	c0-0.1-0.1-0.1-0.1-0.2c0,0,0.1,0,0.1,0c0.1,0,0.3-0.1,0.3-0.2c0.1-0.2,0.1-0.4-0.2-0.6c-0.1-0.1-0.2-0.2-0.3-0.3
	c-0.2-0.1-0.3-0.3-0.5-0.4c-0.2-0.1-0.4-0.3-0.6-0.4c-0.3-0.4-0.7-0.7-1.2-0.8c-0.2-0.1-0.4-0.1-0.5-0.2c-0.2-0.1-0.3-0.1-0.5-0.2
	c-0.2,0-0.4-0.1-0.5-0.3l-0.1-0.1c-0.1-0.1-0.3-0.2-0.4-0.3c-0.3-0.2-0.6-0.3-0.8-0.2c-0.1,0.1-0.2,0.2-0.2,0.3c0,0.2,0,0.3,0.1,0.5
	c0,0,0.1,0.1,0.1,0.1c0,0,0,0.1,0,0.1c0,0.2,0.1,0.3,0.2,0.4c0.2,0.2,0.3,0.3,0.5,0.5c0.1,0.1,0.2,0.2,0.3,0.4
	c0.1,0.1,0.3,0.2,0.4,0.3c0.2,0.1,0.3,0.3,0.5,0.4l0.1,0.1c0.2,0.3,0.5,0.7,0.8,0.9c0.4,0.3,0.7,0.5,1,0.9c0.1,0.2,0.3,0.3,0.4,0.5
	c0.1,0.2,0.3,0.3,0.4,0.5c0.4,0.4,0.7,0.7,1.1,1c0.7,0.7,1.4,1.4,2.1,2.1l0.1,0.2c0.1,0.1,0.3,0.3,0.4,0.4c0.1,0.1,0.2,0.3,0.3,0.4
	c0.1,0.2,0.3,0.4,0.5,0.6c0,0,0.1,0.1,0.1,0.1c0.1,0.1,0.1,0.1,0.2,0.2l0,0c0,0,0.1,0.1,0.1,0.1l0.2,0.3c0.5,0.7,1,1.4,1.6,2
	c0.1,0.2,0.2,0.3,0.4,0.5c0.1,0.2,0.2,0.3,0.4,0.5c0,0,0.1,0.1,0.1,0.1c0.1,0.1,0.1,0.1,0.1,0.1c0,0.1,0,0.3,0,0.4
	c0,0.1,0,0.2,0,0.3c0,0.9-0.1,1.9-0.1,2.8c0,0.5,0,0.9,0.1,1.4c0,0.2,0,0.5,0.1,0.7c0,0.2,0,0.3,0.1,0.5l0,0l-0.1,0.2l0,0
	c0,0.1,0,0.2,0,0.3c0,0.1,0,0.1,0,0.2c0,0.4,0,0.8,0,1.1c0,0.3,0,0.5,0,0.8c0,0.6-0.1,1.1-0.1,1.7c0,1.1,0.1,2.1,0.3,3.2
	c0.1,0.6,0.2,1.3,0.2,2l0,0l0,0.4c0,0.5,0.1,1,0.2,1.5c0.1,0.9,0.2,1.9,0.3,2.8c0.1,0.9,0.1,1.8,0.2,2.8c0,0.5,0.1,1.1,0.2,1.6
	l0.1,0l0,0.1l0,0l0,0.2c0,0.2,0,0.3,0.1,0.5l0.2,1.1c0,0.1,0,0.2,0,0.3l0,0.2c0,0.2,0.1,0.4,0.1,0.6c0,0.2,0,0.4,0.1,0.6
	c0.1,0.4,0.1,0.8,0.2,1.2c0.1,0.4,0.1,0.8,0.2,1.2c0,0.1,0,0.2,0,0.3c0,0.1,0,0.1,0,0.2c-0.2,0.1-0.3,0.3-0.5,0.4
	c-0.2,0.1-0.4,0.3-0.5,0.5c-0.2,0.2-0.4,0.4-0.5,0.6c0.1,0.6,0.1,1.3-0.2,1.9c-0.3,0.5-0.4,1.1-0.4,1.7c0.2,0.4,0.3,0.8,0.4,1.2
	c0,0,0,0,0-0.1c-0.1-0.1-0.2-0.3-0.3-0.5c-0.3-0.4-0.5-0.8-0.7-1.2c-0.1-0.1-0.2-0.3-0.2-0.4c0.2-0.3,0.3-0.7,0.2-1l0-0.1
	c0-0.5-0.1-1.1-0.2-1.6c-0.1-0.4-0.2-0.8-0.3-1.2l0-0.1c-0.1-0.5-0.3-0.9-0.5-1.4c-0.1-0.2-0.1-0.5-0.2-0.7c0-0.2-0.1-0.5-0.1-0.7
	l-0.2-0.7c0-0.1-0.1-0.2-0.1-0.4c0-0.1,0-0.2-0.1-0.4c0-0.2-0.1-0.4-0.1-0.6c0-0.2-0.1-0.5-0.1-0.7l-0.1-0.3
	c-0.1-0.4-0.2-0.8-0.3-1.2c0-0.1,0-0.2,0-0.4c0-0.1,0-0.2,0-0.3c0-0.2,0-0.3-0.1-0.5l0-0.2c-0.1-0.4-0.2-0.8-0.4-1.1l-0.1-0.2
	c0-0.1,0-0.2,0-0.3c0-0.1,0-0.2,0-0.3c0-0.3-0.1-0.5-0.2-0.7c-0.1-0.3-0.3-0.5-0.4-0.8c-0.1-0.2-0.2-0.4-0.2-0.5l0-0.1
	c-0.2-0.4-0.4-1-0.9-0.9c-0.2,0.1-0.4,0.3-0.4,0.5c-0.1,0-0.1,0-0.2,0c-0.3,0.1-0.4,0.4-0.4,0.6c-0.1,0.6-0.1,1.2,0.1,1.8
	c0,0.1,0.1,0.2,0.2,0.3c0.1,0.1,0.1,0.2,0.1,0.4c0,0.1,0,0.2,0,0.3c0,0.1,0,0.2,0,0.3c0.1,0.3,0.2,0.6,0.4,0.9
	c0.1,0.1,0.2,0.3,0.2,0.5L38,104c0.1,0.2,0.1,0.4,0.2,0.5c0,0.1,0,0.2,0.1,0.3c0,0.2,0.1,0.3,0.1,0.5c0.1,0.3,0.3,0.6,0.4,0.9
	c0.1,0.2,0.2,0.5,0.4,0.7c0.4,0.8,0.7,1.6,0.8,2.5c0,0.1,0,0.2,0,0.4c0,0.2,0,0.4,0,0.6c0,0.1,0,0.2,0.1,0.3c0,0.1,0.1,0.3,0.1,0.4
	c0,0.2,0,0.4,0.1,0.6c-0.1-0.2-0.2-0.3-0.3-0.5l0-0.1c0,0-0.1-0.1-0.1-0.1c0,0,0-0.1,0-0.2c0-0.2-0.1-0.4-0.2-0.6
	c-0.1-0.2-0.3-0.4-0.5-0.6c-0.2-0.2-0.3-0.3-0.4-0.5c-0.2-0.3-0.3-0.6-0.5-0.9L38,108c-0.8-1.4-1.6-2.9-2.4-4.4
	c-0.2-0.5-0.4-1-0.6-1.5l-0.1-0.3c-0.2-0.4-0.4-0.8-0.6-1.2l0-0.1c-0.1-0.1-0.1-0.3-0.1-0.4l0-0.1c0-0.2-0.1-0.3-0.1-0.5
	c0,0,0-0.1,0-0.1c0-0.1,0-0.2,0-0.3c0-0.1,0-0.1,0-0.2c0,0,0-0.1,0-0.1l0,0c0,0,0.1-0.1,0.1-0.1c0.1-0.3,0.1-0.6,0.1-0.9
	c0-0.1,0-0.2,0-0.3c0-0.6,0-1.2-0.1-1.7c0-0.2-0.1-0.5-0.1-0.7c0-0.2,0-0.4-0.1-0.6c0-0.3,0-0.5-0.1-0.8c0-0.1,0-0.2-0.1-0.3
	c-0.1-0.3-0.1-0.6-0.1-0.9c0-0.5,0-0.9-0.1-1.4c-0.1-0.3-0.1-0.7-0.1-1l0-0.5l0,0c0-0.2,0-0.4,0-0.6c0-0.1,0-0.1,0-0.2
	c-0.1-0.6-0.1-1.2-0.1-1.9c0-0.6,0-1.1-0.2-1.7c0-0.2-0.1-0.3-0.1-0.5c0-0.1-0.1-0.2-0.1-0.4c0-0.2,0-0.3,0-0.5l0-0.2
	c0-0.5-0.2-0.9-0.4-1.3l-0.1-0.1c-0.1-0.1-0.1-0.3-0.2-0.4c-0.1-0.3-0.3-0.6-0.4-0.9c-0.3-0.6-0.7-1-0.9-1c-0.2,0-0.3,0.1-0.4,0.2
	c0,0.1-0.1,0.1-0.1,0.2c0,0,0,0-0.1,0c-0.2,0-0.4,0.1-0.4,0.3c-0.2,0.4-0.2,0.9-0.2,1.4c0,0.4,0.1,0.8,0.3,1.2
	c0.1,0.3,0.2,0.7,0.2,1c0,0.1,0,0.3,0.1,0.4h0l0,0c0.1,0.2,0.1,0.3,0.2,0.5c0.1,0.1,0.1,0.3,0.2,0.4l0.2,0.5c0,0.2,0,0.3,0.1,0.4
	c0,0.1,0,0.1,0,0.2c0,0.1,0,0.2,0,0.3c0,0.1,0,0.3,0.1,0.4c0.1,0.2,0.1,0.4,0.2,0.5l0.1,0.2c0.2,0.6,0.4,1,0.5,1.5
	c0.1,0.5,0.2,1,0.3,1.5l0.1,1.6c0,0.3,0,0.5,0,0.8l0,0.3c0,0.3,0,0.6,0,1c0,0.2,0,0.4,0.1,0.6c0,0-0.1-0.1-0.1-0.1
	c0,0-0.1-0.1-0.1-0.1c0-0.1-0.1-0.1-0.1-0.2c0-0.1,0-0.1-0.1-0.2l0,0c0,0,0,0,0,0c0.2-0.2,0.1-0.5-0.2-0.9c-0.1-0.1-0.1-0.1-0.2-0.2
	c-0.1-0.1-0.2-0.1-0.2-0.2c-0.1-0.2-0.2-0.3-0.2-0.5L31.1,93c-0.1-0.4-0.3-0.7-0.4-1.1l-0.1-0.4c-0.2-0.4-0.3-0.9-0.6-1.4L30,90
	c-0.1-0.4-0.3-0.7-0.6-1.1c-0.1-0.2-0.3-0.3-0.5-0.3c-0.1,0-0.3,0.1-0.3,0.2c-0.1,0.3-0.1,0.7,0,1l0,0.1c0.2,0.7,0.4,1.3,0.6,2
	c-0.1,0-0.1-0.1-0.2-0.1c-0.1-0.1-0.3-0.2-0.3-0.3c0-0.1-0.1-0.1-0.1-0.2c-0.1-0.1-0.1-0.2-0.2-0.3l-0.4-0.4
	c-0.1-0.1-0.2-0.3-0.3-0.4c-0.1,0-0.1-0.1-0.2-0.1c-0.3-0.3-0.6-0.6-0.9-0.9c-0.1-0.1-0.2-0.2-0.3-0.2c-0.3-0.2-0.5-0.4-0.8-0.7
	c-0.3-0.4-0.6-0.7-1-0.9c-0.1-0.1-0.3-0.1-0.4-0.2c-0.1,0-0.1-0.1-0.2-0.1c-0.1-0.1-0.2-0.1-0.3-0.2l-0.1-0.1
	c-0.3-0.2-0.6-0.4-1-0.4c-0.1,0-0.2,0-0.3-0.1c-0.1,0-0.3-0.1-0.4-0.1c-0.1,0-0.2,0-0.3,0c-0.1,0-0.2-0.1-0.3-0.2l-0.2-0.1
	c-0.3-0.2-0.8-0.6-1.1-0.3c-0.4,0.3,0,0.9,0.2,1.2c0.2,0.3,0.5,0.7,0.8,0.9c0.1,0.1,0.2,0.1,0.3,0.2c0.2,0.1,0.3,0.2,0.4,0.4
	c0.2,0.4,0.5,0.7,0.9,0.9c0.4,0.3,0.7,0.5,1,0.9c0.3,0.3,0.5,0.5,0.8,0.8l0.5,0.4c0.5,0.4,1,0.8,1.6,1.2l0,0
	c0.1,0.1,0.1,0.1,0.2,0.2l0.1,0.2l0-0.2c0,0,0,0,0,0c0,0,0.1,0.1,0.1,0.1l0.2,0.1c0.1,0.1,0.2,0.2,0.3,0.3l0,0l0,0l0.2,0.3
	c0.2,0.3,0.5,0.5,0.8,0.7c0.2,0.1,0.4,0.3,0.5,0.5c0.4,0.4,0.8,0.8,1.3,1.1c0.2,0.1,0.4,0.2,0.6,0.4c0.2,0.1,0.3,0.3,0.3,0.5
	c0.1,0.3,0.2,0.5,0.4,0.8c0.1,0.3,0.2,0.5,0.4,0.8c0.4,0.9,0.8,1.9,1.4,3c0.3,0.5,0.5,1.1,0.7,1.6c0.2,0.5,0.4,1,0.6,1.4
	c0.4,0.7,0.7,1.5,1.1,2.2c-0.3-0.2-0.5-0.4-0.8-0.6c-0.2-0.2-0.5-0.4-0.8-0.6c-0.2-0.1-0.3-0.3-0.4-0.5l-0.1-0.1
	c-0.1-0.2-0.3-0.4-0.5-0.5c-0.1-0.1-0.2-0.2-0.2-0.2c-0.2-0.2-0.4-0.4-0.5-0.6l-0.2-0.3c-0.2-0.2-0.3-0.3-0.5-0.5
	c-0.1-0.1-0.2-0.2-0.3-0.3c-0.1-0.1-0.2-0.2-0.3-0.2c0,0,0,0,0,0l-0.2-0.3c-0.1-0.1-0.1-0.2-0.2-0.3c-0.1-0.2-0.2-0.3-0.4-0.5
	l-0.1-0.1c-0.2-0.2-0.4-0.4-0.7-0.5c-0.2-0.1-0.4-0.2-0.6-0.4c-0.2-0.2-0.4-0.4-0.7-0.5c-0.2-0.1-0.3-0.1-0.5-0.1
	c-0.1,0-0.2,0-0.3-0.1c0,0-0.1,0-0.1,0c-0.1,0-0.1,0-0.2-0.1c-0.1,0-0.1-0.1-0.2-0.1c0,0-0.1-0.1-0.1-0.1c0,0-0.1-0.1-0.1-0.1
	c-0.4-0.4-0.9-0.9-1.3-0.6c-0.1,0.1-0.2,0.2-0.2,0.3c-0.1,0.6,0.7,1.6,0.8,1.6l0.1,0.1c0.1,0.2,0.3,0.4,0.5,0.5l0.2,0.1
	c0.2,0.1,0.3,0.3,0.5,0.5c0.2,0.4,0.5,0.7,0.9,0.9l0.1,0.1c0.1,0.1,0.2,0.1,0.3,0.2c0.1,0.1,0.2,0,0.3,0c0.1,0,0.2-0.1,0.2-0.2l0,0
	l0,0c0,0,0,0.1,0.1,0.1c0,0,0.1,0.1,0.1,0.1c0,0,0,0-0.1,0l-0.7,0l0.5,0.5c0.2,0.1,0.3,0.3,0.5,0.4c0.2,0.2,0.5,0.5,0.7,0.7
	c0.2,0.1,0.4,0.3,0.6,0.4c0.3,0.2,0.5,0.4,0.8,0.5l1.5,1.1c0.1,0.1,0.2,0.1,0.3,0.2c0.2,0.1,0.4,0.3,0.6,0.5
	c0.1,0.1,0.1,0.1,0.2,0.2c0.1,0.1,0.2,0.2,0.3,0.3c0.2,0.1,0.3,0.2,0.5,0.4l0.1,0.1c0.2,0.2,0.4,0.4,0.6,0.6
	c0.1,0.1,0.3,0.3,0.4,0.4c0.4,0.4,0.8,0.7,1.2,1c0.3,0.2,0.5,0.5,0.7,0.9c0.1,0.1,0.1,0.2,0.2,0.3c0.1,0.3,0.3,0.5,0.5,0.8
	c0.4,0.7,0.8,1.4,1.2,2.1c0.2,0.5,0.5,0.9,0.7,1.4c0.1,0.3,0.3,0.6,0.5,0.8c0.1,0.2,0.2,0.3,0.3,0.5c0.1,0.2,0.2,0.4,0.3,0.6
	c0.2,0.3,0.3,0.6,0.5,0.9c0.1,0.1,0.2,0.3,0.3,0.4c0.2,0.3,0.4,0.6,0.6,0.9c0.2,0.4,0.4,0.8,0.6,1.3c0.1,0.3,0.2,0.5,0.3,0.8
	c0,0,0,0,0,0.1c0,0.1,0.1,0.1,0.1,0.2c0,0,0,0.1,0,0.1l0.5,0.8c0.1,0.2,0.2,0.3,0.3,0.5c-0.1,0.4,0,0.8,0,1.2c0,0.1,0,0.1,0.1,0.2
	c-0.1-0.1-0.3-0.3-0.4-0.4c-0.3-0.5-0.7-0.9-1.1-1.3l-0.3-0.3c-0.2-0.2-0.5-0.5-0.8-0.7c-0.1-0.1-0.3-0.2-0.4-0.4
	c-0.1-0.1-0.2-0.1-0.3-0.2c0,0,0-0.1-0.1-0.1c0,0-0.1,0-0.1-0.1c0-0.1,0-0.1,0-0.2c-0.1-0.4-0.8-0.6-0.8-0.6c-0.1,0-0.2,0-0.2,0
	c0,0-0.1,0-0.1,0c-0.1-0.1-0.2-0.1-0.2-0.2c-0.1-0.1-0.1-0.1-0.2-0.2c-0.2-0.2-0.5-0.4-0.8-0.6L39,119c-0.2-0.1-0.3-0.2-0.5-0.3
	c-0.2-0.1-0.3-0.1-0.5-0.3c-0.1-0.1-0.2-0.2-0.3-0.3c-0.2-0.2-0.4-0.4-0.6-0.5c-0.1-0.1-0.3-0.1-0.4-0.2c-0.2-0.1-0.3-0.1-0.5-0.2
	l-0.2-0.1c-0.1-0.1-0.3-0.1-0.4-0.2c0,0-0.1,0-0.1,0c0,0-0.1,0,0,0c0,0,0-0.1-0.1-0.1c0.1,0,0.2-0.1,0.3-0.1
	c0.2-0.1,0.3-0.3,0.4-0.5c0-0.1,0.1-0.1,0.1-0.2l0,0c0.3-0.3,0.2-0.7,0-1c0,0-0.1,0-0.1-0.1c0,0,0,0,0,0l0.2-0.1h-0.2
	c0-0.1-0.1-0.3-0.3-0.3c-0.1,0-0.1,0-0.2,0c0,0,0,0,0-0.1c-0.1-0.2-0.3-0.3-0.5-0.3c-0.4-0.1-0.8,0-1,0.4c-0.1,0.2-0.2,0.4-0.3,0.7
	c-0.1,0.2,0,0.5,0.1,0.7c0,0.1,0.1,0.1,0.1,0.2c0,0.1,0,0.1,0.1,0.2l-0.1,0.1l0.1-0.1c0,0.1,0.1,0.1,0.1,0.2c-0.4,0-0.7,0.2-0.9,0.5
	c-0.3,0.4-0.4,0.8-0.4,1.3c0.1,0.4,0.3,0.8,0.5,1.1c0.2,0.2,0.4,0.3,0.6,0.4c0.1,0.1,0.2,0.1,0.3,0.2c0.3,0.3,0.7,0.5,1,0.6
	c0.4,0.1,0.7,0.2,1.1,0.3c0.1,0,0.2,0,0.3,0.1c0.3,0,0.6,0.1,0.8,0.2c0.3,0.1,0.6,0.2,0.9,0.2c0.1,0,0.1,0,0.2,0c0.1,0,0.1,0,0.2,0
	c0,0,0.1,0,0.1,0.1c0.1,0.1,0.3,0.2,0.4,0.2c0.1,0,0.2,0,0.3-0.1c0.1,0,0.1,0,0.2,0c0.1,0,0.2,0.1,0.2,0.1l0.7,0.5c0,0,0,0,0.1,0.1
	c0.1,0.1,0.2,0.2,0.4,0.3l0,0c0.7,0.5,1.3,1,1.9,1.6c0.1,0.1,0.2,0.3,0.3,0.4c0.1,0.1,0.1,0.2,0.2,0.3c0.1,0.2,0.3,0.3,0.4,0.5
	c0.1,0.1,0.3,0.3,0.4,0.4c0.2,0.3,0.4,0.6,0.6,0.9c0.1,0.1,0.1,0.2,0.2,0.3c0,0.1,0,0.2,0,0.4c0.3,0.4,0.6,0.7,0.8,1.1
	c0.1,0.2,0.2,0.5,0.2,0.7c0,0.3,0,0.6-0.1,0.9c0.4,0.2,0.7,0.6,0.8,1.1c0.1,0.2,0.1,0.5,0.2,0.7c0.1,0.1,0.3,0.2,0.5,0.2
	c0,0,0,0,0,0c0.2,0,0.3,0.2,0.4,0.5c-0.1,0.3-0.1,0.5,0,0.5c0.2,0.1,0.2,0.3,0.1,0.5c0.1,0,0.2,0,0.3,0.1c0.2,0.1,0.3,0.3,0.3,0.5
	c0,0.3,0.1,0.6,0.4,0.8c0.1,0.2,0.2,0.3,0.2,0.5c0.1,0.1,0.1,0.2,0.2,0.3c0.1,0.3,0.2,0.6,0.4,0.9c0.3,0,0.5,0.2,0.6,0.5
	c0.1,0.2,0.3,0.4,0.5,0.6c0.1,0.2,0.3,0.3,0.5,0.3c0.2,0,0.4,0.2,0.4,0.4c0.4-0.1,0.7-0.1,0.9,0.1c0.2,0.2,0.5,0.2,1,0.1
	c-0.1,0.3,0,0.4,0.1,0.5c0.1,0.1,0.2,0.2,0.3,0.3c0.3,0.3,0.6,0.6,0.9,0.9c0.3,0.2,0.5,0.5,0.7,0.9c0.4,0,0.7,0.1,1,0.3
	c0.3,0.2,0.7,0.3,1,0.2c0,0.2,0.1,0.3,0.2,0.3c0.2,0,0.3,0.1,0.4,0.2c0.1,0.1,0.2,0.3,0.2,0.5c0,0.2,0.2,0.3,0.5,0.2
	c0.5,0.1,1,0.3,1.5,0.5c0.5,0.2,1,0.3,1.5,0.4c0,0.2,0,0.4,0.1,0.5c0.1,0.1,0.1,0.3,0.1,0.4c0.4-0.1,0.9-0.1,1.3,0
	c0.3,0.1,0.6,0.2,0.9,0.4c0.3,0.2,0.6,0.3,0.9,0.4c0.4,0.1,0.8,0.2,1.2,0.1c0.2,0.2,0.4,0.4,0.5,0.6c0.2,0.2,0.4,0.4,0.6,0.5
	c1.9,0.4,3.8,0.6,5.7,0.5c2.2-0.1,4.2-0.1,6.2,0c1.3-0.3,2.7-0.5,4-0.6c1.5-0.1,2.9-0.3,4.3-0.4c0.2,0,0.4,0.2,0.5,0.4
	c0.1,0.2,0.3,0.2,0.6,0.1c0.1,0.2,0.2,0.4,0.4,0.6c0.1,0.2,0.4,0.2,0.8,0c0.3,0,0.5-0.1,0.6-0.3c0.1-0.2,0.3-0.4,0.5-0.5
	c0.3-0.2,0.5-0.3,0.6-0.5c0.2-0.2,0.5-0.3,0.7-0.4c0.5,0.1,1.1,0.1,1.5-0.1c0.4-0.2,0.9-0.3,1.4-0.4c0.4,0.1,0.7,0.2,1.1,0.3
	c0.3,0.2,0.7,0.3,1.1,0.3h5.4c0.3,0,0.6-0.1,0.9-0.3c0.3-0.1,0.5-0.2,0.7-0.3c0.3-0.1,0.5-0.2,0.7-0.3c0.3-0.1,0.7-0.1,1,0
	c0.3-0.2,0.5-0.4,0.8-0.6c0.3-0.2,0.7-0.4,1-0.3c0.3,0,0.7,0.1,0.9,0.4c0.2,0.2,0.4,0.3,0.6,0.4c0.8-0.2,1.7-0.2,2.6,0
	c0.9,0.3,1.9,0.3,2.8,0.2c0.4,0.2,0.8,0.5,1.2,0.8c0.5,0.3,1.2,0.3,1.7,0.1c0.3,0.4,0.6,0.8,1,1c0.4,0.3,0.7,0.6,1,1
	c0.1,0.2,0.2,0.4,0.3,0.6c0.1,0.2,0.2,0.4,0.3,0.6c-0.1,0.3-0.2,0.7-0.3,1.1c-0.1,0.4-0.1,0.9-0.2,1.4c-0.2,0.1-0.4,0.2-0.7,0.2
	c-0.3,0-0.5,0.2-0.4,0.6c-0.2,0.9,0,1.9,0.4,2.7c0.7,1.5,0.9,3.3,0.5,4.9c0.2,0.2,0.4,0.5,0.5,0.9c0.1,0.3,0.3,0.6,0.6,0.7
	c0.3,0.2,0.5,0.4,0.7,0.7c0.2,0.3,0.4,0.5,0.7,0.7c0.4,0.5,0.7,1,1,1.5c0.3,0.5,0.6,1,1,1.5c0.4,0.5,0.8,0.9,1.3,1.2
	c0.6,0.4,1.3,0.6,2,0.6c0.4,0.2,0.8,0.4,1.2,0.6c0.4,0.2,0.8,0.2,1.2,0c0.5-0.3,0.8-0.8,0.8-1.4c0-0.4,0.1-0.7,0.4-0.8
	c0.3-0.1,0.4-0.4,0.4-0.7c0.1-0.5,0-1-0.1-1.4c-0.1-0.4-0.1-0.8,0.1-1.2c0-0.3,0.2-0.7,0.3-0.9c0.2-0.3,0.3-0.6,0.3-0.9
	c-0.3-0.5-0.5-1.1-0.6-1.6c-0.2-0.7-0.2-1.5,0-2.2c-0.3-0.3-0.5-0.6-0.8-0.9c-0.3-0.3-0.5-0.7-0.6-1.1c-0.1-0.5-0.1-1,0-1.5
	c0.1-0.4,0.2-0.9,0.3-1.3c0.3-0.5,0.6-0.9,1-1.3c0.4-0.5,0.6-1,0.7-1.6c0.1-0.6,0-1.3-0.2-1.8c-0.3-0.6-0.4-1.3-0.4-1.9
	c0.1-0.5,0.2-0.9,0.3-1.3c0.1-0.4,0.2-0.8,0.3-1.2c0-0.6-0.1-1.3-0.2-1.9c-0.1-0.6-0.1-1.3,0-2c0.1-0.3,0.2-0.6,0.4-0.8
	c0.2-0.3,0.2-0.7,0.2-1c-0.1-0.4-0.3-0.9-0.5-1.3c-0.5-0.9-0.7-1.9-0.6-2.9c0-0.5,0-1.1,0-1.6c-0.7-0.7-0.9-1.7-0.7-2.7
	c0.3-0.1,0.5-0.3,0.6-0.5c0.1-0.2,0.2-0.4,0.3-0.6c-0.2-2.1,0.1-3.6,0.9-4.6c-0.6-0.4-0.9-1.2-0.8-1.9c0.1-0.8,0-1.6-0.3-2.3
	c0.2-0.8,0.2-1.7,0-2.5c-0.1-0.8-0.4-1.5-0.8-2.2c0.6-0.9,0.8-1.9,0.7-2.9c0-0.4-0.1-0.7-0.4-1c-0.3-0.3-0.4-0.6-0.4-1
	c0.3,0,0.4-0.2,0.3-0.5c-0.1-0.3-0.1-0.5,0-0.6c0.3-0.2,0.6-0.4,0.9-0.5c0.3-0.1,0.6-0.3,0.8-0.5c0.4-0.7,1-1.2,1.8-1.5
	c0.8-0.2,1.6-0.5,2.5-0.6c0.6-0.5,1.3-0.9,2-1.1c0.1-0.3,0.4-0.5,0.7-0.5c0.1-0.1,0.2-0.2,0.1-0.5c0-0.2,0.1-0.4,0.3-0.5
	c0,0,0,0,0,0c0.4,0.1,0.6,0.1,0.6-0.2c0-0.2,0.1-0.4,0.4-0.5c0.2-0.1,0.3-0.1,0.5-0.3c0.1-0.1,0.2-0.3,0.4-0.4
	c0.3-0.5,0.8-0.8,1.3-1.1c0.5-0.3,1-0.6,1.5-0.9c0.4-0.4,0.9-0.7,1.3-1.1c0.4-0.4,0.9-0.7,1.4-1c-0.1-0.3,0-0.5,0.2-0.5
	c0.2-0.1,0.2-0.2,0.1-0.5c0.1-0.1,0.3-0.2,0.5-0.2c0.2,0,0.3-0.2,0.1-0.5c0.1-0.4,0.3-0.9,0.5-1.3c0.2-0.4,0.3-0.8,0.5-1.2v-1.8
	c0.2-0.5,0.5-1,0.9-1.4C150.8,89.4,150.7,89.2,150.4,89.2z M133.4,56.2c-0.1-0.3,0-0.4,0.2-0.4c0.2,0,0.5,0,0.7,0
	C134.3,56.2,134,56.3,133.4,56.2z M52.4,116.5l-0.2,0.2c0,0,0-0.1,0-0.1L52.4,116.5z M50.9,122.1L50.9,122.1c0,0.1,0,0.1,0,0.2
	C50.8,122.2,50.8,122.2,50.9,122.1L50.9,122.1L50.9,122.1z M60.9,73C60.9,73,60.9,73,60.9,73C60.9,73,60.9,72.9,60.9,73L60.9,73
	L60.9,73z M60.6,73.1l0.2-0.1L60.6,73.1L60.6,73.1z M53.7,78.7L53.7,78.7c0,0,0,0.1-0.1,0.1C53.7,78.8,53.7,78.7,53.7,78.7z
	 M65.9,48.4c0.1,0.1,0.1,0.2,0.2,0.3l0.1,0.3c0-0.1-0.1-0.1-0.2-0.2C66,48.9,65.8,48.7,65.9,48.4z M61.5,41.9L61.5,41.9l0.2-0.1
	c0.1-0.1,0.1-0.3,0.1-0.4c0,0,0-0.1,0-0.1c0.2-0.1,0.3-0.2,0.3-0.4l0.1-0.1c0.1-0.2,0.1-0.4,0-0.6c0,0-0.1-0.1-0.1-0.1l1.3-0.7
	c-0.2,0.4-0.4,0.8-0.5,1.3c-0.1,0.3-0.2,0.6-0.3,0.9c-0.1,0.2-0.2,0.4-0.2,0.5c-0.1,0.3-0.2,0.6-0.3,0.9c0-0.1,0-0.2,0-0.3l0,0
	l0-0.1l0-0.1l0,0c0-0.2,0-0.3-0.1-0.5c0-0.1-0.1-0.1-0.1-0.2c0,0,0-0.1-0.1-0.1L61.5,41.9z M61.6,42.8L61.6,42.8l0.3,0.1l-0.5,0
	L61.6,42.8z M46.8,48.1L46.7,48l-0.1-0.1c-0.1-0.1-0.2-0.3-0.3-0.5c-0.1-0.2-0.2-0.3-0.3-0.5c-0.1-0.2-0.3-0.3-0.4-0.5
	c-0.2-0.2-0.3-0.4-0.5-0.6c-0.3-0.4-0.6-0.8-1-1.2L44,44.6c0,0-0.1-0.1-0.1-0.1l0,0c0.1,0.1,0.2,0.1,0.3,0.2
	c0.1,0.1,0.2,0.2,0.3,0.3c0.1,0.1,0.2,0.2,0.2,0.4l0.1,0.1c0.2,0.3,0.4,0.6,0.7,0.8c0.2,0.1,0.3,0.3,0.4,0.4
	c0.3,0.4,0.6,0.8,0.9,1.2c0.2,0.4,0.5,0.7,0.8,1l0.3,0.3c0.1,0.1,0.2,0.2,0.3,0.4C47.7,49.1,47.2,48.6,46.8,48.1z M41.3,61.7
	L41.3,61.7L41.3,61.7L41.3,61.7z M41.1,61.2C41.1,61.2,41.1,61.1,41.1,61.2c0.1-0.1,0.1-0.1,0.1-0.1L41.1,61.2
	C41.2,61.2,41.2,61.2,41.1,61.2L41.1,61.2L41.1,61.2z M40.9,61.7c0-0.1,0-0.1,0-0.2c0-0.1,0-0.1,0-0.1l0,0l0,0l0,0.1l0.1,0.2
	C41.1,61.8,41,61.8,40.9,61.7C41,61.8,40.9,61.7,40.9,61.7L40.9,61.7z M39,102.3c-0.1,0-0.2,0-0.3-0.1c0-0.1,0.1-0.1,0.1-0.1
	c0,0,0.1,0,0.2,0c0,0,0.1,0,0.1,0l0,0.1C39.1,102.2,39.1,102.3,39,102.3L39,102.3z M24.4,88.4L24.4,88.4l-0.1,0
	C24.4,88.3,24.4,88.3,24.4,88.4L24.4,88.4z M26,90.7C26,90.7,26,90.6,26,90.7L26,90.7C26,90.7,26,90.7,26,90.7L26,90.7z M26.1,90.9
	L26.1,90.9L26.1,90.9L26.1,90.9z M28.4,93l-0.1,0c-0.1,0-0.1,0-0.2,0l-0.2-0.1l0.1,0c0-0.1,0-0.2,0.1-0.3c0-0.1,0.1-0.2,0.1-0.3
	c0-0.1-0.1-0.2-0.1-0.2c-0.1-0.1-0.2-0.2-0.3-0.3c0,0-0.1-0.1-0.1-0.1c-0.2-0.2-0.4-0.2-0.6-0.3c-0.1-0.1-0.2-0.1-0.3-0.1
	c-0.1,0-0.1,0-0.2,0c0,0-0.1,0-0.1,0c0.1,0,0.1-0.1,0.2-0.1c0.1-0.1,0.1-0.2,0-0.3c0-0.2-0.2-0.3-0.4-0.4l-0.1,0
	c-0.3-0.2-0.5-0.4-0.8-0.7l0.1,0.1c0.2,0.1,0.4,0.3,0.6,0.4c0.5,0.4,1,0.8,1.4,1.3l0.5,0.5l0.1-0.4c0,0.3,0,0.6,0.2,0.8
	c0.1,0.1,0.2,0.2,0.3,0.2c0.1,0,0.1,0.1,0.2,0.1l0,0l0,0l-0.1,0.2l0.1,0.1l0,0C28.6,92.9,28.5,92.9,28.4,93L28.4,93z M48.5,108
	l0.2-0.2L48.5,108C48.5,108.1,48.5,108,48.5,108L48.5,108z M48.3,108.1L48.3,108.1L48.3,108.1l-0.1,0v-0.3l0.1,0
	c0,0,0.1,0.1,0.1,0.1C48.4,108,48.4,108.1,48.3,108.1L48.3,108.1z M48.5,106.5c-0.1,0.3-0.2,0.6-0.3,0.9v-0.5
	C48.3,106.8,48.4,106.7,48.5,106.5L48.5,106.5z M61,139.7V139c0.3-0.1,0.5,0,0.5,0.4C61.4,139.7,61.3,139.8,61,139.7L61,139.7z
	 M66,135.4c-0.3,0-0.5-0.2-0.4-0.6c0.2-0.1,0.4-0.1,0.6,0c0.1,0.1,0.2,0.1,0.4,0.2C66.6,135.3,66.4,135.4,66,135.4L66,135.4z
	 M123.2,123.6c0-0.3-0.1-0.5-0.2-0.6c-0.2-0.1-0.3-0.2-0.5-0.3c0.1-0.4,0.4-0.5,1-0.5c0.4,0,0.9,0.1,1.3,0.2
	C124.3,122.9,123.8,123.3,123.2,123.6L123.2,123.6z M145,74.2c0.3,0,0.5,0.1,0.5,0.4s-0.1,0.5-0.4,0.5s-0.5-0.1-0.5-0.4
	c0,0,0-0.1,0-0.1C144.7,74.3,144.8,74.2,145,74.2L145,74.2z M145,93.8c-0.2,0.3-0.4,0.6-0.4,0.9c-0.2-0.2-0.3-0.4-0.3-0.6
	c0-0.2,0.1-0.5,0.2-0.7c0.1-0.2,0.3-0.4,0.5-0.5c0.2-0.1,0.4-0.1,0.5,0.1C145.4,93.4,145.2,93.6,145,93.8L145,93.8z M146.3,89.2
	c-0.5,0.2-1.1,0.2-1.6,0c-0.1-0.5,0.1-0.8,0.4-1c0.3-0.1,0.6-0.3,0.8-0.6c0.2-0.1,0.3,0,0.4,0.1c0.1,0.1,0.1,0.3,0.1,0.4
	c0,0.2,0,0.4,0,0.6C146.2,88.9,146.2,89.1,146.3,89.2L146.3,89.2z M146.3,78.6c-0.1,0.4-0.1,0.8,0,1.1c0,0.4-0.1,0.6-0.4,0.7
	c-0.3,0-0.5-0.1-0.5-0.3c-0.1-0.2-0.1-0.5-0.2-0.8c-0.2-0.1-0.4-0.3-0.6-0.5c-0.2-0.2-0.4-0.3-0.7-0.3c0.1-0.3,0.2-0.7,0.3-1
	c0.1-0.4,0.2-0.7,0.4-1c0.3,0,0.6,0.1,0.8,0.2c0.2,0.2,0.5,0.2,1,0.1c0.1,0.2,0.1,0.5,0.2,0.9C146.6,78.1,146.5,78.4,146.3,78.6
	L146.3,78.6z"/>
<path class="st0" d="M380,68.7c-0.1-0.7-0.3-1.5-0.7-2.1c0.1-0.3,0.2-0.6,0.1-0.9c-0.1-0.2-0.2-0.4-0.3-0.6
	c-0.2-0.2-0.5-0.3-0.8-0.2c-0.3,0-0.7,0-1,0c-0.1-0.2-0.2-0.4-0.3-0.6c-0.1-0.2-0.3-0.3-0.6-0.3h-2.5c-0.1,0.4,0,0.5,0.3,0.5
	c0.2-0.1,0.5,0,0.6,0.2c-0.1,0.3,0,0.5,0.2,0.6c0.2,0.1,0.3,0.3,0.5,0.5c0.1,0.4,0,0.7-0.3,0.7c-0.3,0-0.4,0.3-0.4,0.7
	c0,0.4,0,0.8,0.1,1.1c0.1,0.3-0.1,0.5-0.6,0.6c-0.4,0-0.6-0.3-0.4-0.8c0-0.1,0-0.2-0.1-0.2c-0.1,0-0.2,0-0.3,0c-0.1,0-0.2,0-0.3-0.1
	c-0.1-0.1-0.1-0.2,0-0.4c0.1-0.2,0.3-0.3,0.5-0.3c0.2,0,0.3-0.2,0.2-0.6c0-0.2-0.1-0.3-0.4-0.2c-0.2,0-0.3-0.1-0.3-0.4
	c0-0.3,0-0.6,0-0.8c0-0.2-0.1-0.4-0.2-0.6c-0.5,0.2-1.1,0.3-1.7,0.3c-0.5,0-1,0.1-1.4,0.5c-0.1-0.3-0.4-0.5-0.7-0.5
	c-0.1-0.1-0.2-0.3-0.2-0.5c0-0.2-0.2-0.3-0.4-0.2c-0.5-0.1-1.1-0.1-1.6,0.2c-0.5,0.2-1,0.4-1.5,0.5c-1,0.2-2,0.2-2.9,0.1
	c-0.9-0.2-1.8-0.1-2.7,0.1c0,0.3,0.1,0.6,0.4,0.7c0.3,0.1,0.1,0.3-0.4,0.5c-0.5,0.3-1.2,0.3-1.7,0c-0.5-0.3-1.1-0.6-1.6-0.7
	c-0.2,0.1-0.5,0.2-0.7,0.3c-0.3,0.1-0.6,0.2-0.9,0.1c-0.2,0-0.4-0.2-0.4-0.5c0,0,0-0.1,0-0.1c0.1-0.3-0.1-0.4-0.4-0.3
	c-0.4,0.1-0.9,0-1.3-0.1c-0.3-0.1-0.7-0.2-1.2-0.4c0,0.3-0.2,0.3-0.5,0.3c-0.3-0.1-0.5,0-0.6,0.2c-0.2,0.1-0.3,0.3-0.5,0.4
	c-0.2,0.2-0.4,0.2-0.9,0c-0.3-0.4-0.8-0.6-1.3-0.6c-0.3,0-0.7,0-1,0.2c-0.4,0.1-0.7,0.1-1.1,0c-0.2,0.1-0.4,0.3-0.4,0.7
	c-0.3,0-0.6,0-0.9,0.2c-0.5,0.1-1,0.1-1.4-0.1c-0.4-0.2-0.9-0.2-1.3-0.1c-0.3,0.2-0.6,0.4-0.7,0.7c-0.2,0.3-0.6,0.5-1,0.5
	c-0.4,0-0.5-0.2-0.5-0.6s-0.2-0.6-0.6-0.5c-0.5-0.1-1-0.1-1.5-0.2c-0.5-0.1-1-0.2-1.5-0.3c-0.4,0.2-0.8,0.5-1.1,0.7
	c-0.5,0.3-1,0.4-1.5,0.4c-0.6-0.2-0.8-0.7-0.6-1.6c-0.4,0-0.7,0.1-1,0.3c-0.3,0.2-0.7,0.2-1.1,0.1c-0.5-0.2-1-0.4-1.5-0.5
	c-0.6-0.2-1.1-0.3-1.7-0.4c-0.1,0-0.2,0-0.2,0.1c-0.1,0.1-0.1,0.1-0.2,0.2c-0.4,0.1-0.9,0.2-1.3,0.1c-0.4,0-0.8-0.1-1.1-0.1
	c-0.5-0.1-1.1-0.1-1.6-0.1c-0.4,0.1-0.9,0.1-1.3,0.1c-0.3,0-0.6,0-0.9-0.1c-0.3-0.1-0.6-0.1-0.9-0.1c-0.2,0-0.4,0-0.6,0.1
	c-0.2,0.1-0.5,0.1-0.7,0.2c-1,0.1-2.1,0.2-3.1,0.1c-1-0.1-2,0-2.9,0.1c-0.2,0.1-0.4,0.2-0.6,0.3c-0.1,0.1-0.2,0.2-0.4,0.2
	c-0.1,0.1-0.2,0.1-0.3,0c-0.1,0-0.2,0-0.3,0c-0.3,0.1-0.6,0.2-0.9,0.3c-0.3,0.1-0.6,0.1-0.9,0.1c-0.4-0.3-0.7-0.6-1.1-0.9
	c-0.5-0.3-1.1-0.4-1.6-0.2c-0.3,0.3-0.6,0.6-0.9,0.9c-0.4,0.3-0.8,0.5-1.3,0.5c-0.3-0.2-0.6-0.4-0.8-0.8c-0.2-0.4-0.6-0.6-1-0.6
	c-0.7,0.1-1.4,0-2-0.1c-0.5-0.1-1.1-0.3-1.5-0.6c-0.8,0.1-1.6,0-2.4-0.1c-0.9-0.1-1.7-0.2-2.5-0.2c-0.7,0-1.5,0-2.2,0
	c-0.7,0-1.3,0.3-1.9,0.6c-0.6,0-1.3,0.1-1.9,0.2c0,0-0.1,0-0.1,0c-0.1-0.1-0.3-0.1-0.5,0c-0.7-0.1-1.5-0.1-2.2,0
	c-0.7,0-1.4,0.1-2.1,0.2c-0.3,0-0.5-0.1-0.5-0.4c0-0.2,0-0.4-0.2-0.5c-0.2-0.1-0.4-0.2-0.6-0.1c-0.2,0-0.5-0.1-0.5-0.3
	c-0.4,0-0.8,0.1-1.2,0.2c-0.4,0.2-0.9,0.2-1.3,0c0,0.2-0.2,0.3-0.5,0.2c-0.3,0-0.3,0.1-0.3,0.3c0,0.2-0.1,0.3-0.3,0.4
	c-0.4-0.1-0.9,0-1.2,0.3c-0.2,0.3-0.6,0.5-1,0.6c-0.3-0.3-0.6-0.4-1-0.3c-0.4,0-0.7,0-1.1-0.1c-0.3-0.2-0.6-0.3-0.9-0.4
	c-0.4-0.1-0.7-0.1-1.1-0.1c-0.3,0-0.7,0.1-1,0.3c-0.2,0.2-0.5,0.3-0.8,0.4c-0.1-0.4-0.4-0.6-0.8-0.6c-0.4,0-0.7-0.1-1-0.3
	c-0.1-0.5-0.4-0.9-0.8-1.1c-0.4-0.2-0.8-0.5-1-0.9c-0.4-0.7-0.8-1.3-1.2-1.9c-0.4-0.6-0.9-1.2-1.3-1.9c-0.1-0.5-0.1-0.9-0.2-1.4
	c-0.1-0.5-0.1-1,0-1.5c-0.6-0.2-0.9-1-0.7-2.2c-0.3-0.2-0.6-0.4-0.9-0.6c-0.3-0.1-0.3-0.6-0.2-1.2c-0.5,0-0.9-0.3-1.2-0.7
	c-0.3-0.4-0.8-0.7-1.3-0.6c-0.2-0.5-0.5-0.9-0.9-1.1c-0.4-0.3-0.9-0.6-1.3-0.9c0-0.5-0.4-1-0.9-1.2c-0.5-0.1-0.8-0.5-1-1
	c0.1-0.4,0.1-0.6-0.1-0.7c-0.2-0.1-0.3-0.3-0.1-0.6c-0.3,0.1-0.5,0.1-0.6-0.1c-0.1-0.2-0.3-0.2-0.6-0.2c-0.1-0.6-0.3-1.1-0.7-1.5
	c-0.6-0.3-1.2-0.6-1.7-1.1c-0.5-0.4-1.2-0.7-1.8-0.9c-0.3-0.5-0.6-0.9-1-1.3c-0.4-0.4-0.7-0.8-1-1.2c-0.3-0.1-0.6-0.1-0.9,0
	c-0.3,0.1-0.5,0-0.5-0.2c-0.1-0.4-0.2-0.7-0.3-1c-0.1-0.3-0.2-0.6-0.3-1c-0.4-0.1-0.8-0.3-1.2-0.6c-0.3-0.3-0.6-0.5-0.9-0.8
	c-0.2-0.1-0.3-0.2-0.4-0.3c-0.1-0.1-0.3-0.2-0.4-0.3c-0.4-0.2-0.7-0.5-0.9-0.9c-0.5,0.1-1.1,0-1.5-0.3c-0.4-0.3-0.9-0.4-1.4-0.5
	c-0.2-0.4-0.3-0.8-0.3-1.3c-0.4,0.1-0.8-0.1-0.9-0.5c-0.1-0.4-0.5-0.6-0.8-0.7c-0.3-0.2-0.5-0.4-0.7-0.7c-0.2-0.3-0.4-0.6-0.6-0.9
	c-0.7,0-1.4-0.2-2-0.7c-0.7-0.4-1.5-0.6-2.3-0.4c-0.3-0.3-0.6-0.6-0.9-1c-0.4-0.4-1-0.5-1.6-0.4c0-0.3-0.2-0.6-0.5-0.7
	c-0.2-0.1-0.5-0.2-0.8-0.4c-0.5-0.5-1.3-0.8-2-0.7c-0.1-0.2-0.4-0.3-0.6-0.4c-0.2-0.1-0.4-0.2-0.6-0.4H222c-0.3-0.5-0.7-0.9-1.2-1.2
	c-0.5-0.3-1-0.7-1.5-1.1c-0.5,0.1-1,0.1-1.5-0.1c-0.5-0.2-1-0.3-1.5-0.2c-0.1-0.1-0.2-0.2-0.3-0.3c-0.1-0.1-0.2-0.2-0.3-0.3
	c-0.1-0.3-0.2-0.3-0.4-0.3c-0.2,0-0.3-0.1-0.3-0.3c-0.4-0.1-0.8-0.3-1.2-0.4c-0.3-0.1-0.6-0.3-0.8-0.7h-1.5c-0.3,0-0.5-0.2-0.5-0.5
	c-0.1-0.3-0.3-0.3-0.6-0.3c-0.3,0.1-0.7,0-1-0.1c-0.2-0.1-0.5-0.1-0.8,0.1c-0.3-0.3-0.6-0.5-0.9-0.7c-0.3-0.2-0.7-0.4-1.1-0.4h-2.7
	c-0.4-0.2-0.8-0.4-1.4-0.6c-0.5-0.2-1.1-0.4-1.7-0.5c-0.5-0.1-1.1-0.1-1.6,0c-0.4,0-0.8,0.3-1.1,0.6c-0.3,0-0.5,0.2-0.6,0.5
	c-0.1,0.2-0.3,0.3-0.8,0.2c0.1-0.4,0.1-0.7-0.2-0.7c-0.2-0.1-0.4-0.2-0.5-0.4c-0.6,0.2-0.9,0.1-1.1-0.1c-0.1-0.2-0.3-0.4-0.5-0.5
	c-0.1-0.1-0.3-0.2-0.4-0.1c-0.2,0.1-0.2,0-0.2-0.2h-2.5c0-0.2-0.1-0.3-0.3-0.2c-0.4,0.2-0.8,0.3-1.2,0.2c-0.4,0-0.9,0-1.3,0.2h-2
	c-0.3,0-0.6,0.2-0.7,0.5c-0.2,0.2-0.5,0.3-1.1,0.2c-0.5-0.1-1-0.2-1.4-0.3c-0.5-0.1-0.9-0.2-1.4-0.3c-0.1,0.4-0.4,0.6-0.8,0.7
	c-0.4,0.1-0.7,0.3-0.9,0.6c-0.2,0.1-0.4,0.2-0.6,0.2c-0.2,0-0.4,0.1-0.6,0.2c-0.3,0.2-0.5,0.4-0.7,0.7c-0.3-0.1-0.6,0-0.8,0.1
	c-0.3,0.2-0.7,0.2-1,0.1c-0.2,0.5-0.7,0.7-1.5,0.7c-0.1,0.1-0.2,0.3-0.2,0.5c0,0.2-0.2,0.3-0.4,0.3h-1.4c-0.3,0.2-0.5,0.4-0.7,0.5
	c-0.3,0.2-0.6,0.3-0.9,0.4c-0.1,0.2-0.2,0.4-0.3,0.5c-0.1,0.1-0.2,0.2-0.3,0.4c-0.1,0.1-0.2,0.2-0.3,0.1c-0.1,0-0.1,0-0.2,0
	c-0.2,0.2-0.4,0.4-0.5,0.6c-0.2,0.3-0.4,0.4-0.7,0.5c-0.3,0.2-0.7,0.3-1.1,0.2c0.1,0.4,0.1,0.5-0.2,0.5c-0.2,0-0.4,0.1-0.5,0.4
	c-0.2,0-0.4,0.2-0.4,0.5c0,0.3-0.2,0.3-0.5,0.2c-0.5,1.1-1.1,2.2-1.5,3.3c-0.4,1.1-1.1,2-2,2.8c0,0.5,0,1-0.1,1.4
	c-0.1,0.4-0.2,0.8-0.3,1.2c-0.1,0.4-0.2,0.8-0.3,1.2c-0.1,0.5-0.1,1,0,1.6c0.4,0.7,0.7,1.4,0.9,2.2c-0.2,0.7-0.3,1.3-0.2,2
	c0,0.5,0.2,0.9,0.5,1.2c0.3,0.3,0.5,0.8,0.5,1.2c0.3,0,0.5,0.1,0.7,0.2c0.3,0.1,0.6,0.1,0.8,0c0.1,0.3,0.3,0.6,0.4,0.9
	c0.2,0.3,0.3,0.6,0.5,0.9c0.8,0.3,1.4,0.9,1.8,1.6c0.5-0.1,1,0,1.5,0.3c0.4,0.2,0.8,0.5,1.2,0.6c0.4,0.2,0.8,0.4,1.2,0.6
	c0.4,0.2,0.8,0.6,1.1,0.9c0.3-0.1,0.6-0.1,0.8,0c0.2,0.1,0.5,0.2,0.7,0.2c0,0.5,0.2,0.8,0.5,0.8c0.4,0.1,0.6,0.3,0.6,0.7
	c0.3,0,0.6,0,0.9,0.1c0.3,0.1,0.5,0.3,0.5,0.6c0.4-0.1,0.7-0.1,0.9,0.1c0.2,0.2,0.5,0.2,0.9,0.1c0.3,0.1,0.5,0.3,0.6,0.5
	c0.1,0.2,0.3,0.4,0.7,0.4h2.5c0.1,0.3,0.2,0.5,0.4,0.7c0.1,0.2,0.3,0.4,0.4,0.7c0.3,0,0.7,0.1,1,0.3c0.2,0.2,0.4,0.4,0.6,0.6
	c0.7,0,1.4,0.1,2,0.5c0.6,0.4,1.3,0.5,2,0.3c0.2,0.4,0.5,0.7,0.9,0.9c0.4,0.2,0.8,0.4,1.1,0.7c2.3,0.1,4.6,0.2,6.8,0.1
	c2.2,0,4.4,0,6.5,0c0.4,0,0.8-0.2,1-0.5c0.2-0.3,0.6-0.5,1-0.4c0.2-0.1,0.4-0.1,0.6,0c0.2,0.1,0.3,0.2,0.4,0.4
	c0.1,0.1,0.2,0.3,0.3,0.4c0.2,0.1,0.4,0.1,0.5,0.1h1.8c0.3,0.1,0.5,0.3,0.5,0.6c0,0.2,0.3,0.3,0.8,0.2c0.2,0,0.4,0,0.5-0.1
	c0.1-0.1,0.2-0.2,0.3-0.3c0.1-0.1,0.2-0.2,0.3-0.3c0.2-0.1,0.3-0.1,0.5-0.1c0.2,0,0.4,0,0.6-0.2c0.1-0.2,0.3-0.3,0.5-0.3
	c0.1,0.2,0.4,0.3,0.8,0.2c0.3,0,0.7,0,1,0.1c0.4-0.2,0.7-0.5,1-0.8c0.3-0.3,0.8-0.5,1.2-0.6c0.3,0,0.7,0.1,1,0.2
	c0.3,0.2,0.5,0.3,0.8,0.4c0.5,0,0.9,0,1.4,0c0.4,0,0.8,0.2,1.1,0.4c0.4-0.3,0.8-0.5,1.2-0.6c0.5-0.2,1-0.1,1.5,0.1
	c0.2,0.5,0.4,1.1,0.3,1.6c0,0.5-0.1,1.1-0.1,1.7c0,0.7,0,1.3,0.1,1.7c0,0.4,0,0.8-0.1,1.2c-0.1,0.1-0.1,0.2,0,0.4c0,0.1,0,0.2,0,0.4
	c0,0.4,0,0.8,0,1.1c-0.4,0-0.8,0-1.3-0.1c-0.4,0-0.8,0.2-1.2,0.3c-0.4,0.2-0.8,0.3-1.2,0.3c-1-0.2-2-0.2-2.9,0
	c-0.8,0.1-1.7,0.3-2.5,0.7c-0.8-0.8-1.8-1.2-2.9-1.3c-0.4,0-0.8,0.1-1.2,0.3c-0.4,0.2-0.8,0.3-1.2,0.4c-0.6-0.1-1.3-0.2-2-0.1
	c-0.6,0-1.2,0.1-1.7,0.1c-1,0.1-2.1,0.1-3,0.1c-1,0-2,0-3-0.1c-1.1-0.1-2.1-0.1-3.2,0c-0.4,0-0.9,0-1.3-0.1
	c-0.5-0.1-0.9-0.1-1.4-0.1c-0.4-0.1-0.7,0-1.1,0c-0.4,0.1-0.8,0.1-1.2,0.1c-1.2,0.1-2.5,0.1-3.7,0c-1.1-0.1-2.1-0.1-3.2,0
	c-0.5,0.1-1,0.1-1.5,0c-0.5-0.1-1-0.1-1.5,0c0,0.2-0.1,0.3-0.3,0.2c-0.2,0-0.3,0-0.3,0.2c-0.2,0-0.3,0.2-0.3,0.4
	c0,0.2-0.2,0.2-0.6,0.1c-0.5,0.1-0.8,0-0.8-0.3c-0.1-0.3-0.3-0.5-0.7-0.4c-0.3,0-0.7-0.1-1-0.2c-0.3-0.2-0.5-0.3-0.8-0.4
	c-1.5,0.1-3.1,0.3-4.9,0.5c-1.6,0.2-3.2,0.1-4.7-0.5c-0.6,0.3-1.3,0.5-2.1,0.5c-0.7,0-1.5,0.1-2.2,0.2c-0.5-0.2-1-0.4-1.4-0.8
	c-0.7,0.2-1.5,0.1-2.1-0.3c-0.5-0.3-1.1-0.5-1.7-0.6c-0.7-0.1-1.3,0-1.9,0.3c-0.5,0.3-1.1,0.5-1.6,0.6c-0.1,0.7-0.2,1.3-0.3,1.9
	c-0.1,0.6-0.3,1.1-0.6,1.6c0,0.7-0.1,1.5-0.2,2.2c-0.1,0.8-0.1,1.5,0,2.3c-0.1,0.4,0.2,0.7,0.5,0.7c0,0,0,0,0,0
	c0.4,0.1,0.5,0.3,0.4,0.8c0.1,0.5-0.1,0.9-0.4,1c-0.3,0.1-0.4,0.4-0.4,0.9c-0.1,0.4,0.1,0.7,0.4,0.7c0.3,0,0.4,0.3,0.4,0.7
	c-0.1,0.4-0.1,0.6,0,0.8c0.2,0.2,0.2,0.5,0.1,0.8c-0.1,0.5,0,0.7,0.2,0.7c0.3,0,0.4,0.1,0.4,0.4c0.5,0,1-0.3,1.4-0.6
	c0.4-0.4,0.8-0.6,1.3-0.7c0.3-0.1,0.6-0.1,0.9,0c0.4,0.1,0.8,0.1,1.1,0c0.2,0.2,0.5,0.4,0.7,0.6c0.2,0.2,0.4,0.5,0.4,0.8
	c0.2,0.3,0.6,0.5,0.9,0.5c0.3,0,0.6,0.3,0.7,0.6c-0.1,0.4,0,0.8,0.1,1.1c0.1,0.3,0.2,0.7,0.3,1c0.3,0.1,0.6,0.2,0.9,0.3
	c0.4,0.1,0.7,0.1,1.1,0.1c0.3,0.4,0.7,0.6,1.2,0.8c0.5,0.1,0.8,0.6,0.9,1c0.6-0.1,1,0,1.1,0.3c0.1,0.3,0.5,0.4,1,0.4
	c-0.1,0.3-0.1,0.5,0.1,0.5c0.2,0,0.3,0.2,0.3,0.4c0,0,0,0,0,0c0.4,0,0.7,0.1,1,0.4c0.3,0.3,0.6,0.4,1,0.3c0,0.2,0.2,0.4,0.3,0.5
	c0.1,0.1,0.3,0.2,0.4,0.4c0.2,0.4,0.6,0.7,0.9,0.9c0.3-0.1,0.4,0.1,0.4,0.4c-0.1,0.3,0.1,0.4,0.5,0.3c0.2,0.1,0.3,0.3,0.4,0.5
	c0.1,0.2,0.3,0.4,0.6,0.4c0.5,0.2,1,0.5,1.4,0.7c0.6,0.2,1.2,0.3,1.8,0.2c0.6,0.7,1.1,1.5,1.4,2.4c0.4,1.1,0.5,2.3,0.3,3.4
	c-0.3,0.4-0.6,0.9-0.7,1.4c-0.2,0.6-0.3,1.3-0.2,2c-0.5,0.1-0.8,0.4-1,0.9c-0.2,0.5-0.6,0.8-1,0.9h-2c-0.3,0.1-0.4,0.4-0.5,0.6
	c-0.1,0.3-0.4,0.4-0.9,0.3c-0.2,0.2-0.3,0.6-0.2,0.9c0,0.4-0.1,0.6-0.4,0.7c-0.4,0.1-0.7,0.2-1.1,0.3c-0.4,0.1-0.8,0.1-1.2,0.2
	c-0.1,0.2-0.2,0.4-0.4,0.4c-0.2,0-0.3,0-0.5,0.1c-0.3,0.1-0.6,0.4-0.8,0.7c-0.2,0.3-0.6,0.4-1.1,0.2c-0.3,0.5-0.7,0.9-1.1,1.3
	c-0.5,0.4-0.9,0.8-1.3,1.1c-0.8-0.1-1.3,0-1.5,0.4c-0.3,0.4-0.7,0.7-1.2,0.7c-0.1,0.3-0.2,0.6-0.2,0.9c0,0.3-0.1,0.6-0.2,0.9
	c-0.2,0.3-0.5,0.4-0.8,0.4c-0.3,0-0.5,0.2-0.5,0.4c0,0,0,0.1,0,0.1c-0.3,0.1-0.4,0.4-0.3,0.8c0.1,0.3,0.1,0.7,0,1.1
	c-0.3,0-0.6,0.1-0.8,0.4c-0.2,0.2-0.3,0.5-0.5,0.7c-0.3,0.2-0.5,0.4-0.6,0.8c-0.1,0.3-0.3,0.6-0.6,0.8c-0.1,0.8-0.1,1.6-0.1,2.5
	c0.1,0.6,0.1,1.4,0.1,2.5c0.1,0.3,0.3,0.6,0.6,0.8c0.3,0.3,0.4,0.7,0.3,1.1c0.5-0.1,0.8,0.1,0.6,0.6c0.4,0.1,0.7,0.4,0.9,0.7
	c0.1,0.5,0.3,0.8,0.5,0.8c0.3,0,0.4,0.2,0.3,0.5c-0.1,0.2-0.1,0.5,0,0.7c0.6,0.3,1.1,0.7,1.6,1.1c0.5,0.4,1,0.8,1.6,1.1
	c0.1,0.4,0.3,0.8,0.6,1.1c0.3,0.2,0.5,0.6,0.6,0.9c0.2,0,0.5,0.1,0.6,0.2c0.1,0.2,0.2,0.3,0.3,0.5c0.4,0,0.7,0,1,0.2
	c0.3,0.1,0.5,0.3,0.8,0.4c0.3,0.2,0.5,0.3,0.8,0.4c0.4,0.1,0.8,0.2,1.1,0.1l1.6,1.4c0.4,0.1,0.8,0.2,1.2,0.4
	c0.4,0.1,0.7,0.4,0.8,0.7c0.4-0.1,0.6-0.1,0.8,0.1c0.2,0.2,0.4,0.2,0.8,0.1c-0.1,0.4,0.1,0.5,0.5,0.4c0.4-0.1,0.6,0,0.6,0.3h2
	c0.7,0.9,1.8,1.4,2.9,1.4c1.3,0.1,2.6,0.2,3.8,0.3c0,0.4,0.3,0.8,0.6,0.9c0.4,0.1,0.6,0.4,0.7,0.7c0.3-0.1,0.6-0.1,1,0
	c0.3,0.1,0.6,0.1,0.9,0.2c0,0.2,0.1,0.3,0.2,0.3c0.2,0,0.3,0.1,0.4,0.2c-0.1,0.5,0.1,0.8,0.6,0.6c1.1,0,2.3,0.1,3.3,0.5
	c0.9,0.4,1.7,0.9,2.3,1.5h1.7c-0.1,0.3,0,0.5,0.2,0.5c0.2,0,0.4,0.1,0.5,0.3c0.6-0.1,1.2,0.2,1.5,0.7c0.3-0.1,0.7-0.1,1,0
	c0.3,0.1,0.5,0.2,0.8,0.4c0.3,0.2,0.5,0.3,0.7,0.4c0.3,0.1,0.7,0.2,1,0.1c0.1,0.3,0.3,0.5,0.4,0.7c0.2,0.2,0.4,0.4,0.7,0.6
	c0.3,0,0.6,0.1,0.8,0.3c0.1,0.2,0.5,0.3,0.9,0.1c0.3,0.6,0.8,1,1.4,1.2c0.6,0.2,1.1,0.7,1.4,1.2c0.5-0.1,1.1,0.1,1.5,0.5
	c0.4,0.4,1,0.6,1.6,0.5c0.2,0.2,0.4,0.4,0.6,0.6c0.1,0.2,0.5,0.3,1,0.3c-0.1,0.2,0,0.4,0.1,0.5c0.1,0.1,0.3,0.2,0.5,0.2
	c0.2,0.1,0.3,0.1,0.5,0.2c0.1,0.1,0.2,0.2,0.2,0.5c0.6,0.2,1.2,0.5,1.6,0.9c0.4,0.4,1,0.7,1.6,0.8c0.3,0.5,0.7,1,1.1,1.4
	c0.5,0.4,0.9,0.8,1.1,1.4c0.3,0.1,0.5,0.3,0.7,0.5c0.2,0.3,0.4,0.4,0.7,0.5c0.2,0.3,0.4,0.5,0.8,0.6c0.3,0.1,0.5,0.4,0.5,0.8
	c0.4,0,0.8,0.1,1.2,0.3c0.3,0.2,0.6,0.4,0.8,0.6c0.2,0.2,0.5,0.4,0.8,0.6c0.3,0.2,0.7,0.4,1,0.4c0.1,0.4,0.4,0.7,0.7,0.9
	c0.3,0.2,0.7,0.4,1,0.7c0.3,0,0.5,0.1,0.5,0.3c0,0.2,0.2,0.4,0.3,0.5c0.4,0,0.5,0.2,0.5,0.5c0,0.1,0.1,0.2,0.1,0.2c0,0,0,0,0,0
	c0.1,0,0.2,0.1,0.3,0.2c0.3-0.1,0.7,0,1,0.1c0.3,0.1,0.7,0.2,1,0.2c0.3,0,0.7-0.1,1-0.1c0.3-0.1,0.6-0.2,0.8-0.3
	c0.1-0.1,0.1-0.2,0-0.2c-0.1-0.1-0.1-0.2,0-0.2c0.1-0.1,0.1-0.1,0.2,0c0.1,0.1,0.2,0.1,0.2,0c0.1-0.1,0.1-0.2,0-0.3
	c0-0.1,0-0.2,0.1-0.2c0.1-0.7,0-1.4-0.2-2c-0.4-0.1-0.7-0.3-0.7-0.6c0-0.3-0.1-0.7-0.2-1c-0.3,0.1-0.6,0-0.8-0.1
	c-0.2-0.2-0.4-0.3-0.6-0.3c-0.1-0.4-0.3-0.8-0.6-1.1c-0.3-0.3-0.6-0.6-0.9-0.9c-0.3-0.3-0.6-0.6-0.9-0.9c-0.3-0.3-0.5-0.7-0.7-1.1
	c-0.7-0.3-1.4-0.7-2-1.2c-0.1-0.3-0.2-0.6-0.4-0.8c-0.2-0.2-0.3-0.5-0.5-0.7c-0.2-0.9-0.4-1.7-0.7-2.6c-0.3-0.9-0.4-1.9-0.4-2.8
	c-0.4-0.4-0.7-1-0.7-1.5v-1.8c-0.3-0.3-0.5-0.6-0.5-1c-0.1-0.5-0.2-0.9-0.3-1.4c0.1-0.3,0.2-0.5,0.4-0.8c0.2-0.3,0.3-0.6,0.3-1
	c0-0.3-0.2-0.5-0.3-0.7c-0.2-0.2-0.3-0.3-0.5-0.5c-0.2-0.2-0.3-0.4-0.5-0.6c-0.1-0.3-0.2-0.6-0.1-0.9c0-0.2,0.2-0.4,0.3-0.6
	c0.2-0.2,0.3-0.3,0.4-0.5c0.3,0,0.6,0,0.8-0.1c0.3-0.1,0.3-0.3,0.3-0.6c0.1-0.5-0.2-1-0.6-1.3c-0.4-0.2-0.7-0.7-0.8-1.1
	c-0.1-0.2-0.3-0.4-0.5-0.5c-0.2-0.2-0.3-0.3-0.5-0.5c-0.1-0.2-0.2-0.4-0.3-0.6c0-0.3,0.1-0.6,0.3-0.8c0.4,0.2,0.7,0.4,1,0.6
	c0.3,0.3,0.7,0.3,1,0.1c0.2-0.5,0.3-1.1,0.2-1.7c-0.1-0.6-0.1-1.1,0-1.7c0-0.3-0.2-0.6-0.5-0.8c-0.3-0.2-0.4-0.5-0.4-0.8
	c0.5-1.1,0.6-2.2,0.5-3.4c0-0.4-0.2-0.7-0.6-0.9c-0.3-0.1-0.4-0.5-0.4-0.9c0-0.5,0.1-1.1,0.4-1.5c0.3-0.5,0.4-1.1,0.2-1.6
	c0.4-0.3,0.6-0.7,0.7-1.1c0.1-0.4,0.3-0.8,0.6-1.1c-0.3-0.7-0.5-1.4-0.6-2.2c-0.2-0.9-0.2-1.8-0.1-2.7c0-0.2-0.1-0.3-0.2-0.4
	c-0.2-0.1-0.3-0.2-0.4-0.2c-0.1-0.1-0.2-0.1-0.3-0.2c-0.1-0.1-0.2-0.3-0.1-0.5c0.4-0.7,0.6-1.5,0.8-2.3c0.2-0.9,0.2-1.9,0-2.8
	c0-0.3-0.2-0.6-0.4-0.8c-0.2-0.2-0.3-0.5-0.3-0.7c0.3-0.4,0.4-0.9,0.2-1.4c-0.1-0.5-0.2-1-0.2-1.5c0-0.3,0.1-0.7,0.5-0.8
	c0.3-0.1,0.4-0.5,0.2-1c0-0.3-0.1-0.7-0.3-0.9c-0.2-0.2-0.4-0.6-0.3-0.9c0.1-0.3,0.2-0.6,0.4-0.9c0.1-0.3,0.3-0.6,0.5-0.8
	c-0.1-0.8-0.1-1.5,0.1-2.3c0.2-0.7,0.4-1.3,0.5-2c-0.2-0.5-0.4-0.9-0.6-1.3c-0.2-0.4-0.5-0.8-0.7-1.2c0.4-0.2,0.6-0.6,0.5-1.4
	c-0.1-0.2-0.2-0.3-0.2-0.5c0-0.2-0.1-0.4-0.2-0.5c0.3-0.4,0.4-0.9,0.3-1.4c-0.1-0.4-0.2-0.8-0.3-1.3c0.2-0.2,0.4-0.5,0.5-0.9
	c0.1-0.3,0.2-0.6,0.3-1c0.2-0.1,0.4-0.3,0.6-0.5c0.1-0.2,0.2-0.4,0.4-0.6c0.4,0.1,0.6,0,0.6-0.3c0-0.2,0.1-0.4,0.3-0.5
	c0,0,0.1,0,0.1,0c0.1-0.1,0.2-0.2,0.3-0.3c0.7,0,1.4,0.1,2.1,0.2c0.1-0.1,0.3-0.2,0.5-0.2c0.2,0,0.4-0.1,0.6-0.2
	c0.1-0.1,0.3-0.2,0.5-0.3c0.2-0.1,0.4-0.1,0.6-0.1c1.6,0.1,3.3-0.3,4.7-0.9c0.7-0.1,1.4,0,2.1,0c0.1,0.1,0.2,0.3,0.3,0.5
	c0.1,0.3,0.4,0.4,0.7,0.3h3.6c0.1-0.1,0.1-0.1,0.2-0.2c0.6,0,1.3,0.1,1.9,0.2c1.3,0.2,2.7,0.2,4.1,0.1c0.1,0.4,0.2,0.7,0.2,1.1
	c0,0.4,0,0.9,0,1.4c0.2,0.4,0.5,0.8,0.6,1.2c0.2,0.5,0.4,1,0.5,1.5c-0.2,0.4-0.4,0.9-0.4,1.3c0,0.5,0,1.1,0,1.6c0,0.6,0,1.1,0,1.7
	c0,0.6-0.2,1.1-0.4,1.6c0.4,0.5,0.6,1.1,0.6,1.8c0.1,0.7,0.1,1.4,0.3,2.1c-0.1,0.4-0.2,0.8-0.4,1.2c-0.1,0.5-0.2,1-0.1,1.5
	c-0.1,0.3-0.3,0.6-0.4,0.9c-0.2,0.4-0.3,0.7-0.4,1.1c-0.1,1.3-0.1,2.7,0,4c0.1,1.2,0.3,2.4,0.6,3.6c0,0.3-0.1,0.6-0.3,0.8
	c-0.2,0.2-0.3,0.5-0.1,1c-0.1,0.4-0.1,0.8,0.1,1.2c0.2,0.3,0.3,0.6,0.4,1c-0.3,0.2-0.5,0.5-0.5,0.8c0,0.3-0.1,0.7-0.2,1
	c0,1,0,2.1-0.1,3.1c-0.1,1-0.2,1.9-0.3,2.7c0.4,0.7,0.6,1.5,0.5,2.2c0,0.8,0,1.6-0.1,2.2c-0.1,0.8-0.2,1.7-0.1,2.5
	c0,0.8,0,1.6-0.1,2.4c-0.3,0.5-0.5,1.1-0.6,1.7c0,0.5-0.2,1-0.5,1.5c-0.1,0.1-0.1,0.1-0.2,0.1c-0.1,0-0.1,0.1,0,0.3
	c-0.2,1.2-0.2,2.4-0.2,3.6c0.1,1.3,0.1,2.6,0,3.9c0.2,0.3,0.4,0.6,0.5,0.8c0.2,0.3,0.3,0.6,0.4,1c0,0.3-0.1,0.7-0.4,0.8
	c-0.3,0.1-0.4,0.4-0.3,0.9c-0.1,1.9-0.1,3.6-0.1,5.2c0,1.6,0,3.4-0.1,5.4c0.3,0,0.3,0.2,0.2,0.6c0.1,0.2,0.2,0.3,0.4,0.4
	c0.2,0.1,0.3,0.3,0.3,0.5v1.2c0.3,0.2,0.6,0.4,0.8,0.7c0.2,0.3,0.5,0.6,0.8,0.8c-0.1,0.3,0,0.5,0.3,0.7c0.3,0.2,0.3,0.4,0.2,0.9
	c0.6,0.1,1.2,0.5,1.5,1c0.3,0.5,0.8,0.9,1.4,1.1c-0.1,0.4-0.1,0.6,0,0.7c0.1,0.2,0.2,0.4,0.2,0.6c0.3,0,0.6,0.2,0.8,0.4
	c0.2,0.2,0.4,0.4,0.6,0.5c0.3,0.1,0.6,0.3,0.7,0.6c0.1,0.3,0.4,0.5,0.7,0.4c0.4,0.2,0.8,0.3,1.3,0.3c0.2,0.4,0.5,0.7,0.9,0.9
	c0.4,0.2,0.7,0.5,0.8,1c0.6,0,1.2,0.3,1.5,0.7c0.4,0.4,1,0.7,1.5,0.8c0.1,0.5,0.4,0.9,0.9,1.1c0.5,0.2,0.9,0.5,1.1,0.9
	c0.4,0.3,0.8,0.6,1.2,0.9c0.4,0.4,1,0.6,1.5,0.6c0,0.4,0.2,0.5,0.5,0.5c0.1,0.1,0.2,0.3,0.1,0.5c0,0.2,0.1,0.3,0.3,0.4
	c0,0.1,0.1,0.2,0.1,0.2h0.3c0.1,0,0.2,0,0.2,0.1c0.1,0.1,0.1,0.2,0,0.4c0.3,0.2,0.5,0.5,0.6,0.8c0.2,0.3,0.5,0.6,0.9,0.6
	c0.5-0.1,1-0.2,1.6-0.2c0.5,0,1-0.1,1.5-0.2c0.1-0.8,0.4-1.5,0.8-2.2c0.4-0.8,0.6-1.7,0.4-2.6c-0.2-0.4-0.4-0.7-0.8-0.9
	c-0.4-0.3-0.5-0.8-0.4-1.3c-0.5,0.1-0.8-0.1-0.9-0.4c-0.1-0.3-0.4-0.6-0.7-0.7c0.1-0.2,0-0.4-0.1-0.5c-0.1-0.1-0.3-0.2-0.4-0.3
	c-0.1-0.1-0.3-0.2-0.4-0.3c-0.1-0.1-0.2-0.3-0.2-0.5c-0.1-0.3,0-0.6,0-0.8c0.1-0.2,0.2-0.5,0.2-0.7c-0.3-0.3-0.7-0.5-1-0.8
	c-0.4-0.2-0.7-0.5-1-0.8c0-0.4-0.2-0.7-0.5-0.9c-0.2-0.2-0.5-0.4-0.6-0.6c0-0.2,0-0.5-0.2-0.6c-0.1-0.1-0.1-0.4,0-0.7
	c-0.5-0.1-0.9-0.5-0.9-1c0-0.5-0.4-0.9-0.9-1c-0.1-0.5-0.3-1-0.5-1.4c-0.3-0.4-0.5-0.9-0.5-1.4c0.1-0.2,0.2-0.5,0.2-0.8
	c0-0.3,0.1-0.6,0.2-0.9c-0.6-0.8-0.9-1.8-0.7-2.7c0.1-1.2,0.1-2.3,0-3.4c0.1-0.3,0.2-0.7,0.4-1c0.2-0.4,0.3-0.8,0.3-1.2
	c0-0.4-0.2-0.8-0.5-1c-0.3-0.2-0.5-0.5-0.4-1.1c0.2-0.8,0.3-1.5,0.1-2.3c-0.1-0.6-0.3-1.2-0.6-1.8c0.3-0.1,0.5-0.5,0.5-1.3v-5.4
	c-0.5-0.6-0.7-1.3-0.6-2c0-0.7-0.1-1.4-0.5-2.1c0.1-0.2,0.2-0.5,0.3-0.7c0.1-0.3,0.2-0.6,0.1-0.9c-0.4-1.2-0.6-2.4-0.6-3.6
	c0.1-0.5,0.3-0.9,0.5-1.4c0.2-0.6,0.3-1.2,0.1-1.7c0-0.2-0.2-0.4-0.5-0.4c-0.2,0-0.3-0.2-0.2-0.5c0-0.4-0.2-0.8-0.4-1.1
	c-0.2-0.3-0.4-0.6-0.5-0.9v-1.8c-0.1-0.4,0.1-0.7,0.4-0.7c0.3,0,0.4-0.3,0.4-0.7c0.1-0.9,0.3-1.8,0.4-2.6c0.2-0.7,0.4-1.4,0.8-2.1
	c-0.3-0.9-0.4-1.8-0.3-2.7c0.1-1,0.2-2,0.3-2.9c-0.3-0.6-0.5-1.3-0.4-2c0-0.8,0-1.7,0-2.5c0.1-0.4,0-0.6-0.3-0.7
	c-0.3,0-0.4-0.3-0.4-0.7c-0.1-0.3,0-0.6,0.1-0.8c0.1-0.2,0.2-0.5,0.2-0.7c-0.2-0.1-0.4-0.1-0.7-0.1c-0.2,0-0.4-0.1-0.5-0.3
	c0.1-0.4,0.1-0.7,0-1.1c-0.1-0.3-0.2-0.6-0.2-0.9c0.2-0.5,0.4-1,0.5-1.5c0.2-0.5,0.2-1.1-0.1-1.6c0.2-0.1,0.4-0.4,0.3-0.6
	c-0.1-0.2,0-0.4,0.2-0.5c0,0,0.1,0,0.1,0c0.1-0.2,0.3-0.4,0.5-0.6c0.2-0.2,0.3-0.5,0.2-0.8c-0.1-1.2-0.1-2.5,0.2-3.7
	c0.2-1.1,0.4-2.2,0.5-3.3c0.4-0.2,0.9-0.5,1.3-0.7c0.4-0.2,0.9-0.4,1.4-0.5c0.9,0.2,1.9,0.3,2.8,0.1c0.9-0.2,1.8-0.4,2.6-0.5
	c0.8,0,1.5,0.2,2.2,0.5c0.7,0.3,1.3,0.5,2.1,0.6c0.4,0,0.7-0.2,1-0.4c0.4-0.2,0.8-0.2,1.2-0.1c0.5-0.1,0.8,0,0.9,0.4
	c0.1,0.4,0.4,0.5,0.9,0.4c0.5-0.1,1-0.2,1.5-0.2c0.5,0,0.9,0.1,1.4,0.2c1-0.7,2.2-1,3.4-0.7c0-0.4,0.3-0.6,0.7-0.7
	c0.4-0.1,0.5-0.4,0.4-0.9c0.1-0.2,0.3-0.3,0.6-0.2c0.2,0,0.4-0.1,0.4-0.2c0,0,0-0.1,0-0.1c0.1,0,0.2,0.1,0.3,0.1
	c0.4,0.1,0.8,0.2,1.2,0.2c0.3,0,0.5-0.1,0.6-0.4c0.1-0.2,0.3-0.4,0.6-0.4c0.2,0,0.4-0.1,0.6-0.2h13c0.2-0.1,0.5-0.2,0.7-0.3
	c0.2-0.1,0.5-0.1,0.7-0.1c0.5,0.1,0.9,0.2,1.3,0.4c0.5,0.1,1,0.2,1.5,0.1c0.1,0.2,0.2,0.4,0.3,0.6c0.1,0.3,0.3,0.4,0.6,0.3
	c0.7,0,1.5,0,2.3,0.1c0.6,0,1.3,0,1.9-0.1c0.5-0.1,1-0.1,1.5,0c0.3,0,0.6,0.1,1,0.2c0.5,0.1,0.9,0.3,1.3,0.6c0.4,0.3,0.7,0.6,1,0.9
	c0.4-0.3,1-0.3,1.4-0.1c0.5,0.2,0.9,0.4,1.2,0.6c0.2,0.1,0.5,0,0.7-0.2c0.2-0.2,0.4-0.1,0.5,0.2c0.2,0.7,0.1,1.1-0.2,1.3
	c-0.4,0.3-0.6,0.7-0.5,1.1c-0.3,0.3-0.5,0.6-0.6,1c-0.1,0.4-0.4,0.8-0.7,1c-0.8,0-1.7,0.2-2.4,0.6c-0.8,0.4-1.6,0.6-2.5,0.6
	c-0.3,0.3-0.7,0.6-1.1,0.7c-0.4,0.2-0.8,0.6-0.9,1c-0.3,0-0.5,0.2-0.7,0.3c-0.2,0.2-0.3,0.3-0.5,0.5c-0.2,0.2-0.4,0.3-0.6,0.5
	c-0.3,0.1-0.6,0.2-0.9,0.1c0.1,0.4-0.1,0.6-0.4,0.6c-0.3,0-0.5,0.1-0.7,0.3c-0.2,0.1-0.4,0.3-0.6,0.5c-0.2,0.2-0.4,0.3-0.6,0.4
	c-0.1,0-0.2,0-0.2,0c-0.1,0-0.2,0-0.2,0c-0.1,0-0.1,0.1,0,0.2c0.1,0.1,0.1,0.2,0,0.2c-0.2,0.1-0.4,0.2-0.6,0.3
	c-0.2,0-0.4,0.1-0.5,0.2c-0.1,0.1-0.1,0.2,0,0.3c0.1,0.1,0.1,0.2,0,0.2c-0.3,0.2-0.6,0.3-0.9,0.3c-0.1,0.3-0.3,0.5-0.5,0.7
	c-0.2,0.2-0.4,0.4-0.6,0.6c-0.2,0.2-0.5,0.4-0.7,0.6c-0.2,0.2-0.4,0.4-0.7,0.7c-0.2,0-0.4,0.2-0.5,0.4c-0.1,0.2-0.2,0.3-0.4,0.4
	h-0.9c-0.2,0-0.5,0-0.6,0.2c-0.2,0.3-0.5,0.6-0.8,0.9c-0.3,0.3-0.5,0.7-0.6,1.1c-0.3,0-0.5,0.1-0.6,0.3c-0.1,0.2-0.4,0.4-0.6,0.4
	c-0.1,0.2-0.1,0.4-0.2,0.6c-0.1,0.2-0.3,0.3-0.6,0.2c-0.1,0.2-0.3,0.3-0.3,0.5c-0.1,0.2-0.2,0.4-0.3,0.6c-0.2-0.1-0.5,0-0.7,0.2
	c-0.2,0.2-0.4,0.3-0.7,0.2c-0.1,0.4-0.2,0.7-0.3,1c-0.1,0.3-0.3,0.5-0.6,0.6c-0.2,0-0.5,0-0.6,0.2c-0.1,0.1-0.4,0.1-0.7,0
	c-0.1,0.2-0.2,0.4-0.2,0.6c0,0.2-0.1,0.4-0.3,0.5c0,0-0.1,0-0.1,0c-0.4-0.1-0.6,0-0.6,0.3c0,0.3-0.1,0.5-0.3,0.6
	c-0.2-0.1-0.5,0-0.6,0.2c-0.1,0.2-0.3,0.2-0.6,0.1c0.1,0.4,0.1,0.6-0.2,0.6c-0.3,0-0.5,0.2-0.5,0.5c-0.2,0.4-0.5,0.7-0.9,0.9
	c-0.1,0.3-0.1,0.6-0.2,0.9c0,0.3-0.2,0.5-0.5,0.6c-0.3,0.1-0.6,0.2-0.8,0.3c-0.2,0.1-0.5,0.2-0.8,0.1c-0.2,0.3-0.3,0.5-0.4,0.8
	c0,0.2-0.1,0.4-0.3,0.6c-0.3,0.2-0.5,0.4-0.5,0.5c0,0.3-0.1,0.5-0.3,0.7c-0.1,0.2-0.2,0.3-0.4,0.4c-0.1,0.1-0.2,0.2-0.3,0.3v1.4
	c-0.3,0.1-0.5,0.3-0.6,0.6c-0.1,0.3-0.2,0.5-0.3,0.7c-0.1,0.3-0.3,0.4-0.5,0.4c-0.2,0-0.2,0.2-0.2,0.5v2.3c0,0.2,0.2,0.5,0.4,0.5
	c0.2,0.1,0.3,0.2,0.4,0.5c0.3,0,0.5,0.2,0.5,0.5c0,0.2,0.2,0.4,0.4,0.6c0.4,0.4,0.7,0.7,1.1,1.1c0.4,0.4,0.7,0.8,0.9,1.2
	c0.6,0.2,1.2,0.3,1.9,0.5c0.6,0.1,1.1,0.6,1,1.3c0.4,0.1,0.6,0.1,0.8-0.1c0.2-0.2,0.4-0.2,0.8-0.1c0,0.4,0.3,0.7,0.7,0.7
	c0.4,0,0.7,0.3,0.7,0.7c0.3,0.1,0.6,0.2,0.9,0.2c0.3,0,0.5,0.2,0.6,0.4c0.3,0.3,0.5,0.7,0.6,1.1c0.1,0.5,0.2,0.9,0.3,1.3
	c0.5-0.1,0.8-0.1,1,0.2c0.3,0.3,0.7,0.4,1,0.3c0,0.4,0.2,0.6,0.7,0.5c0.2,0.7,0.8,1.2,1.5,1.4c0.1,0.3,0.3,0.6,0.6,0.8
	c0.3,0.2,0.5,0.4,0.5,0.8c0.6,0.1,1.1,0.4,1.4,0.9c0.2-0.1,0.5-0.1,0.7,0c0.1,0.1,0.3,0.1,0.4,0.3c0.1,0.1,0.2,0.2,0.3,0.3
	c0.2,0.1,0.4,0.1,0.6,0c0.1,0.3,0.3,0.5,0.5,0.7c0.3,0.2,0.4,0.4,0.6,0.7c0.3,0.1,0.6,0.1,0.9,0.2c0.3,0.1,0.6,0.2,0.9,0.2
	c-0.1,0.4,0,0.5,0.3,0.5c0.3,0,0.4,0.1,0.4,0.4c0.2,0,0.4,0.1,0.4,0.3c0.1,0.2,0.3,0.3,0.5,0.4c0.2,0.3,0.5,0.6,0.8,0.8
	c0.3,0.2,0.5,0.5,0.7,0.8c0.4-0.1,0.6-0.1,0.7,0.1c0.1,0.2,0.3,0.3,0.6,0.1c0.1,0.3,0.3,0.5,0.5,0.6c0.2,0.1,0.4,0.2,0.6,0.4
	c0.2,0.1,0.5,0.3,0.6,0.5c0.2,0.2,0.3,0.4,0.5,0.6c0.4,0.3,0.8,0.6,1.2,0.9c0.4,0.3,0.7,0.7,1,1.1c0.4,0,0.7,0.1,0.7,0.2
	c1,0.1,2.1,0,3.1-0.2c0.3,0.6,0.7,1.2,1.1,1.7c0.5,0.5,0.9,1.1,1.1,1.7c0.2,0,0.5,0.1,0.7,0.2c0.2,0.2,0.4,0.3,0.6,0.4
	c-0.1,0.9,0.2,1.4,0.9,1.4c0.1,0.2,0.2,0.2,0.4,0.2c0.1-0.1,0.2-0.2,0.3-0.3c0.1-0.1,0.2-0.2,0.4-0.3c0.2-0.1,0.3-0.1,0.5,0
	c0.5,0.1,0.9,0.3,1.2,0.7c0.3,0.4,0.8,0.5,1.3,0.4c0,0.3,0.1,0.7,0.4,0.8c0.3,0.1,0.4,0.4,0.3,0.8c0.5-0.1,0.8,0.1,0.9,0.4
	c0.1,0.3,0.3,0.6,0.5,0.9c0.3,0,0.5,0.2,0.6,0.4c0.1,0.2,0.4,0.3,0.6,0.3c-0.1,0.3-0.1,0.5,0.1,0.5c0.2,0.1,0.2,0.3,0.2,0.5
	c0.3,0.1,0.6,0.1,0.9,0.2c0.3,0.1,0.6,0.2,0.9,0.2c0.1,0.2,0.3,0.5,0.5,0.6c0.2,0.2,0.3,0.5,0.4,0.7c1.2,0,2.3,0.7,2.9,1.7h0.9
	c0.1,0.5,0.4,0.9,0.9,1.1c0.5,0.2,0.8,0.6,1,1c0.1,0.3,0.3,0.5,0.5,0.8c0.2,0.3,0.3,0.6,0.2,1c0.3,0,0.5,0,0.7,0.2
	c0.2,0.1,0.3,0.3,0.5,0.4c0.2,0.2,0.3,0.3,0.5,0.4c0.2,0.1,0.5,0.2,0.7,0.1c0.5-0.1,0.9-0.3,1.4-0.5c0.5-0.2,1-0.3,1.6-0.3
	c0.1,0.1,0.2,0.3,0.2,0.5c0,0.2,0.2,0.3,0.5,0.1c0.1,0.2,0.1,0.5,0,0.7c0,0.3,0.1,0.3,0.4,0.2c0.3-0.1,0.4-0.3,0.3-0.6
	c-0.1-0.3-0.1-0.5,0-0.8c0.2-0.2,0.4-0.4,0.5-0.6c0.2-0.2,0.4-0.5,0.6-0.7c-0.1-0.2-0.1-0.5,0-0.7c0.2-0.2,0.3-0.3,0.4-0.4
	c0.1-0.2,0.2-0.3,0.2-0.5c0-0.2,0.1-0.4,0.2-0.5c0-0.4-0.1-0.7-0.3-1.1c-0.2-0.4-0.2-0.8-0.1-1.2c-0.6,0.1-0.8-0.1-0.6-0.6
	c-0.6-0.1-1.1-0.5-1.5-1c-0.3-0.5-0.9-0.8-1.5-0.9c-0.1-0.2-0.2-0.4-0.3-0.6c-0.1-0.2-0.3-0.3-0.6-0.3h-1.8
	c-0.3-0.4-0.4-0.8-0.5-1.3c-0.1-0.5-0.3-0.9-0.6-1.3c-0.2-0.2-0.4-0.3-0.5-0.2c-0.1,0.1-0.3,0.2-0.6,0.2c-0.2-0.5-0.7-0.9-1.3-1
	c-0.6-0.1-1-0.7-1-1.3c-0.3,0.1-0.6,0.1-0.8,0c-0.2-0.1-0.5-0.2-0.7-0.2c-0.1-0.5-0.4-1-0.8-1.3c-0.4-0.4-0.6-0.9-0.7-1.4v-2
	c-0.1-0.4-0.3-0.7-0.6-1c-0.3-0.3-0.5-0.6-0.6-1c0-0.4,0-0.8,0-1.2c0.1-0.4,0-0.7-0.2-1.1c0.3-0.1,0.4-0.5,0.4-1.1
	c-0.2-1.2-0.2-2.4-0.2-3.7c0.1-1.2,0.1-2.5,0.2-3.7c0.1-1,0.1-2.1,0.1-3.1c0-1,0-2,0.1-3c0.1-0.5,0.3-1,0.4-1.5
	c0.1-0.5,0.3-1,0.3-1.5c0-0.3-0.1-0.6-0.2-0.9c-0.1-0.3-0.2-0.7,0-1.1c-0.1-0.3-0.3-0.6-0.5-0.9c-0.2-0.3-0.3-0.7-0.2-1.1
	c0-0.3,0.1-0.7,0.4-0.8c0.3-0.1,0.3-0.5,0.2-1c-0.1-0.7-0.4-1.5-0.8-2.1c-0.5-0.7-0.6-1.6-0.5-2.4c0-0.2,0.1-0.3,0.2-0.3
	c0.2,0,0.3-0.1,0.4-0.2c-0.1-0.5-0.1-1.1,0.2-1.5c0.3-0.4,0.4-0.8,0.5-1.2v-1.5c-0.6-0.8-0.9-1.7-0.9-2.7c0-0.4,0.2-0.8,0.5-1
	c0.4-0.2,0.6-0.5,0.7-0.9c-0.3-0.7-0.4-1.4-0.2-2.1c0.2-0.8,0.2-1.5,0.2-2.3c0.3,0,0.6-0.3,0.6-0.6c0-0.3,0.1-0.7,0.2-1
	c0.4-0.1,0.8-0.4,1.1-0.8c0.2-0.4,0.5-0.7,0.8-1c0.4,0.1,0.6,0,0.6-0.3c0.1-0.2,0.2-0.4,0.5-0.5c0.4,0,0.8-0.2,1.1-0.4
	c0.3-0.2,0.6-0.4,1-0.5c0.4,0.1,0.6,0.1,0.8-0.1c0.2-0.2,0.5-0.3,0.8-0.2c0.5,0,1,0.1,1.5,0.2c0.5,0.1,1.1,0.2,1.6,0.1
	c0.3,0.9,1.2,1.6,2.2,1.6c1.2,0.2,2.4,0.2,3.7,0.1c0.2,0,0.4-0.1,0.5-0.3c0.1-0.1,0.3-0.2,0.6-0.1c0.3,0.1,0.6,0.2,0.9,0.2
	c0.3,0,0.6,0.1,0.9,0.2v0.9c0,0.3,0.1,0.5,0.2,0.7c0.1,0.1,0.3,0.2,0.5,0.1c0.2,0,0.5-0.1,0.7-0.1c0.2-0.1,0.5-0.1,0.7,0
	c0.2,0,0.4,0.2,0.4,0.4c0,0.4,0,0.8-0.2,1.2c-0.1,0.4-0.1,0.9,0,1.3c0.2,0.3,0.3,0.7,0.2,1.1c0.4,0.2,0.7,0.6,0.8,1
	c0.1,0.4,0.4,0.8,0.8,1.1c-0.2,0.6-0.1,1.3,0.3,1.8c0.3,0.5,0.6,1,0.6,1.5c-0.3,0.3-0.5,0.7-0.6,1.2c-0.1,0.5-0.5,0.8-1,0.8
	c0.1,0.4,0.1,0.8-0.2,1c-0.2,0.2-0.5,0.4-0.7,0.5c-1.1,0.3-2.3,0.4-3.5,0.3c-1.2-0.1-2.5-0.1-3.7,0c-0.2,0.1-0.3,0.3-0.4,0.5
	c-0.1,0.2-0.2,0.4-0.5,0.4c-0.6-0.1-1.3,0-1.8,0.4c-0.5,0.4-1.2,0.5-1.8,0.5c0.2,0.5,0.3,1.1,0.2,1.6c0,0.5-0.2,1-0.4,1.5
	c-0.4,0.1-0.7,0.1-1,0.2c-0.4,0.1-0.8,0.1-1.2,0c0,0.2-0.2,0.4-0.4,0.5c-0.2,0.1-0.4,0.3-0.5,0.6c-0.3,0-0.5,0.3-0.5,0.6
	c0,0,0,0,0,0c0,0.3-0.1,0.6-0.4,0.7c0.1,0.4,0.1,0.7,0.2,1.1c0.1,0.4,0.2,0.7,0.4,1c-0.2,0.1-0.4,0.3-0.4,0.6c0,0.3,0,0.6,0,1
	c0.3,0.7,0.5,1.5,0.5,2.3c0.1,0.8,0.2,1.7,0.4,2.5c0.5,0,0.9,0.2,1.1,0.6c0.2,0.4,0.4,0.9,0.4,1.4c0.2,0.1,0.5,0.3,0.7,0.4
	c0.3,0.2,0.5,0.3,0.8,0.4c-0.1,0.5,0,0.8,0.3,0.9c0.3,0.2,0.6,0.3,0.9,0.4c0.2,0.3,0.4,0.5,0.5,0.8c0.1,0.3,0.3,0.5,0.6,0.7
	c0.5,0.1,1,0,1.5-0.2c0.4-0.2,0.8-0.3,1.2-0.5c0.6,0.1,1.3,0.1,1.9-0.1c0.6-0.2,1.1-0.3,1.7-0.3c1.3-0.7,2.7-1.2,4.2-1.4
	c0.3-0.2,0.6-0.4,0.8-0.8c0.2-0.3,0.4-0.6,0.7-0.8c0.4-0.2,0.8-0.2,1.2-0.2c0.2-0.4,0.5-0.7,0.8-1c0.4-0.2,0.8-0.4,1.2-0.6
	c0.1-0.3,0.1-0.5,0.2-0.8c0.1-0.2,0.3-0.3,0.7-0.1c0-0.3,0-0.6,0.1-0.9c0.1-0.2,0.2-0.5,0.4-0.7c0.1-0.2,0.3-0.4,0.4-0.7
	c0.1-0.3,0.1-0.6,0-0.9c0.3-0.1,0.5-0.3,0.8-0.5c0.2-0.2,0.5-0.3,0.8-0.4c-0.1-0.4,0-0.9,0.3-1.2c0.3-0.3,0.5-0.6,0.6-1
	c-0.2-0.6-0.1-1.2,0.3-1.7c0.3-0.4,0.5-1,0.6-1.5c0.1-1.1,0-2.3-0.2-3.4c-0.2-1.2-0.2-2.3-0.1-3.5c-0.5-0.7-0.7-1.6-0.7-2.5
	c0-0.9,0-1.9,0.1-2.9c-0.3-0.3-0.6-0.6-0.9-0.8c-0.3-0.3-0.6-0.6-0.8-0.9c0-0.1,0-0.3-0.1-0.4c-0.1-0.1-0.1-0.3,0-0.5
	c-0.1-0.1-0.3-0.2-0.5-0.2c-0.2,0-0.3-0.2-0.1-0.5c-0.3-0.1-0.6,0-0.8,0.1c-0.2,0.2-0.4,0.3-0.6,0.3c-0.1-0.2-0.2-0.3-0.3-0.4
	c-0.2-0.1-0.3-0.2-0.5-0.3c-0.2-0.1-0.3-0.2-0.5-0.4c-0.1-0.2-0.2-0.4-0.1-0.7c0-0.2,0.1-0.3,0.2-0.4c0.2-0.1,0.4-0.1,0.6-0.1
	c0.2,0,0.4,0,0.6,0c0.2,0,0.3-0.1,0.5-0.2c-0.1-0.4-0.4-0.8-0.8-1c-0.4-0.2-0.7-0.4-1-0.7c-0.2-0.4-0.4-0.8-0.7-1.1
	c-0.3-0.3-0.6-0.6-0.8-1c-0.3,0-0.6,0-1,0c-0.3,0.2-0.7,0-0.8-0.3c-0.1-0.3-0.1-0.6,0.2-0.8c0.2-0.2,0.1-0.4-0.2-0.7
	c-0.4,0.1-0.8,0.2-1.1,0.3c-0.4,0.2-0.8,0.3-1.2,0.4c-0.4,0.1-0.8,0.2-1.2,0.2c-0.4,0-0.8-0.2-1.1-0.5c-0.3-0.4-0.4-0.9-0.2-1.3
	c0.2-0.4,0.2-0.9,0.2-1.4c-0.6-0.1-1.1-0.4-1.5-0.8c-0.4-0.5-1-0.7-1.7-0.7c-0.3-0.3-0.5-0.6-0.7-1c-0.2-0.4-0.6-0.6-1-0.7
	c-0.6,0.2-1.3,0.1-1.9-0.2c-0.5-0.3-1.2-0.4-1.8-0.3c-0.1-0.2-0.2-0.5-0.2-0.8c0-0.3-0.1-0.5-0.2-0.8h-3.1c-0.4-0.1-0.8-0.3-1.2-0.5
	c-0.5-0.2-1-0.3-1.6-0.1c-0.3-0.3-0.6-0.5-0.9-0.6c-0.4-0.2-0.7-0.3-1.1-0.5c-0.3-0.2-0.6-0.4-0.9-0.6c-0.3-0.3-0.4-0.8-0.4-1.2
	c0-0.3,0.2-0.5,0.4-0.7c0.2-0.1,0.4-0.3,0.6-0.4c0.1-0.2,0.2-0.4,0.4-0.6c0.1-0.2,0.3-0.4,0.5-0.5c0.1-0.1,0.3-0.2,0.5-0.1
	c0.2,0,0.3,0,0.5-0.1c0.1-0.1,0.2-0.2,0.2-0.5s0.2-0.3,0.5-0.1h1.4c0.4-0.1,0.7,0,0.8,0.3c0.2,0.3,0.4,0.4,0.7,0.4
	c0.1-0.3,0.4-0.5,0.7-0.5c0.3,0,0.7-0.1,1-0.2h1.5c0,0.1,0.1,0.2,0.2,0.2h0.7c0.1,0,0.2,0.1,0.2,0.1c0,0,0,0,0,0
	c0.4,0.1,0.6,0,0.7-0.2c0.1-0.2,0.4-0.3,0.8-0.1c0.4,0.2,0.8,0.3,1.2,0.3c0.5,0,0.9,0,1.4-0.1c0.5-0.1,1-0.1,1.5-0.2
	c0.5-0.1,1.1-0.1,1.6,0c0.3-0.1,0.5-0.3,0.5-0.6c0.1-0.2,0.3-0.3,0.7-0.2c0.4-0.1,0.7,0.1,0.7,0.4c0.1,0.3,0.3,0.4,0.6,0.4
	c0.8,0.1,1.6,0.1,2.4,0c0.7-0.1,1.4-0.2,2.1-0.3c0.5,0,0.9,0.2,1.2,0.5c0.3,0.3,0.7,0.5,1,0.7c0.3-0.1,0.6-0.1,0.9,0
	c0.2,0.1,0.4,0.3,0.6,0.4c0.9-0.4,1.9-0.6,2.8-0.4c1,0.2,2,0.4,2.8,0.6c0.7-0.3,1.4-0.5,2.1-0.5c0.8,0,1.7-0.1,2.5-0.2
	c0.1-0.4,0.3-0.8,0.6-1.1c0.3-0.3,0.5-0.7,0.5-1.2c0-0.2,0-0.4-0.1-0.6c-0.1-0.2-0.1-0.5-0.2-0.7c-0.1-0.4-0.1-0.9,0-1.3
	c0-0.4,0.1-0.8,0.3-1.2c0.4-0.1,0.7-0.1,1.1,0c0.3,0.1,0.7,0,0.9-0.2C380.1,70.2,380.2,69.4,380,68.7z M168.4,30.8
	c-0.2,0.1-0.4,0.1-0.5,0.1c-0.2,0-0.4-0.1-0.5-0.2c-0.1-0.1-0.2-0.3-0.1-0.4c0,0,0,0,0,0c0.2-0.2,0.4-0.3,0.7-0.2
	c0.2,0,0.4,0.2,0.6,0.4C168.7,30.6,168.6,30.8,168.4,30.8C168.5,30.8,168.4,30.8,168.4,30.8z M157,69.9h-0.9c-0.1-0.3-0.1-0.6-0.2-1
	c-0.1-0.3,0-0.6,0.2-0.9c0.7-0.1,1.1,0,1.2,0.4c0.1,0.4,0.3,0.8,0.5,1.1C157.6,69.8,157.3,69.9,157,69.9z M158.7,65.9
	c-0.5,0.4-1.1,0.5-1.7,0.3v-1.4c0.4-0.1,0.7-0.3,1.1-0.5c0.4-0.2,0.8-0.3,1.2-0.4c0,0.4,0.1,0.6,0.2,0.6
	C159.3,65.1,159.1,65.6,158.7,65.9z M171,72.5c-0.4,0.1-0.6,0-0.7-0.2c-0.2-0.2-0.4-0.3-0.6-0.3v-0.9c0-0.2,0-0.5,0.2-0.6
	c0.7-0.1,1.1,0.1,1.3,0.5C171.3,71.5,171.2,72.1,171,72.5z M175.7,71.8c-0.3,0.7-0.4,1.4-0.5,2.1h-0.8c-0.4,0.1-0.6,0-0.6-0.3
	c0-0.3-0.1-0.5-0.3-0.6c-0.3-0.1-0.5-0.2-0.5-0.4c0-0.2-0.1-0.4-0.2-0.5c0-0.2,0.1-0.4,0.2-0.6c0.1-0.1,0.2-0.3,0.4-0.4
	c0.1-0.1,0.2-0.3,0.3-0.5c0.1-0.2,0.1-0.5,0.1-0.7c0.5-0.1,1,0,1.4,0.1c0.5,0.2,1,0.2,1.5,0C176.2,70.6,176,71.2,175.7,71.8z
	 M212.7,138.7c0.1,0.3,0.1,0.5-0.1,0.6c-0.2,0.1-0.4,0.3-0.6,0.5c-0.2,0.2-0.4,0.4-0.6,0.5c-0.1,0-0.3,0.1-0.7,0.2
	c-0.1,0-0.3,0.1-0.4,0.1c-0.2,0.1-0.5,0.1-0.8,0c-0.7,0-1.3-0.3-1.7-0.8c-0.4-0.4-0.9-0.8-1.4-1.2c0.1-0.2,0-0.4,0-0.5
	c-0.1-0.1-0.2-0.1-0.3-0.2c-0.1-0.1-0.2-0.1-0.3-0.2c-0.1-0.1-0.1-0.3,0-0.5c-0.3-0.1-0.6-0.1-0.9-0.2c-0.3-0.1-0.6-0.1-1,0
	c-0.5-0.7-1.2-1.1-2-1.3c-0.8-0.2-1.6-0.4-2.3-0.7c-0.1,0-0.2-0.1-0.2-0.2c0-0.1-0.1-0.2-0.2-0.2c-0.1-0.1-0.2-0.1-0.2,0
	c-0.1,0-0.2,0-0.2,0v-0.3c-0.2-0.1-0.4-0.2-0.6-0.2c-0.2,0-0.4-0.1-0.5-0.2c-0.3-0.1-0.6-0.4-0.8-0.6c-0.2-0.3-0.5-0.5-0.8-0.6
	c-0.2-0.3-0.4-0.6-0.5-1c-0.1-0.3-0.4-0.6-0.9-0.7c0-0.4-0.2-0.7-0.5-0.7c-0.4-0.1-0.5-0.3-0.5-0.8c-0.3,0.1-0.6,0-0.8-0.1
	c-0.2-0.2-0.3-0.3-0.4-0.5c-0.4,0.1-0.7,0-1-0.1c-0.3-0.2-0.6-0.3-1-0.3c-0.2-0.2-0.5-0.4-0.7-0.6c-0.2-0.3-0.4-0.5-0.6-0.7
	c-0.3,0.1-0.7,0.1-1,0c-0.2-0.1-0.4-0.3-0.7-0.5c-0.4,0.1-0.8,0.2-1,0.3c-0.3,0.1-0.7,0.1-1,0c0.1-0.5,0.1-1-0.1-1.5
	c-0.2-0.3-0.5-0.7-0.8-1v-2.3c0.2-0.5,0.6-1,1-1.4c0.4-0.4,0.8-0.8,1.3-1.1c0.2,0,0.3-0.1,0.3-0.4c0-0.2,0-0.4,0.1-0.5
	c0.5,0.1,0.8-0.1,0.6-0.6c0.2-0.1,0.4-0.2,0.5-0.1c0.2,0,0.4-0.1,0.4-0.3c0.2,0,0.3-0.1,0.2-0.3c0-0.2,0-0.3,0.2-0.3
	c0.5,0,0.9,0,1.4,0c0.4,0,0.7-0.1,1.1-0.2c0.4-0.5,0.5-1.1,0.4-1.7c0.4-0.3,0.7-0.6,1.1-0.8c0.4-0.2,0.7-0.6,0.9-1
	c0.3-0.3,0.7-0.5,1-0.8c0.3-0.2,0.7-0.5,1-0.8c0.4-0.9,0.5-1.8,0.5-2.7c0.9-0.4,1.8-0.6,2.8-0.6c1,0,2.1,0.1,3.3,0.1
	c0.2,0.3,0.4,0.5,0.6,0.7c1,0,2,0.1,2.9,0.3c1,0.2,2,0.1,2.9-0.1c0.3,0.6,0.6,1.2,1,1.8c0.4,0.7,0.6,1.5,0.5,2.2
	c0.2,0.4,0.5,0.7,0.9,1c0.4,0.3,0.7,0.6,0.9,1c0.1,0.6,0.2,1.3,0.2,1.9v2.2c-0.1,0.5-0.3,0.9-0.5,1.3c-0.2,0.4-0.4,0.9-0.5,1.3
	c0,0.4,0.1,0.8,0.3,1c0.2,0.2,0.4,0.5,0.6,0.8c-0.3,0.6-0.3,1.3-0.2,2c0.1,0.7,0.1,1.4-0.1,2.1c-0.1,0.7-0.1,1.6-0.1,2.7
	c0,1.1,0,2.2,0.1,3.3c0.1,0.2,0.1,0.5,0.2,0.7c0.1,0.2,0.1,0.4,0.1,0.7c0,0.3-0.1,0.5-0.1,0.7c-0.1,0.2-0.1,0.4-0.1,0.6
	c0.1,0.4,0.2,0.8,0.4,1.1C213,138.3,213,138.6,212.7,138.7z M188.2,111.6c0.3,0,0.6,0.1,0.9,0.2c0.3,0.2,0.6,0.3,0.9,0.2
	c-0.1,0.2-0.2,0.3-0.4,0.4c-0.2,0.1-0.5,0.1-0.7,0c-0.2,0-0.5-0.1-0.6-0.3C188.2,112,188.1,111.8,188.2,111.6L188.2,111.6z
	 M214.1,95.4c-0.1,0.8-0.1,1.6-0.1,2.5c0,0.9,0,1.7,0,2.5c0,0.7-0.1,1.4-0.3,2.1c-0.6,0.3-1.2,0.5-1.8,0.5h-2.3
	c-0.6-0.3-1.2-0.6-1.8-1c-0.6-0.4-1.2-0.7-1.8-1c-0.1-0.3-0.3-0.7-0.5-1c-0.2-0.3-0.4-0.6-0.6-0.9c-0.2-0.3-0.6-0.5-1-0.6
	c-0.4-0.1-0.6-0.3-0.7-0.8c-0.3,0.2-0.5,0.2-0.5,0c-0.1-0.2-0.1-0.3-0.3-0.5c-0.1-0.1-0.3-0.2-0.5-0.2c-0.2,0-0.3-0.1-0.4-0.3
	c-0.3-0.1-0.6-0.1-0.9,0c-0.4,0.1-0.8,0.1-1.1,0c-0.5-0.7-1.4-1-2.7-0.8c-0.4-0.3-0.7-0.7-1-1c-0.3-0.4-0.6-0.7-1-1.1
	c-0.6-0.2-1.3-0.4-1.8-0.8c-0.3-0.4-0.6-0.8-0.7-1.2c-0.2-0.5-0.4-0.9-0.8-1.2c-0.1-0.3-0.3-0.4-0.6-0.3c-0.4,0.1-0.6,0.1-0.6-0.2
	c0-0.3-0.1-0.6-0.2-0.8c-0.2-0.2-0.3-0.3-0.5-0.5c-0.2-0.2-0.3-0.4-0.4-0.6c-0.1-0.3-0.2-0.6-0.1-0.9c-0.3-0.1-0.6-0.2-0.8-0.4
	c-0.2-0.2-0.5-0.4-0.8-0.5c-0.1-0.5-0.3-1-0.7-1.4c-0.3-0.3-0.6-0.7-0.7-1.2c0-0.2-0.1-0.4-0.3-0.4c-0.2,0-0.4-0.1-0.6-0.2
	c-0.1-0.2-0.2-0.4-0.1-0.6c0-0.2-0.1-0.4-0.3-0.4c0.1-0.3,0.3-0.6,0.5-0.8c0.2-0.2,0.4-0.5,0.6-0.7c0.2-0.2,0.4-0.5,0.5-0.8
	c0.2-0.3,0.5-0.5,0.9-0.6c0-0.3,0-0.6,0-0.9c0-0.3,0.2-0.5,0.6-0.5c-0.1-0.2,0-0.5,0.1-0.7c0.2-0.2,0.2-0.4,0-0.9
	c0.5-0.1,1.1-0.1,1.6,0.1c0.4,0.2,0.8,0.4,1.1,0.6c0.7,0,1.4,0,2.1,0c0.6-0.1,1.1,0.1,1.5,0.5c0.7-0.3,1.5-0.4,2.2-0.3
	c0.8,0.1,1.7,0.1,2.5,0c0.3,0.1,0.7,0.2,1,0.3c0.3,0.1,0.7,0.2,1,0.3c0.2-0.1,0.5-0.2,0.7-0.3c0.2-0.1,0.4-0.2,0.7-0.3
	c1.1,0.1,2.2,0.1,3.3-0.2c1-0.3,2.1-0.4,3.2-0.5c0.1-0.3,0.2-0.5,0.2-0.8c0-0.3,0.2-0.4,0.5-0.3c0.3,0,0.5,0.1,0.7,0.2
	c0.3,0.1,0.5,0.3,0.6,0.6c0.1,0.2,0.1,0.4,0,0.5c-0.1,0.2-0.1,0.4,0,0.6l0.2,0.2c0.1,0.1,0.2,0.1,0.3,0.2c0.1,0.4,0.2,0.7,0.1,1.1
	c0,0.4,0,0.8,0,1.2c0.1,0.9,0.2,1.7,0.1,2.6c0,0.8-0.2,1.6-0.6,2.3c0.1,0.3,0.2,0.6,0.2,0.9c0.1,0.9,0.6,1.6,1.3,2.1
	c0.4,0.3,0.9,0.6,1.4,0.9c0,0.7,0.1,1.4,0.2,2.1c0.1,0.6,0.2,1.2,0.3,1.9C214.3,93.9,214.1,94.6,214.1,95.4L214.1,95.4z
	 M233.2,163.4c0.1,0.1,0.2,0.2,0.3,0.2c0,0.1-0.1,0.2-0.2,0.2c-0.2,0-0.2,0.1-0.2,0.3c-0.2,0-0.4-0.2-0.4-0.4c0-0.2,0.1-0.4,0.2-0.5
	C233,163.2,233.1,163.3,233.2,163.4L233.2,163.4z M232.5,161.3c0.1,0.1,0.2,0.3,0.2,0.5c0,0.2-0.1,0.4-0.2,0.6
	c-0.1,0.2-0.3,0.3-0.5,0.3c0.1-0.3,0-0.6,0-0.8c-0.1-0.2-0.2-0.5-0.1-0.7C232,161.1,232.3,161.1,232.5,161.3L232.5,161.3z
	 M227.6,159.1c0.7,0.1,1.1,0.2,1.3,0.5c-0.2,0.3-0.6,0.5-1.2,0.5c-0.6,0-1-0.2-1.2-0.5C226.5,159.2,226.9,159,227.6,159.1
	L227.6,159.1z M225.2,157.6h0.7v0.4h-0.7V157.6z M223.4,126.8c-0.2,0.2-0.3,0.4-0.4,0.7c-0.3,0-0.4-0.2-0.3-0.5
	c0.1-0.3,0.2-0.5,0.3-0.6c0.2,0.2,0.4,0.2,0.4,0.1c0-0.1,0.2-0.1,0.5-0.1C223.8,126.5,223.6,126.7,223.4,126.8L223.4,126.8z
	 M245.2,42.2c0.2,0.3,0.3,0.7,0.4,1.1h-0.9c-0.2,0-0.5,0-0.6-0.2v-1.1C244.6,41.8,245,41.9,245.2,42.2z M243.9,38.7
	c0.2,0,0.4-0.1,0.6-0.1c0.1,0.4,0,0.8-0.2,1.1c-0.3,0.1-0.4-0.1-0.4-0.4c0-0.3-0.1-0.4-0.5-0.3C243.5,38.8,243.7,38.7,243.9,38.7
	L243.9,38.7z M235.5,31.2c0.2,0,0.3,0.1,0.4,0.2c0.1,0.1,0.2,0.3,0.2,0.5c0.1,0.1,0.1,0.3,0.2,0.4c0.1,0.1,0.3,0.2,0.5,0.2v1.6
	c-0.3,0-0.6,0.2-0.6,0.5c-0.1,0.3-0.3,0.4-0.7,0.4c-0.1-0.6-0.2-1.2-0.2-1.7C235.4,32.5,235.4,31.8,235.5,31.2L235.5,31.2z
	 M228.2,27.3c0.2-0.2,0.4-0.3,0.7-0.3c0.2,0,0.4,0.1,0.5,0.3c0.1,0.4,0.2,0.8,0.1,1.1c-0.4,0.1-0.7,0-1.1-0.1
	c-0.2-0.1-0.5-0.2-0.7-0.4C227.8,27.7,228,27.5,228.2,27.3L228.2,27.3z M168.9,27.1c0.1-0.3,0.3-0.6,0.6-0.7c0.3-0.1,0.5-0.1,0.8,0
	c0.3,0.1,0.6,0.1,0.9,0.3c0.3,0.1,0.5,0.3,0.7,0.5c0.3,0.1,0.5,0,0.5-0.1c0.1-0.2,0.3-0.2,0.6,0c0.1,0.3,0.4,0.5,0.7,0.5
	c0.3,0.1,0.5,0.3,0.5,0.8c-0.1,0.1-0.3,0.3-0.4,0.4c-0.2,0.1-0.3,0.3-0.5,0.5c-0.4,0.1-0.7,0.1-1.1,0c-0.3-0.1-0.5-0.2-0.8-0.2
	c-0.3-0.1-0.5-0.2-0.5-0.3c0-0.1-0.2-0.2-0.4-0.3c-0.1-0.1-0.2-0.2-0.3-0.1c-0.1,0-0.2,0-0.3-0.1C169.4,27.7,169.1,27.4,168.9,27.1z
	 M170.8,37.6c-0.3,0.1-0.7,0.1-1,0c-0.1-0.5-0.2-1-0.2-1.5c-0.1-0.5,0.1-0.9,0.4-1.2c0.4,0.4,0.8,0.5,1.2,0.3
	c0.4-0.2,0.8-0.4,1.2-0.5v-1.4c0.4,0.3,0.6,0.8,0.3,1.3c-0.2,0.6-0.2,1.2,0,1.8c-0.3,0-0.6,0.1-0.8,0.2c-0.2,0.2-0.4,0.3-0.6,0.5
	C171.2,37.4,171,37.5,170.8,37.6z M182.3,48.7c-0.2,0.1-0.3,0.3-0.3,0.5c-0.7,0.1-1.1,0.1-1.4-0.2c-0.2-0.5,0.1-1,0.5-1.1
	c0,0,0,0,0,0c0.4-0.2,0.8-0.2,1.2,0C182.4,48.3,182.4,48.6,182.3,48.7z M211.3,55.1h-0.8v-0.4h0.8V55.1z M223.2,50.2
	c-1.2,0.2-2.4,0.2-3.6-0.1c-0.3-0.1-0.6-0.2-0.9-0.3c-0.3-0.2-0.5-0.3-0.8-0.3c-0.4-0.1-0.8,0-1.1,0.2c-0.3,0.2-0.6,0.3-0.9,0.5
	c-0.4-0.1-0.8-0.4-1-0.8c-0.1-0.4-0.5-0.7-0.9-0.9c-0.7-0.2-1.4-0.1-2,0.2c-0.4,0.3-0.9,0.6-1.4,0.9c-0.3,0-0.7-0.1-1-0.3
	c-0.3-0.1-0.5-0.2-0.8-0.4c-0.7,0.2-1.5,0.3-2.3,0.2c-0.7-0.1-1.4,0.1-2,0.4c-0.6-0.2-1.2-0.3-1.9-0.2c-0.7,0.1-1.4,0.2-2,0.2
	c-0.1,0.1-0.3,0.2-0.5,0.2c-0.2,0-0.4,0.2-0.4,0.4c-0.3-0.1-0.7-0.1-1,0c-0.3,0.1-0.5,0.2-0.7,0.3c-0.2,0.1-0.5,0.2-0.7,0.3
	c-0.3,0.1-0.6,0.2-0.9,0.1c-0.4,0.1-0.6,0.1-0.6-0.1c0-0.2-0.1-0.3-0.3-0.4c-0.4,0-0.6-0.1-0.6-0.3h-1.5c-0.3,0-0.6-0.1-0.8-0.3
	c-0.2-0.2-0.5-0.2-1-0.1c-0.3-0.1-0.6-0.1-0.9,0c-0.2,0.1-0.4,0.3-0.6,0.4h-3.6c-0.3-0.4-0.5-0.9-0.5-1.4c0-0.5-0.1-1.1-0.5-1.5
	c-0.4-0.2-0.8-0.5-1.2-0.8c-0.5-0.3-1.1-0.4-1.7-0.3c0-0.4-0.3-0.8-0.7-0.8c-0.4,0-0.7-0.1-1.1-0.3c-0.2-0.4-0.5-0.7-0.9-0.9
	c0.1-0.4,0.1-0.6-0.1-0.8c-0.2-0.2-0.2-0.4-0.1-0.8c-0.2-0.6-0.6-1.1-1-1.5c-0.5-0.5-0.8-1.1-0.8-1.7c-0.3,0.1-0.5,0-0.6-0.2
	c-0.1-0.2-0.2-0.4-0.3-0.6c-0.3-0.1-0.5,0-0.5,0.3s-0.1,0.4-0.4,0.4c-0.3,0.1-0.5,0.1-0.6,0c-0.1-0.2-0.3-0.2-0.6-0.1
	c-0.4,0-0.6,0.3-0.6,0.7c0,0.4-0.2,0.8-0.5,1.1c-0.2,0.2-0.4,0.3-0.6,0c-0.2-0.2-0.4-0.4-0.7-0.5c-0.2-0.1-0.4-0.2-0.7-0.3
	c-0.3-0.1-0.3-0.3-0.2-0.8c-0.1-0.2,0-0.4,0.1-0.5c0.2-0.1,0.4-0.1,0.5-0.1c0.2,0,0.4,0,0.6-0.1c0.2,0,0.4-0.1,0.5-0.2
	c0.3,0.1,0.4-0.1,0.4-0.5c0.4,0.1,0.6,0.1,0.6-0.2c0.4-0.1,0.8-0.1,1.1,0c0.2,0.2,0.5,0.1,0.7,0c0.1-0.7,0.3-1.4,0.4-2.3
	c0.1-0.7,0.1-1.5-0.2-2.2c0.1-0.5,0.3-1,0.6-1.4c0.3-0.4,0.2-1-0.1-1.4c-0.3-0.2-0.7-0.3-1-0.3c-0.4,0-0.8-0.1-1.1-0.2v-2
	c0.4-0.2,0.8-0.4,1.2-0.6c0.5-0.2,1-0.2,1.4,0.1c0.5,0.1,0.8-0.1,0.8-0.4c0.1-0.3,0.3-0.5,0.8-0.5c0.7,0.3,1.5,0.4,2.2,0.3
	c0.7-0.2,1.4-0.4,2-0.7c0.7-0.3,1.4-0.6,2.1-0.9c0.8-0.3,1.6-0.4,2.4-0.4c0.2-0.1,0.4-0.3,0.4-0.5c0-0.3,0.3-0.3,0.8-0.2
	c0.1-0.2,0.3-0.3,0.4-0.5c0.2-0.1,0.3-0.2,0.5-0.4h4c0.4,0,0.7-0.2,0.9-0.5c0.2-0.3,0.5-0.4,0.8-0.5c0.2-0.1,0.4-0.1,0.6,0
	c0.1,0.1,0.2,0.2,0.3,0.3c0.1,0.1,0.1,0.3,0.2,0.4c0.1,0.1,0.3,0.2,0.5,0.2c0.3,0.1,0.5,0.3,0.6,0.5c0.2,0.3,0.6,0.4,0.9,0.3
	c0.1,0.4,0.3,0.7,0.7,0.9c0.3,0.1,0.6,0.4,0.7,0.7c0.3,0,0.7,0.1,1,0.2c0.3,0.2,0.5,0.3,0.8,0.5c0.4,0.2,0.7,0.4,1.1,0.5
	c0.5,0.2,0.9,0.4,1.3,0.6c0.5,0.1,1.1,0,1.6-0.1c0.4-0.1,0.9-0.2,1.4-0.4c0.8,0,1.7,0.2,2.4,0.5c0.7,0.3,1.4,0.6,2.1,0.8h1.7
	c0.5,0,1,0,1.5-0.2c0,0.1,0.2,0.2,0.6,0.2c0.3,0,0.6,0.1,0.7,0.4c0.1,0.2,0.4,0.4,0.8,0.4c0.6,0.2,1.2,0.1,1.7-0.3
	c0.4-0.4,1-0.5,1.5-0.4c0,0.1,0.2,0.2,0.3,0.2c0.1,0,0.3,0.1,0.4,0.2c0.1,0.1,0.2,0.2,0.1,0.3c0,0.1,0,0.2,0.1,0.3
	c0.1,0.2,0.3,0.4,0.4,0.5c0.2,0.2,0.2,0.4,0.2,0.6c1,0.2,1.8,1,2,2c1.2,0.3,2.3,0.8,3.4,1.3c1.2,0.6,2.6,0.9,4,0.9
	c0.3,0.3,0.6,0.6,0.9,0.9c0.3,0.3,0.7,0.5,1.1,0.6c0.5,0.2,1.1,0.2,1.6,0c0.4-0.2,0.9-0.3,1.3-0.3c0.6-0.1,1.2,0.2,1.5,0.7
	c0.3,0.5,0.7,0.9,1.3,1c-0.1,0.6,0.2,1.3,0.6,1.8c0.4,0.4,0.7,1,0.8,1.6c0.3,0.5,0.7,1,1.2,1.3c0.5,0.4,0.8,1,1,1.6
	c0.8,0.3,1.5,0.8,2.1,1.3c0.6,0.5,1.2,1,1.7,1.6c-0.1,0.5-0.1,1,0,1.5c0.1,0.4,0.2,0.8,0.3,1.1c0.1,0.4,0.2,0.7,0.3,1.1
	c0.1,0.5,0.1,0.9,0,1.4c0,0.4,0.1,0.7,0.4,0.8c0.3,0.2,0.4,0.5,0.4,0.8c-0.3,0.6-0.5,1.2-0.7,1.8c-0.1,0.6-0.4,1.2-0.7,1.7
	c0.3,0.4,0.5,0.9,0.6,1.3c0.1,0.4,0.4,0.8,0.7,1.1c-0.2,0.5-0.4,1-0.6,1.5c-0.2,0.5-0.5,0.9-0.7,1.4h-5.4c-0.4,0.1-0.9,0.2-1.3,0.4
	c-0.4,0.2-0.8,0.4-1.2,0.5c-0.5,0-0.9-0.2-1.3-0.5c-0.4-0.3-0.9-0.5-1.5-0.4c-0.4-0.8-1.2-1.3-2-1.5c-0.1-0.2-0.2-0.3-0.2-0.5
	c0-0.2-0.1-0.4-0.2-0.6c-0.1-0.2-0.3-0.3-0.5-0.4c-0.2-0.1-0.4-0.2-0.5-0.4c0.1-0.3,0.1-0.6,0-0.9c-0.1-0.3-0.2-0.6-0.3-0.8
	c-0.1-0.5-0.1-0.7,0.2-0.7c0.3,0,0.4-0.1,0.3-0.5c-0.1-0.8-0.4-1.2-0.9-1.2c-0.6,0-1.1-0.1-1.7-0.2c-0.1-0.2-0.3-0.5-0.4-0.8
	c-0.2-0.4-0.3-0.8-0.2-1.2c-0.4-0.3-0.8-0.5-1.2-0.6c-0.5-0.2-0.9-0.3-1.4-0.5v-1.5C225.5,50.1,224.3,50.1,223.2,50.2L223.2,50.2z
	 M252.3,90.8h1.2c0,0.2-0.1,0.4-0.2,0.5c-0.1,0.1-0.3,0.2-0.5,0.2c-0.2,0-0.3,0-0.5-0.1C252.2,91.3,252.2,91.1,252.3,90.8
	L252.3,90.8z M253.4,134.5c-0.3,0.6-1,1-1.7,0.8c-0.3-0.5-0.3-1.2-0.1-1.8c0.2-0.6,0.8-0.9,1.6-0.7
	C253.7,133.2,253.7,133.9,253.4,134.5z M258.4,84c-0.1,0.2-0.2,0.5-0.2,0.7c-0.4,0-0.8,0-1.2,0.2c-0.4,0.1-0.9,0.1-1.3,0
	c-0.3-0.3-0.4-0.8-0.3-1.2c0-0.4,0.1-0.9,0.3-1.3c0.5-0.1,1-0.1,1.5,0.2c0.4,0.3,0.8,0.4,1.2,0.5C258.5,83.5,258.5,83.8,258.4,84
	L258.4,84z M259.7,74.2v-0.8h0.9C260.8,74.1,260.5,74.3,259.7,74.2L259.7,74.2z M270.6,171.5c0.2-0.3,0.3-0.6,0.4-0.9
	c0.3,0.1,0.6,0.3,0.8,0.5c0.2,0.3,0.3,0.7,0.1,1c-0.3-0.1-0.5,0-0.5,0.2c-0.1,0.2-0.2,0.2-0.5,0.1
	C270.5,172.3,270.4,171.9,270.6,171.5L270.6,171.5z M263.6,135.9c0.2,0.4,0.2,0.6,0.1,0.8c-0.2,0.2-0.4,0.5-0.5,0.7
	c0.1,0.3,0.1,0.6,0,0.9c-0.1,0.2-0.2,0.5-0.2,0.8c-0.3,0-0.5-0.1-0.7-0.3c-0.2-0.2-0.4-0.3-0.7-0.2c-0.1-0.5-0.1-0.8,0.2-0.8
	c0.3-0.1,0.4-0.3,0.5-0.5c0-0.3,0-0.5,0-0.8c0-0.2,0.1-0.4,0.2-0.5H263.6z M262.5,101.8c0.4-0.1,0.6,0,0.5,0.4
	c-0.1,0.3-0.1,0.6,0,0.9c-0.4,0.1-0.6,0-0.5-0.4C262.5,102.4,262.5,102.1,262.5,101.8L262.5,101.8z M263.1,133.5
	c-0.1,0.5-0.3,0.7-0.6,0.7v-0.8c0-0.2,0.1-0.4,0.2-0.5C263,132.8,263.2,133,263.1,133.5L263.1,133.5z M263.1,99.6
	c0,0.4-0.2,0.8-0.5,1.1c-0.4-0.1-0.6-0.3-0.5-0.8c0.1-0.4,0.2-0.8,0.3-1.2C263,98.7,263.2,99,263.1,99.6z M263.8,82.8
	c-0.1,0.1-0.2,0.3-0.2,0.4c-0.3-0.1-0.6-0.2-0.8-0.3c-0.2-0.1-0.3-0.3-0.3-0.6c0.3,0.1,0.5,0,0.7-0.1c0.2-0.2,0.4-0.1,0.6,0.1
	C263.9,82.5,263.9,82.7,263.8,82.8L263.8,82.8z M264,78.5c-0.3,0.1-0.5,0.1-0.6,0c-0.1-0.2-0.2-0.3-0.3-0.4
	c-0.1-0.1-0.3-0.1-0.5-0.2c-0.2-0.1-0.3-0.2-0.1-0.4c0.4-0.4,1.1-0.4,1.5,0L264,78.5z M288.9,65.4c0.3,0.1,0.7,0.1,1,0
	c0.1,0.4,0,0.6-0.5,0.7c-0.1,0-0.2,0-0.2,0c0,0,0-0.1,0-0.1c0.1-0.3,0-0.5-0.2-0.5c-0.2,0.1-0.3,0-0.5-0.1
	C288.5,65.3,288.7,65.3,288.9,65.4L288.9,65.4z M277.7,72.2c-0.2-0.8-0.1-1.3,0.5-1.6c0.2-0.1,0.4-0.2,0.7-0.2
	c0,0.1-0.1,0.2-0.1,0.3c0,0.3-0.1,0.5-0.1,0.8c0,0.1,0,0.2,0.1,0.3C278.5,71.9,278.1,72.1,277.7,72.2z M305.7,67.4
	c-0.1,0.2-0.1,0.4-0.2,0.6c-0.1,0.3-0.2,0.4-0.5,0.3V66h0.6C306,66.5,306,67,305.7,67.4L305.7,67.4z M317.3,137.4
	c-0.1,0.3-0.2,0.4-0.5,0.2c0.1,0.2,0.1,0.4-0.1,0.4c-0.2,0-0.4,0-0.5,0c0.1-0.3,0.3-0.5,0.5-0.5c0.2-0.1,0.4-0.3,0.4-0.5
	C317.2,136.9,317.3,137.1,317.3,137.4L317.3,137.4z M321.8,137.5c-0.3,0.1-0.5,0.2-0.8,0.2c-0.2,0-0.5,0-0.7-0.1
	c-0.2-0.1-0.3-0.4-0.3-0.6c0.4,0,0.9,0,1.3,0c0.4,0,0.7,0,1,0.2C322.2,137.3,322,137.4,321.8,137.5L321.8,137.5z M325.8,103.9
	c0,0.3-0.2,0.6-0.5,0.8c-0.2,1.2-0.3,2.4-0.2,3.6c0,1.3,0,2.7-0.1,3.9c0,0.3,0.1,0.6,0.3,0.8c0.2,0.2,0.3,0.4,0.4,0.6v6
	c-0.3,0.6-0.5,1.3-0.4,2c0,0.8-0.1,1.5-0.3,2.3c0,0.3,0.2,0.7,0.4,1c0.2,0.2,0.3,0.5,0.4,0.9c-0.2,0.6-0.3,1.1-0.4,1.7
	c-0.1,0.7-0.1,1.4,0,2.1c-0.1,0.3,0,0.5,0.3,0.6c0.2,0.1,0.4,0.3,0.4,0.6c0.2,0.8,0.1,1.7-0.2,2.5c-0.3,0.6-0.6,1.2-0.9,1.7
	c-0.5,0.1-1,0.1-1.6,0c-0.4-0.1-0.8-0.1-1.2,0c-0.3-0.3-0.5-0.6-0.7-0.9c-0.2-0.4-0.6-0.6-1.1-0.6c-0.2-0.4-0.4-0.8-0.4-1.3
	c-0.4,0.1-0.6,0-0.7-0.2c-0.1-0.2-0.3-0.2-0.7-0.1c0-0.2-0.1-0.4-0.3-0.5c-0.1-0.1-0.2-0.3-0.4-0.4c-0.7,0.1-1.2,0-1.5-0.4
	c-0.3-0.4-0.9-0.6-1.4-0.6c-0.3-0.2-0.6-0.4-0.8-0.6c-0.2-0.3-0.5-0.5-0.8-0.6c-0.3-0.2-0.6-0.3-0.9-0.5c-0.3-0.2-0.6-0.4-0.8-0.7
	c-0.3,0-0.7-0.1-0.9-0.4c-0.2-0.3-0.4-0.5-0.7-0.7c-0.3-0.2-0.6-0.3-0.9-0.5c-0.3-0.1-0.6-0.3-0.7-0.6c-0.3,0.1-0.6,0.2-0.9,0.2
	c-0.3,0-0.6,0.1-0.9,0.2c0-0.3-0.2-0.5-0.5-0.6c-0.3-0.1-0.5-0.2-0.8-0.3c-0.1-0.3-0.1-0.7,0.1-0.9c0.2-0.2,0.2-0.4-0.1-0.6
	c-0.2-0.3-0.5-0.6-0.8-0.8c-0.5-0.2-1-0.3-1.5-0.1c-0.2-0.2-0.3-0.4-0.4-0.6c-0.1-0.3-0.3-0.4-0.6-0.5v-2.6c0.1-0.3,0.2-0.5,0.3-0.7
	c0.1-0.2,0.2-0.4,0.3-0.5c-0.1-0.4,0-0.9,0-1.3c0.1-0.4,0.2-0.8,0.2-1.1c0.4-0.2,0.7-0.5,1-0.8c0.3-0.3,0.6-0.5,1-0.7
	c0.2-0.5,0.4-1,0.8-1.3c0.4-0.4,0.7-0.8,1-1.2c0.3-0.1,0.6-0.2,0.8-0.4c0.3-0.2,0.5-0.4,0.5-0.7c0.4,0.1,0.7,0,0.7-0.3
	c0.1-0.3,0.3-0.5,0.5-0.6c0.3-0.4,0.7-0.8,1.1-1.1c0.4-0.4,0.7-0.8,0.9-1.3c0.2,0,0.5-0.2,0.6-0.3c0.1-0.2,0.4-0.2,0.7-0.1
	c0-0.4,0.1-0.8,0.5-1.1c0.3-0.2,0.5-0.6,0.6-0.9h1.2c0.3-0.1,0.5-0.3,0.7-0.6c0.2-0.3,0.5-0.5,0.9-0.5c0.2-0.3,0.5-0.6,0.8-0.9
	c0.3-0.3,0.5-0.6,0.8-1c0.3,0,0.5,0,0.7-0.1c0.2-0.1,0.4-0.2,0.6-0.2c0.2-0.3,0.4-0.6,0.7-0.8c0.3-0.2,0.5-0.5,0.7-0.8
	c0.6,0,1.1-0.2,1.6-0.6c0.3,0,0.5,0.1,0.7,0.3c0.2,0.1,0.4,0.2,0.6,0.4c0.3,0.1,0.7,0.1,1-0.1c0.2-0.2,0.5-0.1,0.7,0.1c0,0,0,0,0,0
	c0.2,0.6,0.3,1.3,0.1,1.9c-0.2,0.6-0.1,1.3,0.2,1.9C326,103.2,325.9,103.5,325.8,103.9L325.8,103.9z M329.1,65.9
	c-0.4,0-0.8-0.1-1.2-0.3c0-0.2,0.2-0.3,0.7-0.3C329.1,65.3,329.2,65.5,329.1,65.9L329.1,65.9z M347,124.7c-0.3,0.2-0.5,0.1-0.6-0.1
	c-0.1-0.1,0.1-0.1,0.3-0.2c0.3-0.1,0.5-0.1,0.6,0C347.4,124.4,347.2,124.5,347,124.7L347,124.7z M362.7,65.9h-0.6v-0.5h0.6
	L362.7,65.9z M365.5,66.8c-0.9,0.1-1.2-0.4-1.2-1.3h1.2V66.8z M371.3,67.9c-0.3,0.7-1,1.2-1.8,1.3c-0.3,0.1-0.5,0-0.5-0.2
	c0-0.2-0.1-0.4-0.1-0.6c-0.2-0.1-0.3-0.2-0.5-0.3c-0.2-0.1-0.2-0.3-0.2-0.6c-0.1-0.4,0-0.6,0.3-0.6c0.2,0,0.4-0.1,0.6-0.3
	c0.1-0.3,0.3-0.5,0.5-0.7c0.2-0.2,0.4-0.4,0.5-0.7c0.4-0.1,0.5,0,0.5,0.3c-0.1,0.3-0.1,0.5,0,0.8c0,0.4,0.2,0.7,0.5,0.7
	C371.2,67,371.4,67.3,371.3,67.9L371.3,67.9z"/>
<path class="st0" d="M77.1,28.6c0.1-0.5,0.1-0.9,0-1.4c0-0.4-0.3-0.7-1-0.8c-0.4,0.5-0.3,0.9,0.1,1.2C76.6,27.9,76.9,28.2,77.1,28.6
	z"/>
<path class="st0" d="M77.1,30.7c0,0.3,0.3,0.5,0.7,0.4c-0.1-0.2,0-0.5,0.2-0.6c0.2-0.1,0.3-0.4,0.2-0.6c-0.1-0.2-0.4-0.3-0.6-0.3
	c-0.3,0-0.5,0.1-0.7,0.3C77,30.1,77.1,30.4,77.1,30.7z"/>
</svg>
